<?xml version="1.0" encoding="utf-8"?>
<!-- Generator: Adobe Illustrator 26.0.0, SVG Export Plug-In . SVG Version: 6.00 Build 0)  -->
<svg version="1.1" id="Layer_3" xmlns="http://www.w3.org/2000/svg" xmlns:xlink="http://www.w3.org/1999/xlink" x="0px" y="0px"
	 viewBox="0 0 612 792" style="enable-background:new 0 0 612 792;" xml:space="preserve">
<style type="text/css">
	.st0{fill:none;}
	.st1{fill:#5C606F;}
	.st2{fill:#F5F6E8;}
	.st3{fill:#5481B8;}
	.st4{fill:#FFFFFF;}
	.st5{fill:#725F55;}
	.st6{fill:#E59972;}
	.st7{fill:none;stroke:#000000;stroke-miterlimit:10;}
</style>
<g>
	<path class="st0" d="M483.78,126.07c0.17,0.32,0.48,0.62,0.95,0.89C484.36,126.72,484.04,126.41,483.78,126.07z"/>
	<path class="st0" d="M483.69,125.15c-0.01,0.03,0,0.05-0.01,0.07C483.74,125,483.74,124.96,483.69,125.15z"/>
	<path class="st0" d="M341.65,122.38c-0.47,9.58-2.54,18.96-6.01,27.9c1.35,0.68,2.66,1.41,3.81,2.37
		c4.32,3.63,8.67,7.18,13.26,10.47c8.32,5.95,17.13,11.22,26.3,15.75c4.31,2.13,8.7,4.1,13.18,5.88c4.83,1.92,9.94,4.09,15.15,4.59
		c1.82,0.18,3.78,0.26,5.51-0.35c1.18-0.42,2.35-0.9,3.52-1.36c3.88-1.5,7.66-3.34,11.36-5.23c8.37-4.29,16.37-9.33,23.83-15.06
		c-0.94-0.16-1.88-0.36-2.76-0.51c-4.68-0.75-9.35-1.59-14-2.54c-33.39-6.83-66.14-19.44-92.41-41.61
		C342.15,122.59,341.9,122.49,341.65,122.38z"/>
</g>
<g id="XMLID_00000005256721535561092330000014564974670958100926_">
	<g>
		<path d="M110.36,172.85c-1.7-0.49-3.13-2.56-2.44-4.34c2.32-6.14,5.66-11.68,9.86-16.73c7.63-9.14,17.82-15.92,28.55-20.93
			c5.69-2.65,11.58-4.93,17.54-6.92c2.85-0.94,5.73-1.72,8.65-2.2c0.45-0.17,0.89-0.23,1.31-0.21c3.21-0.44,6.48-0.48,9.79,0.1
			c1.89,0.32,2.93,2.63,2.46,4.32c-0.55,1.96-2.46,2.79-4.34,2.46c-2.25-0.39-4.52-0.35-6.79-0.06c-7.47,4.14-15.42,8.73-20.2,16.04
			c-4.21,6.42-5.62,15.16-0.87,21.66c1.13,1.55,0.25,3.93-1.27,4.82c-0.03,0.01-0.07,0.04-0.1,0.04c-1.72,0.96-3.61,0.21-4.72-1.3
			c-5.93-8.16-4.65-19.61,0.31-27.89c1.31-2.2,2.86-4.18,4.56-6.01c-16.16,7.07-31.52,17.73-37.96,34.66
			c-0.69,1.79-2.35,3-4.34,2.46H110.36z"/>
		<path class="st1" d="M152.52,170.92c1.21,9.09-1.48,18.51-1.48,18.51s-6.39,16.55-31.21,10.41c-14.8-3.66-13.2-16.89-9.47-26.99
			h0.01c1.99,0.54,3.65-0.68,4.34-2.46c6.44-16.93,21.8-27.59,37.96-34.66c-1.7,1.83-3.25,3.82-4.56,6.01
			c-4.96,8.28-6.24,19.73-0.31,27.89C148.91,171.13,150.8,171.88,152.52,170.92z"/>
	</g>
	<g>
	</g>
</g>
<g id="XMLID_00000016057958866148073620000007980793089503102849_">
	<g>
		<path d="M507.93,69.22c0.39-2.21,2.69-4.07,5.1-2.51c11.8,7.68,20.47,19.07,25.72,32.04c5.23,12.87,6.65,27.23,5.35,40.99
			c-0.69,7.23-2.18,14.3-3.85,21.35c-1.62,6.87-3.35,13.79-3.87,20.86c-0.82,11.07,1.49,23.71,11.02,30.65
			c4.9,3.58,10.85,6.14,16.69,7.72c5.68,1.54,11.9,1.97,17.23-0.92c3.48-1.9,6.63,2.52,4.72,5.1c-0.31-0.65-0.79-1.21-1.37-1.55
			c-1.8-1.06-3.69-0.27-4.83,1.27c-1.07,1.44-2.23,2.77-3.48,4.03c-4.48,0.62-9.1,0.15-13.58-0.99c-6.96-1.79-14.14-4.92-19.87-9.28
			c-10.34-7.9-14.09-21.03-13.69-33.61c0.45-14.55,6-28.3,7.63-42.69c1.58-13.9,0.41-28.3-5-41.31
			c-4.59-11.07-12.28-21.02-22.37-27.58C508.08,71.9,507.69,70.5,507.93,69.22z"/>
		<path d="M539.18,242.7c0.45-1.44,1.82-2.72,3.38-2.56c12.31,1.3,25.09-3.1,33.79-11.87c2.93-0.41,5.79-1.3,8.51-2.76
			c0.51-0.28,0.89-0.61,1.17-0.99c0.52,1.04,0.59,2.32-0.11,3.27c-9.96,13.37-26.66,21.16-43.36,19.4c-1.9-0.2-3.52-1.45-3.52-3.52
			C539.04,243.33,539.1,243.01,539.18,242.7z"/>
		<path d="M586.03,224.51c-0.28,0.38-0.66,0.7-1.17,0.99c-2.72,1.46-5.58,2.35-8.51,2.76c1.25-1.25,2.41-2.59,3.48-4.03
			c1.14-1.54,3.03-2.32,4.83-1.27C585.24,223.3,585.72,223.87,586.03,224.51z"/>
		<path class="st1" d="M562.77,227.27c4.48,1.14,9.1,1.61,13.58,0.99c-8.7,8.78-21.48,13.17-33.79,11.87
			c-1.56-0.15-2.93,1.13-3.38,2.56c-21.69-8.1-145.15-57.99-117.07-134.15c25.45-69.06,70.91-48.45,85.81-39.33
			c-0.24,1.28,0.15,2.68,1.55,3.58c10.09,6.56,17.78,16.51,22.37,27.58c5.41,13.02,6.58,27.41,5,41.31
			c-1.63,14.4-7.18,28.14-7.63,42.69c-0.39,12.58,3.35,25.71,13.69,33.61C548.63,222.36,555.82,225.49,562.77,227.27z"/>
	</g>
	<g>
	</g>
</g>
<g id="XMLID_00000157289120468564826560000006539099837466545033_">
	<g>
		<path d="M491.02,190.3c0.04-0.04,0.08-0.1,0.13-0.14c1.44-1.42,3.52-1.23,4.99,0c11.1,9.3,20.82,20.17,29.04,32.09
			c15.04,21.76,24.88,47.05,29.07,73.13c4.79,29.62,2.76,60.05-4.83,89.04c-0.2,0.75-0.56,1.32-1.03,1.7
			c3.08-25.3,4.04-42.61,4.04-42.61l-3.18-0.23c0.21-2.93,0.37-5.86,0.46-8.8c0.87-27.27-3.66-54.88-14.62-79.95
			c-9.99-22.82-24.82-43.37-43.95-59.39C489.74,193.95,489.88,191.6,491.02,190.3z"/>
		<path d="M549.25,343.28l3.18,0.23c0,0-0.96,17.31-4.04,42.61c-2.23,1.96-6.72,0.06-5.76-3.58
			C546,369.67,548.27,356.54,549.25,343.28z"/>
		<path class="st1" d="M535.1,254.53c10.96,25.07,15.49,52.68,14.62,79.95c-0.1,2.94-0.25,5.87-0.46,8.8
			c-0.99,13.25-3.25,26.38-6.62,39.26c-0.96,3.63,3.54,5.54,5.76,3.58c-3.82,31.37-10.87,74.99-23.4,113.08
			c-1.82-1.16-4.63-0.82-5.31,1.89c-4.65,18.68-12.42,36.43-22.85,52.6c-10.42,16.16-23.47,30.59-38.45,42.64
			c-7.18,5.78-14.9,10.9-22.95,15.42c0.06-1.13,0.14-2.27,0.27-3.39c0.79-7.55,2.89-14.96,5.68-22.02c0.58-1.48-0.37-3.21-1.69-4
			c2.56-7.89,5.13-17.37,6.59-23c22.16-12.69,42.58-29.61,50.57-54.71c4.35-13.66,4.66-30.5-5.35-41.83
			c-4.92-5.56-11.9-8.99-18.92-11.1c-7.83-2.34-16.24-3.24-24.38-2.37c-16.64,1.8-32.27,10.9-40.36,25.83
			c-0.2,0.38-0.34,0.76-0.39,1.13c-3.96,1.61-8.4-0.14-12.44-3.06c0.38-2.14-1.32-4.8-4.11-4.35
			c-10.06-14.73-18.4-32.62-11.75-50.44c1.66-4.42,4.38-8.32,7.9-11.44c0.37-0.32,0.62-0.68,0.8-1.03c0.34,0.25,0.66,0.52,1.01,0.76
			c1.56,1.08,3.92,0.28,4.82-1.27c1.03-1.75,0.31-3.73-1.25-4.82c-5.41-3.73-8.14-10.51-8.51-16.9c-0.48-8.11,2.28-16.07,5.61-23.37
			c6.75-14.83,15.59-28.66,21.26-43.99c3.14-8.52,5.1-17.51,4.99-26.61c-0.01-1.68-1-2.73-2.21-3.17c-0.94-0.56-2.13-0.68-3.37,0.1
			c-2.82,1.77-5.63,3.55-8.45,5.31c-0.76,0.48-1.52,0.96-2.28,1.42c0.08-0.3,0.15-0.58,0.23-0.82c0.42-1.69,0.86-3.38,1.28-5.07
			c0.8-3.16,1.61-6.31,2.39-9.45c0.83-3.27,1.66-6.54,2.49-9.8c0.8-3.18,0.75-7.16-3.23-8.06c-3.25-0.73-5.99,2-8.37,3.79
			c-2.72,2.03-5.42,4.06-8.14,6.08c-4.07,3.03-8.14,6.07-12.21,9.11c0.85-8.38,1.62-16.78,2.28-25.19c0.15-2-1.75-3.37-3.52-3.52
			c-5.63-0.46-8.7,6.04-11.34,9.94c-1.52,2.25-3.03,4.51-4.55,6.75c-1.01-5.55-2.51-10.99-4.52-16.28c-0.2-0.51-0.46-0.94-0.8-1.32
			c0.04-0.06,0.08-0.1,0.11-0.15c1.13-1.54,0.27-3.93-1.25-4.82c-1.79-1.04-3.7-0.28-4.83,1.27c-3.76,5.18-8.03,10-12.68,14.41
			c-1.11-6.23-2.21-12.44-3.32-18.66c-0.42-2.32-3.34-3.08-5.17-2.1c-3.89,2.1-7.52,4.62-10.85,7.51c0.21-2.28,0.48-4.56,0.83-6.82
			c0.44-2.76-2.35-5.85-5.17-3.99c-2.92,1.92-5.52,4.14-7.92,6.58c-0.63-2.3-1.27-4.58-1.9-6.87c-1.07-3.87-1.87-9.18-6.92-9.45
			c-4.27-0.23-7.86,3.72-10.97,6.14c-1.79,1.39-3.56,2.79-5.35,4.17c-0.06-5.07,0.32-10.16,1.24-15.16
			c0.65-3.49-3.14-5.82-5.87-3.44c-5.97,5.2-11.93,10.38-17.9,15.58c-1.9-8.48-3.8-16.96-5.7-25.44c-0.54-2.38-4.25-3.65-5.89-1.55
			c-6.44,8.27-13.44,16.07-20.92,23.41c-1.11-3.73-2.39-7.39-3.87-11c-0.97-2.38-1.82-5.2-3.85-6.93c-2.79-2.35-6.04-1.3-8.63,0.73
			c-8.09,6.38-15.71,13.4-22.93,20.75c-2.24-2.94-4.24-6.06-6.01-9.3c-1.04-1.89-2.96-2.07-4.45-1.32
			c-1.24-3.08-2.99-6.52-4.49-6.23c-2.66,0.54-10.14,14.68-14.94,19.48c-4.8,4.8-4.87,0-4.87,0l-2.52-8.28
			c1-0.63,1.72-1.72,1.63-2.93c-0.31-3.76-0.58-7.52-0.92-11.28c-0.18-2.07-0.55-3.89-2.58-4.89c-1.9-0.94-3.96-0.2-5.66,0.85
			c-2.69,1.66-4.99,4.11-7.11,6.47c0.37-2.17,0.73-4.35,1.11-6.52c0.55-3.31-3.21-6.09-5.89-3.42c-2.75,2.72-5.51,5.44-8.25,8.16
			c-1.32,1.32-2.66,2.65-4,3.97c-0.42,0.41-0.86,0.93-1.34,1.45c-0.08-0.25-0.17-0.52-0.25-0.77c-0.63-1.77-1.21-3.56-1.8-5.35
			c-1.17-3.56-2.44-7.09-4.13-10.44c-0.35-0.7-1.03-1.23-1.8-1.52c8.54-6.89,22.83-16.41,34.86-24.11c0.72,2.3,3.69,3.89,5.79,1.62
			c4.69-5.06,9.99-9.42,15.65-13.27c4.51-3.07,9.27-5.8,14.13-8.31c11.52-5.94,23.61-10.82,36-14.64
			c25.17-7.75,51.72-10.79,77.92-7.56c14.28,1.77,28.47,5.52,41.71,11.23c-0.44,1.13-0.89,2.27-1.37,3.38
			c-0.73,1.68-0.58,3.86,1.27,4.82c1.03,0.54,2.07,1.07,3.1,1.61c0.56,0.3,1.13,0.59,1.69,0.87c0.11,0.07,0.24,0.13,0.37,0.2
			c0,0.06,0.83,0.73,1.06,0.93c4.51,3.85,9.2,7.49,14.03,10.92c9.59,6.82,19.82,12.73,30.51,17.65c5.42,2.49,10.96,4.8,16.61,6.76
			c5.27,1.82,11.96,3.69,17.52,1.99c3.27-1,6.54-2.54,9.65-3.93c5.42-2.44,10.72-5.18,15.85-8.23c5.83-3.45,11.41-7.31,16.76-11.47
			c1.55-1.2,3.08-2.1,3.25-4.24c0.04-0.51,0.04-1.03,0.06-1.52c0.03-0.83,0.06-1.66,0.08-2.49c0.27-0.76,0.3-1.61-0.01-2.49
			c1.2-1,2.72-2.42,4.61-4.51c0.07,0.11,0.14,0.24,0.25,0.35c5.2,5.87,10.07,12.82,9.45,21.04c-0.61,8.2-5.31,16.47-10.68,22.49
			c-3.01,3.38,1.96,8.37,4.99,4.99c5.62-6.32,10.25-14.23,12.02-22.64c2.32,1.31,6.86,3.99,10.45,6.99
			c-1.14,1.3-1.28,3.65,0.13,4.85C510.28,211.16,525.11,231.71,535.1,254.53z"/>
		<path d="M525,499.2c1.16,0.73,1.9,2.06,1.48,3.76c-2.72,10.93-6.51,21.57-11.21,31.81c-8.28,18-19.57,34.62-33.1,49.09
			c-13.48,14.41-29.33,26.66-46.74,35.97c0.51,8.4,2.68,16.64,6.96,24.02c3.31,5.69,7.76,10.76,13.09,14.58
			c0.27-0.72,0.76-1.35,1.46-1.69c13.13-6.28,28.99-5.61,41.34,2.18c3.83,2.42,0.3,8.51-3.55,6.09c-7.41-4.66-16.47-6.45-25.06-5.04
			c0.2,0.31,0.37,0.68,0.48,1.1c4,16.76,2.24,34.5-4.45,50.33c-6.18,14.61-16.4,26.68-29.5,35.57c-7.27,4.94-15.13,8.92-23.03,12.72
			c-8.1,3.89-16.16,7.93-24.42,11.47c-16.73,7.17-36.03,11.89-53.47,4.18c-7.48-3.31-13.54-9.21-15.92-17.17
			c-1.94-6.52-1.34-13.55,1.01-19.89c-2.65,0.72-5.32,1.3-8.01,1.7c-1.89,0.28-3.79-0.45-4.34-2.45c-0.46-1.69,0.58-4.06,2.46-4.34
			c9.2-1.39,17.89-4.65,25.72-9.59c1.37-10.45,0.72-21.07-6.03-29.5c-0.35-0.42-0.61-0.9-0.77-1.41c-0.99,0.59-1.94,1.2-2.94,1.76
			c-0.58,0.34-1.16,0.46-1.7,0.48c-0.03,0.01-0.06,0.04-0.08,0.07c-6.2,3.97-12.93,6.93-19.72,9.72
			c-7.04,2.89-14.11,5.72-21.17,8.56c-12.73,5.16-25.44,10.4-38.23,15.38c-12.41,4.85-25,9.35-37.95,12.56
			c-13.04,3.25-26.52,4.97-39.9,3.08c-12.75-1.8-24.73-6.69-36.55-11.56c-0.45-0.06-0.9-0.21-1.3-0.48
			c-17.48-12.21-33.41-26.58-47.5-42.58c-12.49-14.17-23.62-29.55-33.34-45.74c-10.07-16.75-19.07-34.48-25.72-52.88
			c-3.62-10.03-6.31-20.38-7.35-31.02c-1.01-10.4,0.1-20.69,2.28-30.89c4.1-19.04,12.2-39.05,6.7-58.64
			c-0.62-2.23,0.83-3.8,2.56-4.24c1.68-0.41,3.62,0.23,4.23,2.37c6.24,22.26-3.3,44.36-7.44,66.03c-1.92,9.99-2.27,20.11-0.68,30.17
			c1.61,10.24,4.75,20.18,8.56,29.82c6.97,17.61,15.9,34.58,25.93,50.64c19.59,31.33,44.74,59.46,75.09,80.7
			c12.93,5.34,26.28,10.9,40.38,11.9c12.9,0.92,25.68-1.56,38.05-5.03c12.63-3.55,24.93-8.17,37.12-13
			c12.49-4.97,24.93-10.07,37.4-15.1c11.8-4.78,24.21-8.96,34.97-15.87c0.62-0.39,1.24-0.55,1.82-0.55
			c7.07-4.06,13.82-8.66,20.1-13.86c11.21-9.27,21.09-20.16,29.09-32.31c8.38-12.75,16.68-27.83,16.25-43.52
			c-0.11-4.55,6.93-4.54,7.04,0c0.28,10.13-2.85,19.87-7.07,28.97c-11.54,24.83-30.44,46.26-53.23,61.44
			c0.01,0.01,0.03,0.03,0.04,0.04c5.65,7.03,8.24,15.65,8.59,24.59c0.14,3.38-0.07,6.73-0.46,10.07c0.59,1.27,0.31,2.65-0.52,3.69
			c-0.87,5.3-2.16,10.55-3.44,15.72c-1.08,4.41-7.87,2.52-6.79-1.87c0.69-2.77,1.41-5.68,2.06-8.65c-2.06,1.07-4.16,2.03-6.3,2.9
			c0.24,0.79,0.2,1.66-0.25,2.58c-3.3,6.58-4.04,15.06-0.42,21.66c4.03,7.32,12.58,10.73,20.44,11.97
			c16.73,2.65,33.17-4.61,47.89-11.65c14.44-6.92,29.86-13.23,42.36-23.44c19.27-15.72,29.4-41.33,26.45-65.91
			c-0.07-0.01-0.14-0.01-0.21-0.04c-6.66-2.11-12.69-5.68-17.85-10.38c-9.28-8.45-15.37-20.26-17.44-32.59
			c-2.11-12.61-0.65-25.5,3.28-37.59l3.8,1.37c1.04-2.42,2.2-5.65,3.35-9.21c1.32,0.79,2.27,2.52,1.69,4
			c-2.79,7.06-4.89,14.47-5.68,22.02c-0.13,1.13-0.21,2.27-0.27,3.39c8.04-4.52,15.76-9.65,22.95-15.42
			c14.99-12.04,28.03-26.48,38.45-42.64c10.42-16.17,18.2-33.92,22.85-52.6C520.36,498.38,523.18,498.04,525,499.2z"/>
		<path d="M459.94,161.58c0.31,0.89,0.28,1.73,0.01,2.49c-0.03,0.83-0.06,1.66-0.08,2.49c-0.01,0.49-0.01,1.01-0.06,1.52
			c-0.17,2.14-1.7,3.04-3.25,4.24c-5.35,4.16-10.93,8.01-16.76,11.47c-5.13,3.04-10.42,5.79-15.85,8.23
			c-3.11,1.39-6.38,2.93-9.65,3.93c-5.56,1.7-12.25-0.17-17.52-1.99c-5.65-1.96-11.18-4.27-16.61-6.76
			c-10.69-4.92-20.92-10.83-30.51-17.65c-4.83-3.42-9.52-7.07-14.03-10.92c-0.23-0.2-1.06-0.87-1.06-0.93
			c-0.13-0.07-0.25-0.13-0.37-0.2c-0.56-0.28-1.13-0.58-1.69-0.87c-1.03-0.54-2.07-1.07-3.1-1.61c-1.85-0.96-2-3.14-1.27-4.82
			c0.48-1.11,0.93-2.25,1.37-3.38c-13.24-5.7-27.42-9.45-41.71-11.23c-26.2-3.23-52.75-0.18-77.92,7.56
			c-12.4,3.82-24.48,8.69-36,14.64c-4.86,2.51-9.62,5.24-14.13,8.31l-0.85-1.23c-2.38,1.45-10.72,6.56-20.59,12.87
			c-0.34-1.07-0.18-2.31,0.8-3.37c9.85-10.62,22.31-18.41,35.26-24.69c24.78-12.04,51.65-19.99,79.18-21.97
			c26.59-1.92,53.54,2.1,78.13,12.44c1.9-6.76,2.89-13.75,3-20.78c-7.44-5.17-10.93-13.96-11.97-22.78
			c-1.14-9.55,0.65-19.61,3.94-28.58c6.18-16.89,18.02-31.26,32.65-41.58C375.52,15,395.01,9.04,414.55,6.55
			c9.92-1.27,19.99-1.62,29.97-1.17c10.48,0.46,20.97,2.06,30.58,6.47c8.32,3.83,15.55,9.94,21.37,16.99
			c2.9,3.54,5.55,7.28,7.9,11.2c1.24,2.07,2.42,4.17,3.49,6.34c1.18,2.39,2.14,5.04,1.13,7.68c-0.34,0.9-0.94,1.66-1.7,2.11
			c-0.75,0.45-1.65,0.62-2.62,0.35c-1.72-0.48-3.14-2.56-2.46-4.34c0.63-1.66-1.44-4.23-2.24-5.69c-1.17-2.11-2.42-4.18-3.75-6.2
			c-2.59-3.94-5.51-7.63-8.8-11c-6.8-6.96-15.03-11.87-24.47-14.34c-9.03-2.35-18.42-2.75-27.71-2.69
			c-9.24,0.06-18.49,0.77-27.59,2.42c-17.3,3.13-34.52,9.47-48.38,20.54c-12.47,9.96-22.54,23.33-27.16,38.72
			c-2.2,7.27-3.37,15.16-2.35,22.73c0.87,6.55,3.52,13.27,9.13,17.06c0.1,0.03,0.2,0.03,0.3,0.07c2,0.82,4,1.65,6,2.48
			c0.23,0.1,0.45,0.21,0.68,0.34c0.31,0.15,0.61,0.34,0.87,0.56c6.63,5.66,13.76,10.69,21.24,15.13
			c13.27,7.87,27.54,13.87,42.26,18.45c7.56,2.35,15.23,4.34,22.97,6.01c3.86,0.85,7.75,1.61,11.63,2.3
			c1.94,0.34,3.89,0.66,5.85,0.97c0.94,0.15,1.89,0.28,2.82,0.45c1.42-2.3,5.24-2.01,6.38,0.93
			C459.89,161.48,459.92,161.52,459.94,161.58z M451.57,167.34c-0.94-0.15-1.89-0.35-2.76-0.49c-4.69-0.75-9.35-1.59-14-2.55
			c-33.38-6.82-66.15-19.44-92.4-41.61c-0.25-0.1-0.51-0.2-0.76-0.31c-0.46,9.58-2.54,18.96-6,27.9c1.34,0.68,2.66,1.41,3.8,2.37
			c4.32,3.63,8.66,7.18,13.27,10.47c8.31,5.96,17.13,11.23,26.3,15.76c4.31,2.13,8.7,4.1,13.17,5.87c4.83,1.92,9.94,4.08,15.16,4.59
			c1.82,0.17,3.77,0.27,5.51-0.35c1.18-0.41,2.35-0.9,3.52-1.35c3.89-1.49,7.66-3.34,11.37-5.23
			C436.1,178.12,444.1,173.07,451.57,167.34z"/>
		<path class="st1" d="M507.29,56.16c3.55,11.01,7.48,36.76-16.72,68.34c-0.18-1.41-0.85-2.68-2.28-3.62
			c-1.59-1.06-3.9-0.32-4.82,1.25c-0.7,1.18-0.58,2.52,0.07,3.59c-0.03,0.08-0.04,0.18-0.07,0.27c-0.03,0.15-0.07,0.3-0.1,0.44
			c-0.2,0.72-0.42,1.42-0.66,2.11c-0.46,1.38-0.96,2.58-1.59,3.86c-1.3,2.63-2.89,5.2-4.75,7.42c-3.76,4.51-8.58,8.31-13.94,10.55
			c-1.76,0.73-3.01,2.34-2.46,4.34c0.46,1.65,2.56,3.2,4.34,2.46c0.08-0.04,0.15-0.08,0.24-0.11c-1.89,2.08-3.41,3.51-4.61,4.51
			c-0.01-0.06-0.04-0.1-0.06-0.15c-1.14-2.94-4.96-3.23-6.38-0.93c-0.93-0.17-1.87-0.3-2.82-0.45c-1.96-0.31-3.9-0.63-5.85-0.97
			c-3.89-0.69-7.78-1.45-11.63-2.3c-7.75-1.68-15.41-3.66-22.97-6.01c-14.72-4.58-28.99-10.58-42.26-18.45
			c-7.48-4.44-14.61-9.47-21.24-15.13c-0.27-0.23-0.56-0.41-0.87-0.56c-0.23-0.13-0.45-0.24-0.68-0.34c-2-0.83-4-1.66-6-2.48
			c-0.1-0.04-0.2-0.04-0.3-0.07c-5.61-3.79-8.25-10.51-9.13-17.06c-1.01-7.58,0.15-15.47,2.35-22.73
			c4.62-15.4,14.69-28.76,27.16-38.72c13.86-11.07,31.09-17.41,48.38-20.54c9.1-1.65,18.35-2.37,27.59-2.42
			c9.28-0.06,18.68,0.34,27.71,2.69c9.44,2.46,17.66,7.38,24.47,14.34c3.3,3.37,6.21,7.06,8.8,11c1.32,2.01,2.58,4.08,3.75,6.2
			c0.8,1.46,2.87,4.03,2.24,5.69c-0.68,1.77,0.75,3.86,2.46,4.34C505.64,56.78,506.54,56.61,507.29,56.16z"/>
		<path d="M407.45,476.28c0.06-0.37,0.2-0.75,0.39-1.13c8.09-14.93,23.72-24.03,40.36-25.83c8.14-0.87,16.55,0.03,24.38,2.37
			c7.01,2.11,14,5.54,18.92,11.1c10.01,11.34,9.71,28.17,5.35,41.83c-7.99,25.1-28.41,42.02-50.57,54.71c0.79-3,1.27-4.9,1.27-4.9
			l-1.72-2.92c8.61-5.06,16.8-10.8,24.03-17.73c9.51-9.13,17.28-20.42,20.85-33.21c3.35-12.06,3.27-26.81-7-35.55
			c-4.99-4.23-11.61-6.45-17.9-7.78c-7.1-1.51-14.61-1.68-21.73-0.21c-12.63,2.61-23.95,10.24-30.14,21.69
			c-0.59,1.08-1.48,1.61-2.39,1.72c-0.58-1.58-2.32-2.66-3.94-2.46C407.4,477.45,407.34,476.87,407.45,476.28z"/>
		<path class="st2" d="M483.71,465.01c10.27,8.75,10.35,23.49,7,35.55c-3.56,12.79-11.34,24.09-20.85,33.21
			c-7.23,6.93-15.42,12.68-24.03,17.73c-5.49,3.25-11.17,6.23-16.87,9.06c-4.06,2-0.49,8.09,3.56,6.07
			c4.59-2.28,9.21-4.7,13.76-7.31c-1.46,5.63-4.03,15.11-6.59,23c-0.25-0.14-0.51-0.25-0.77-0.32c-2-0.55-3.63,0.68-4.32,2.45
			c-0.75,1.89-1.44,3.79-2.06,5.72c-3.93,12.1-5.39,24.99-3.28,37.59c2.07,12.34,8.16,24.14,17.44,32.59
			c5.16,4.7,11.18,8.27,17.85,10.38c0.07,0.03,0.14,0.03,0.21,0.04c2.94,24.58-7.18,50.19-26.45,65.91
			c-12.49,10.21-27.92,16.52-42.36,23.44c-14.72,7.04-31.16,14.3-47.89,11.65c-7.86-1.24-16.41-4.65-20.44-11.97
			c-3.62-6.61-2.87-15.09,0.42-21.66c0.45-0.92,0.49-1.79,0.25-2.58c2.14-0.87,4.24-1.83,6.3-2.9c-0.65,2.97-1.37,5.87-2.06,8.65
			c-1.08,4.39,5.7,6.28,6.79,1.87c1.28-5.17,2.56-10.42,3.44-15.72c0.83-1.04,1.11-2.42,0.52-3.69c0.39-3.34,0.61-6.69,0.46-10.07
			c-0.35-8.94-2.94-17.56-8.59-24.59c-0.01-0.01-0.03-0.03-0.04-0.04c22.79-15.18,41.69-36.61,53.23-61.44
			c4.23-9.1,7.35-18.85,7.07-28.97c-0.11-4.54-7.16-4.55-7.04,0c0.42,15.69-7.87,30.78-16.25,43.52
			c-8,12.16-17.87,23.04-29.09,32.31c-6.28,5.2-13.03,9.8-20.1,13.86c-0.58,0-1.2,0.15-1.82,0.55
			c-10.76,6.92-23.17,11.1-34.97,15.87c-12.47,5.03-24.9,10.13-37.4,15.1c-12.18,4.83-24.48,9.45-37.12,13
			c-12.37,3.47-25.14,5.94-38.05,5.03c-14.1-1-27.45-6.56-40.38-11.9c-30.35-21.24-55.5-49.37-75.09-80.7
			c-10.03-16.06-18.96-33.03-25.93-50.64c-3.82-9.63-6.96-19.58-8.56-29.82c-1.59-10.06-1.24-20.18,0.68-30.17
			c4.14-21.68,13.68-43.78,7.44-66.03c-0.61-2.14-2.55-2.77-4.23-2.37c-1.76-10.59-4.24-23-6.42-33.33
			c0.55-0.04,1.07-0.18,1.49-0.44c1.79-1.04,2.04-3.07,1.27-4.82c-0.86-1.9-1.46-3.89-1.9-5.92c-1.34-6.25-1.01-12.96-1.06-19.21
			c-0.06-9.34-0.07-18.68,0.27-28.02c0.65-17.83,2.79-35.51,7.99-52.62c9.45-31.14,27.24-59.16,47.23-84.57
			c6.89-8.76,14.21-18.09,22.72-25.3c0.56-0.49,1.14-0.96,1.72-1.42c0.96,2.45,1.76,4.96,2.58,7.45c0.63,1.89,1.28,3.76,2.03,5.61
			c0.79,1.96,1.56,4.35,3.86,4.99c2.56,0.7,4.35-1.08,6-2.72c1.59-1.56,3.17-3.14,4.76-4.7c0.73-0.73,1.46-1.45,2.2-2.18
			c-0.52,2.85-1.11,5.75-1.06,8.62c0.06,2.41,3.07,4.75,5.3,3.04c2.96-2.25,4.89-5.54,7.32-8.31c1.23-1.39,2.52-2.75,3.86-4.04
			c0.25-0.25,0.52-0.51,0.77-0.76c0.04,0.41,0.07,0.83,0.11,1.25c0.04,0.45,0.07,0.92,0.11,1.37c0.13,1.65,0.27,3.3,0.39,4.94
			c0.14,1.89,1.51,3.52,3.52,3.52c0.65,0,1.31-0.21,1.89-0.59l2.52,8.28c0,0,0.07,4.8,4.87,0c4.8-4.8,12.28-18.95,14.94-19.48
			c1.51-0.3,3.25,3.14,4.49,6.23c-1.65,0.82-2.79,2.79-1.63,4.87c2.65,4.82,5.8,9.31,9.35,13.51c1.21,1.44,3.75,1.28,4.97,0
			c6.86-7.14,14.09-13.9,21.68-20.26c0.92-0.76,1.85-1.52,2.77-2.28c0.08-0.07,0.41-0.27,0.7-0.48c0.34,0.66,0.77,1.48,0.85,1.62
			c0.48,1.11,0.93,2.25,1.37,3.38c1.79,4.68,3.28,9.44,4.49,14.3c0.66,2.65,4,3.31,5.89,1.55c7.44-6.94,14.4-14.38,20.87-22.23
			c1.8,8.04,3.61,16.07,5.41,24.11c0.62,2.75,4,3.18,5.89,1.55c5.13-4.47,10.27-8.93,15.4-13.4c-0.35,4.76-0.34,9.54,0.11,14.31
			c0.31,3.23,3.55,4.42,6.01,2.49c2.93-2.28,5.86-4.58,8.79-6.87c1.46-1.14,2.94-2.28,4.41-3.42c0.63-0.51,1.25-1.03,1.92-1.49
			c0.08-0.07,0.46-0.27,0.83-0.46c0.17,0.52,0.39,1.08,0.44,1.23c0.49,1.76,0.97,3.52,1.46,5.28c0.97,3.52,1.94,7.04,2.92,10.56
			c0.87,3.14,4.73,3.2,6.44,0.85c1.14-1.55,2.42-3,3.77-4.35c-0.25,2.85-0.41,5.72-0.45,8.59s4,4.86,6.01,2.48
			c3.38-4.01,7.25-7.48,11.58-10.35c1.18,6.61,2.37,13.23,3.54,19.83c0.51,2.83,4.07,3.1,5.89,1.56c4.96-4.2,9.47-8.83,13.61-13.8
			c2.32,6.8,3.86,13.83,4.45,21c0.3,3.51,4.55,4.76,6.56,1.77c2.76-4.08,5.51-8.17,8.27-12.25c0.86-1.27,1.72-2.55,2.58-3.82
			c-0.69,8.09-1.44,16.17-2.3,24.26c-0.28,2.52,3.24,4.56,5.3,3.03c5.24-3.92,10.48-7.83,15.73-11.75c2.62-1.96,5.24-3.92,7.86-5.87
			c1.07-0.79,2.13-1.58,3.2-2.38c-0.2,0.79-0.41,1.56-0.61,2.35c-0.62,2.48-1.25,4.96-1.89,7.42c-0.68,2.7-1.37,5.41-2.04,8.11
			c-0.62,2.41-1.44,4.85-1.76,7.32c-0.27,2.06,0.03,4.25,1.52,5.83c1.83,1.92,4.58,1.68,6.69,0.48c2.83-1.61,5.58-3.37,8.31-5.14
			c-1.45,14.1-7.86,27.19-14.37,39.67c-3.92,7.51-8,14.94-11.4,22.69c-3.55,8.13-6.49,16.97-5.73,25.97
			c0.51,6.14,2.55,12.06,6.25,16.8c-0.38,0.15-0.76,0.37-1.11,0.68c-7.48,6.62-11.31,16.23-12.2,26.02
			c-0.97,10.66,2.1,21.21,6.76,30.71c2.11,4.28,4.58,8.38,7.24,12.34c-12.62,5.25-22.48,16.78-25.97,29.99
			c-4.18,15.85,1.96,32.68,14.42,43.09c6.39,5.34,13.99,8.87,22.21,10c0.73,0.32,1.52,0.42,2.27,0.27c0.01,0,0.04,0,0.06,0
			c1.9,0.15,3.52-1.73,3.52-3.52c0-1.89-1.39-3.17-3.11-3.47c-6.83-6.37-10.87-15.31-10.63-24.73c0.13-5.13,1.48-10.24,3.93-14.75
			c2.44-4.49,5.96-8.03,9.62-11.54c4.16-3.99,8.34-8.04,11.09-13.16c0.54-1,0.56-1.99,0.25-2.82c0.92-0.11,1.8-0.63,2.39-1.72
			c6.2-11.45,17.51-19.09,30.14-21.69c7.13-1.46,14.64-1.3,21.73,0.21C472.11,458.56,478.73,460.79,483.71,465.01z"/>
		<path d="M480.57,183.31c-1.76,8.41-6.39,16.31-12.02,22.64c-3.03,3.38-8-1.61-4.99-4.99c5.37-6.03,10.07-14.3,10.68-22.49
			c0.62-8.23-4.25-15.17-9.45-21.04c-0.11-0.11-0.18-0.24-0.25-0.35c-0.08,0.03-0.15,0.07-0.24,0.11c-1.77,0.73-3.87-0.82-4.34-2.46
			c-0.55-2,0.7-3.61,2.46-4.34c5.37-2.24,10.18-6.04,13.94-10.55c1.86-2.23,3.45-4.79,4.75-7.42c0.63-1.28,1.13-2.48,1.59-3.86
			c0.24-0.69,0.46-1.39,0.66-2.11c0.03-0.14,0.07-0.28,0.1-0.44l0.31,0.07c0.15,0.32,0.48,0.62,0.94,0.89l2.59,1.62
			c1.14-1.37,2.23-2.73,3.25-4.07c0.38,2.66-0.94,5.8-1.92,8.2c-1.46,3.58-3.31,6.93-5.65,10.01c-3.38,4.45-7.45,8.14-12.1,11.03
			c5.92,6.96,11.09,15.24,10.38,24.72C481.16,180.1,480.94,181.71,480.57,183.31z"/>
		<path d="M490.57,124.51c-1.03,1.34-2.11,2.7-3.25,4.07l-2.59-1.62c-0.37-0.24-0.69-0.55-0.94-0.89l-0.31-0.07
			c0.03-0.08,0.04-0.18,0.07-0.27c-0.65-1.07-0.77-2.41-0.07-3.59c0.92-1.58,3.23-2.31,4.82-1.25
			C489.73,121.83,490.39,123.1,490.57,124.51z"/>
		<path class="st3" d="M448.81,166.85c0.87,0.14,1.82,0.34,2.76,0.49c-7.47,5.73-15.47,10.78-23.83,15.07
			c-3.7,1.89-7.48,3.73-11.37,5.23c-1.17,0.45-2.34,0.94-3.52,1.35c-1.73,0.62-3.69,0.52-5.51,0.35
			c-5.21-0.51-10.32-2.68-15.16-4.59c-4.47-1.77-8.86-3.75-13.17-5.87c-9.17-4.54-17.99-9.8-26.3-15.76
			c-4.61-3.28-8.94-6.83-13.27-10.47c-1.14-0.96-2.46-1.69-3.8-2.37c3.47-8.94,5.54-18.33,6-27.9c0.25,0.11,0.51,0.21,0.76,0.31
			c26.26,22.17,59.02,34.79,92.4,41.61C439.45,165.26,444.12,166.1,448.81,166.85z"/>
		<path d="M445.84,551.51l1.72,2.92c0,0-0.48,1.9-1.27,4.9c-4.55,2.61-9.17,5.03-13.76,7.31c-4.06,2.01-7.62-4.07-3.56-6.07
			C434.67,557.74,440.34,554.77,445.84,551.51z"/>
		<path d="M438.92,582.01c0.27,0.07,0.52,0.18,0.77,0.32c-1.16,3.56-2.31,6.79-3.35,9.21l-3.8-1.37c0.62-1.93,1.31-3.83,2.06-5.72
			C435.29,582.68,436.92,581.46,438.92,582.01z"/>
		<path d="M171.28,223.15c1.49-0.75,3.41-0.56,4.45,1.32c1.77,3.24,3.77,6.35,6.01,9.3c7.23-7.35,14.85-14.37,22.93-20.75
			c2.59-2.03,5.85-3.08,8.63-0.73c2.03,1.73,2.87,4.55,3.85,6.93c1.48,3.61,2.76,7.27,3.87,11c7.48-7.34,14.48-15.14,20.92-23.41
			c1.63-2.1,5.35-0.83,5.89,1.55c1.9,8.48,3.8,16.96,5.7,25.44c5.97-5.2,11.93-10.38,17.9-15.58c2.73-2.38,6.52-0.06,5.87,3.44
			c-0.92,5-1.3,10.09-1.24,15.16c1.79-1.38,3.56-2.77,5.35-4.17c3.11-2.42,6.7-6.37,10.97-6.14c5.04,0.27,5.85,5.58,6.92,9.45
			c0.63,2.3,1.27,4.58,1.9,6.87c2.39-2.44,5-4.66,7.92-6.58c2.82-1.86,5.61,1.23,5.17,3.99c-0.35,2.25-0.62,4.54-0.83,6.82
			c3.32-2.89,6.96-5.41,10.85-7.51c1.83-0.99,4.75-0.23,5.17,2.1c1.11,6.23,2.21,12.44,3.32,18.66c4.65-4.41,8.92-9.23,12.68-14.41
			c1.13-1.55,3.04-2.31,4.83-1.27c1.52,0.89,2.38,3.28,1.25,4.82c-0.03,0.06-0.07,0.1-0.11,0.15c0.34,0.38,0.61,0.82,0.8,1.32
			c2.01,5.3,3.51,10.73,4.52,16.28c1.52-2.24,3.03-4.49,4.55-6.75c2.63-3.9,5.7-10.41,11.34-9.94c1.77,0.15,3.68,1.52,3.52,3.52
			c-0.66,8.41-1.44,16.8-2.28,25.19c4.07-3.04,8.14-6.08,12.21-9.11c2.72-2.03,5.42-4.06,8.14-6.08c2.38-1.79,5.11-4.52,8.37-3.79
			c3.97,0.9,4.03,4.87,3.23,8.06c-0.83,3.27-1.66,6.54-2.49,9.8c-0.79,3.14-1.59,6.3-2.39,9.45c-0.42,1.69-0.86,3.38-1.28,5.07
			c-0.07,0.24-0.14,0.52-0.23,0.82c0.76-0.46,1.52-0.94,2.28-1.42c2.82-1.76,5.63-3.54,8.45-5.31c1.24-0.77,2.42-0.66,3.37-0.1
			c1.21,0.44,2.2,1.49,2.21,3.17c0.11,9.1-1.85,18.09-4.99,26.61c-5.66,15.33-14.51,29.16-21.26,43.99
			c-3.32,7.3-6.09,15.25-5.61,23.37c0.37,6.39,3.1,13.17,8.51,16.9c1.56,1.08,2.28,3.07,1.25,4.82c-0.9,1.55-3.25,2.35-4.82,1.27
			c-0.35-0.24-0.68-0.51-1.01-0.76c-0.18,0.35-0.44,0.7-0.8,1.03c-3.52,3.11-6.24,7.01-7.9,11.44
			c-6.65,17.82,1.69,35.71,11.75,50.44c-0.07,0.01-0.14,0.03-0.23,0.04c-0.2,0.04-0.39,0.08-0.59,0.14c-2.13,0.49-4.2,1.17-6.2,2.01
			c-2.66-3.96-5.13-8.06-7.24-12.34c-4.66-9.49-7.73-20.04-6.76-30.71c0.89-9.79,4.72-19.4,12.2-26.02
			c0.35-0.31,0.73-0.52,1.11-0.68c-3.7-4.75-5.75-10.66-6.25-16.8c-0.76-9,2.18-17.85,5.73-25.97c3.39-7.75,7.48-15.18,11.4-22.69
			c6.51-12.48,12.92-25.57,14.37-39.67c-2.73,1.77-5.48,3.54-8.31,5.14c-2.11,1.2-4.86,1.44-6.69-0.48
			c-1.49-1.58-1.79-3.77-1.52-5.83c0.32-2.48,1.14-4.92,1.76-7.32c0.68-2.7,1.37-5.41,2.04-8.11c0.63-2.46,1.27-4.94,1.89-7.42
			c0.2-0.79,0.41-1.56,0.61-2.35c-1.07,0.8-2.13,1.59-3.2,2.38c-2.62,1.96-5.24,3.92-7.86,5.87c-5.25,3.92-10.49,7.83-15.73,11.75
			c-2.06,1.54-5.58-0.51-5.3-3.03c0.86-8.09,1.61-16.17,2.3-24.26c-0.86,1.27-1.72,2.55-2.58,3.82c-2.76,4.08-5.51,8.17-8.27,12.25
			c-2.01,2.99-6.27,1.73-6.56-1.77c-0.59-7.17-2.13-14.2-4.45-21c-4.14,4.97-8.65,9.61-13.61,13.8c-1.82,1.54-5.38,1.27-5.89-1.56
			c-1.17-6.61-2.35-13.23-3.54-19.83c-4.32,2.87-8.2,6.34-11.58,10.35c-2.01,2.38-6.06,0.39-6.01-2.48s0.2-5.75,0.45-8.59
			c-1.35,1.35-2.63,2.8-3.77,4.35c-1.7,2.35-5.56,2.3-6.44-0.85c-0.97-3.52-1.94-7.04-2.92-10.56c-0.49-1.76-0.97-3.52-1.46-5.28
			c-0.04-0.14-0.27-0.7-0.44-1.23c-0.37,0.2-0.75,0.39-0.83,0.46c-0.66,0.46-1.28,0.99-1.92,1.49c-1.46,1.14-2.94,2.28-4.41,3.42
			c-2.93,2.3-5.86,4.59-8.79,6.87c-2.46,1.93-5.7,0.73-6.01-2.49c-0.45-4.78-0.46-9.55-0.11-14.31c-5.13,4.47-10.27,8.93-15.4,13.4
			c-1.89,1.63-5.27,1.2-5.89-1.55c-1.8-8.04-3.61-16.07-5.41-24.11c-6.48,7.85-13.44,15.28-20.87,22.23
			c-1.89,1.76-5.23,1.1-5.89-1.55c-1.21-4.86-2.7-9.62-4.49-14.3c-0.44-1.13-0.89-2.27-1.37-3.38c-0.07-0.14-0.51-0.96-0.85-1.62
			c-0.3,0.21-0.62,0.41-0.7,0.48c-0.93,0.76-1.86,1.52-2.77,2.28c-7.59,6.35-14.82,13.11-21.68,20.26c-1.23,1.28-3.76,1.44-4.97,0
			c-3.55-4.2-6.7-8.69-9.35-13.51C168.49,225.94,169.63,223.96,171.28,223.15z"/>
		<path d="M411.54,480.44c0.31,0.83,0.28,1.82-0.25,2.82c-2.75,5.11-6.93,9.17-11.09,13.16c-3.66,3.51-7.18,7.04-9.62,11.54
			c-2.45,4.51-3.8,9.62-3.93,14.75c-0.24,9.42,3.8,18.37,10.63,24.73c-0.13-0.03-0.27-0.04-0.41-0.06
			c-3.87-0.32-7.63-1.34-11.16-2.96c-1.25-2-2.34-4.11-3.24-6.31c-4.44-10.78-3.59-23.2,1.87-33.45c2.69-5.01,6.59-9.13,10.66-13.03
			c3.8-3.65,7.68-7.24,10.18-11.93c0.59-1.1,1.46-1.62,2.39-1.72C408.17,479.55,409.93,480.63,411.54,480.44z"/>
		<path d="M411.54,480.44c-1.61,0.2-3.37-0.89-3.94-2.46C409.21,477.77,410.96,478.86,411.54,480.44z"/>
		<path class="st1" d="M407.45,476.28c-0.11,0.59-0.06,1.17,0.14,1.69c-0.93,0.1-1.8,0.62-2.39,1.72
			c-2.51,4.69-6.38,8.28-10.18,11.93c-4.07,3.9-7.97,8.01-10.66,13.03c-5.47,10.25-6.31,22.68-1.87,33.45
			c0.9,2.2,1.99,4.31,3.24,6.31c-8.61-3.89-15.73-11.21-19.44-19.86c-5.41-12.63-2.14-27.2,6.89-37.3
			c4.38-4.9,9.83-8.61,16.02-10.63c0.72,0.11,1.46-0.01,2.18-0.44c0.14-0.08,0.28-0.18,0.42-0.3c0.25-0.07,0.51-0.13,0.76-0.18
			c1.51-0.32,2.28-1.32,2.46-2.48C399.06,476.14,403.49,477.89,407.45,476.28z"/>
		<path d="M397.28,547.43c1.72,0.3,3.11,1.58,3.11,3.47c0,1.79-1.62,3.68-3.52,3.52c-0.01,0-0.04,0-0.06,0
			c0.61-0.13,1.2-0.44,1.69-0.93c1.25-1.25,1.45-3.73,0-4.97C398.09,548.16,397.68,547.79,397.28,547.43z"/>
		<path d="M398.51,548.51c1.45,1.24,1.25,3.72,0,4.97c-0.49,0.49-1.08,0.8-1.69,0.93c-0.76-0.07-1.52-0.15-2.27-0.27
			c-0.37-0.17-0.72-0.39-1.03-0.66c-3.08-2.61-5.69-5.68-7.8-9.07c3.52,1.62,7.28,2.63,11.16,2.96c0.14,0.01,0.28,0.03,0.41,0.06
			C397.68,547.79,398.09,548.16,398.51,548.51z"/>
		<path d="M396.82,554.41c-0.75,0.15-1.54,0.06-2.27-0.27C395.3,554.26,396.06,554.34,396.82,554.41z"/>
		<path d="M390.9,468.87c2.79-0.45,4.49,2.21,4.11,4.35c-0.8-0.56-1.61-1.18-2.37-1.83c-0.01-0.01-0.01-0.03-0.01-0.03
			C392.06,470.55,391.46,469.72,390.9,468.87z"/>
		<path d="M393.52,553.48c0.31,0.27,0.66,0.49,1.03,0.66c-8.23-1.13-15.82-4.66-22.21-10c-12.47-10.41-18.61-27.24-14.42-43.09
			c3.49-13.21,13.35-24.73,25.97-29.99c0.87,1.3,1.76,2.59,2.66,3.86c0.65,0.92,1.61,1.55,2.63,1.69
			c-6.18,2.03-11.63,5.73-16.02,10.63c-9.03,10.1-12.3,24.66-6.89,37.3c3.7,8.65,10.83,15.97,19.44,19.86
			C387.83,547.81,390.44,550.88,393.52,553.48z"/>
		<path d="M392.65,471.39c0.76,0.65,1.56,1.27,2.37,1.83c-0.18,1.15-0.96,2.16-2.46,2.48c-0.25,0.06-0.51,0.11-0.76,0.18
			C393.04,474.86,393.63,472.8,392.65,471.39z"/>
		<path d="M392.65,471.39c0.99,1.41,0.39,3.47-0.86,4.49c-0.89,0.21-1.75,0.45-2.61,0.73c-1.03-0.14-1.99-0.77-2.63-1.69
			c-0.9-1.27-1.79-2.56-2.66-3.86c2-0.85,4.07-1.52,6.2-2.01c0.82,0.79,1.66,1.56,2.55,2.31
			C392.63,471.37,392.63,471.38,392.65,471.39z"/>
		<path d="M391.79,475.89c-0.14,0.11-0.28,0.21-0.42,0.3c-0.72,0.42-1.46,0.55-2.18,0.44C390.04,476.34,390.9,476.1,391.79,475.89z"
			/>
		<path d="M390.9,468.87c0.56,0.85,1.16,1.68,1.73,2.49c-0.89-0.75-1.73-1.52-2.55-2.31c0.2-0.06,0.39-0.1,0.59-0.14
			C390.76,468.9,390.83,468.89,390.9,468.87z"/>
		<path d="M158.91,164.89l0.85,1.23c-5.66,3.85-10.96,8.21-15.65,13.27c-2.1,2.27-5.07,0.68-5.79-1.62
			C148.19,171.45,156.53,166.34,158.91,164.89z"/>
		<path d="M146.08,225.19c0.08,1.21-0.63,2.3-1.63,2.93l-2.48-8.14l-3.32,0.27c-0.04-0.45-0.07-0.92-0.11-1.37
			c-0.04-0.42-0.07-0.85-0.11-1.25c-0.25,0.25-0.52,0.51-0.77,0.76c-1.34,1.3-2.63,2.65-3.86,4.04c-2.44,2.77-4.37,6.06-7.32,8.31
			c-2.23,1.7-5.24-0.63-5.3-3.04c-0.06-2.87,0.54-5.78,1.06-8.62c-0.73,0.73-1.46,1.45-2.2,2.18c-1.59,1.56-3.17,3.14-4.76,4.7
			c-1.65,1.63-3.44,3.42-6,2.72c-2.3-0.63-3.07-3.03-3.86-4.99c-0.75-1.85-1.39-3.72-2.03-5.61c-0.82-2.49-1.62-5-2.58-7.45
			c-0.58,0.46-1.16,0.93-1.72,1.42l-3.01-2.62c0.63-1.63,3.37-4.31,7.39-7.56c0.77,0.3,1.45,0.82,1.8,1.52
			c1.69,3.35,2.96,6.87,4.13,10.44c0.59,1.79,1.17,3.58,1.8,5.35c0.08,0.25,0.17,0.52,0.25,0.77c0.48-0.52,0.92-1.04,1.34-1.45
			c1.34-1.32,2.68-2.65,4-3.97c2.75-2.72,5.51-5.44,8.25-8.16c2.68-2.66,6.44,0.11,5.89,3.42c-0.38,2.17-0.75,4.35-1.11,6.52
			c2.13-2.35,4.42-4.8,7.11-6.47c1.7-1.04,3.76-1.79,5.66-0.85c2.03,1,2.39,2.82,2.58,4.89
			C145.5,217.67,145.77,221.43,146.08,225.19z"/>
		<path d="M141.97,219.98l2.48,8.14c-0.58,0.38-1.24,0.59-1.89,0.59c-2.01,0-3.38-1.63-3.52-3.52c-0.13-1.65-0.27-3.3-0.39-4.94
			L141.97,219.98z"/>
		<path d="M18.81,422.4c0.68,3.08,1.45,6.68,2.25,10.55c-1.32,0.1-2.77-0.46-3.32-1.7c-4.32-9.68-3.87-20.35-3.93-30.72
			c-0.06-10.71-0.03-21.42,0.55-32.12c1-18.17,3.79-36.16,9.59-53.44c5.34-15.9,12.75-31.09,21.4-45.43
			c8.8-14.59,18.9-28.37,29.58-41.64c3.77-4.69,7.45-9.56,11.76-13.76c4.34-4.24,8.78-8.51,13.75-12.02c0.83-0.59,2-0.62,3.01-0.25
			c-4.03,3.25-6.76,5.93-7.39,7.56l3.01,2.62c-8.51,7.21-15.83,16.54-22.72,25.3c-19.99,25.41-37.78,53.43-47.23,84.57
			c-5.2,17.11-7.34,34.79-7.99,52.62c-0.34,9.34-0.32,18.68-0.27,28.02c0.04,6.25-0.28,12.96,1.06,19.21L18.81,422.4z"/>
		<path d="M23.83,427.7c0.77,1.75,0.52,3.77-1.27,4.82c-0.42,0.25-0.94,0.39-1.49,0.44c-0.8-3.87-1.58-7.47-2.25-10.55l3.11-0.62
			C22.36,423.81,22.97,425.8,23.83,427.7z"/>
	</g>
	<g>
	</g>
</g>
<g id="XMLID_00000171700749139938670640000002918273774314393520_">
	<g>
		<path d="M550.31,357.82c0.27-0.46,0.66-0.86,1.2-1.17c1.52-0.9,4.01-0.46,4.82,1.27c8.14,17.52,8.59,36.92,5.82,55.75
			c-1.24,8.4-3.13,16.68-5.3,24.89c-2.31,8.78-4.9,17.62-5.52,26.72c-0.3,4.34-0.17,8.72,0.68,12.99c0.87,4.51,2.28,8.87,3.38,13.33
			c2.03,8.2,2.63,16.71,1.76,25.11c-3.61,34.82-27.58,61.74-52.41,84.29c-3.16,2.86-7.73-1.34-5.52-4.39
			c-0.85-1.34-0.83-3.37,0.44-4.44c9.11-7.73,16.25-17.49,20.99-28.47c4.14-9.63,6.31-20.16,6.27-30.64
			c-0.04-11.79-3.34-23.16-6.47-34.43c-3.23-11.58-6.48-23.58-5.79-35.71c0.25-4.48,1.11-8.76,2.41-12.89
			c2.42-7.65,6.37-14.76,10.82-21.62c2.46-3.79,8.56-0.25,6.09,3.55c-3.83,5.9-7.55,12-9.83,18.69c-2.14,6.3-2.82,12.82-2.39,19.45
			c0.76,12.1,4.82,23.75,7.89,35.4c3,11.31,5.06,22.85,4.03,34.59c-0.89,10.24-3.66,20.3-8.07,29.55c3.8-4.62,7.37-9.45,10.55-14.56
			c8.47-13.59,14.23-29.24,14.38-45.38c0.03-3.96-0.24-7.92-0.96-11.8c-0.77-4.24-2.03-8.38-3.13-12.55
			c-2.35-9-2.73-17.78-1.37-26.97c1.32-8.82,3.94-17.34,6.11-25.96c1.97-7.89,3.68-15.9,4.62-23.99
			c1.87-15.79,1.25-32.33-5.55-46.96C549.68,360.26,549.65,358.88,550.31,357.82z"/>
		<path class="st1" d="M550.24,361.47c6.8,14.64,7.42,31.17,5.55,46.96c-0.94,8.09-2.65,16.1-4.62,23.99
			c-2.17,8.62-4.79,17.14-6.11,25.96c-1.37,9.2-0.99,17.97,1.37,26.97c1.1,4.17,2.35,8.31,3.13,12.55c0.72,3.89,0.99,7.85,0.96,11.8
			c-0.15,16.14-5.92,31.79-14.38,45.38c-3.18,5.11-6.75,9.94-10.55,14.56c4.41-9.25,7.18-19.31,8.07-29.55
			c1.03-11.75-1.03-23.28-4.03-34.59c-3.07-11.65-7.13-23.3-7.89-35.4c-0.42-6.63,0.25-13.16,2.39-19.45
			c2.28-6.69,6-12.79,9.83-18.69c2.48-3.8-3.62-7.34-6.09-3.55c-4.45,6.86-8.4,13.97-10.82,21.62c-0.89-20.57,21.44-83.2,23.9-90.6
			c1.85-5.51,6.58-3.44,9.35-1.62C549.65,358.88,549.68,360.26,550.24,361.47z"/>
	</g>
	<g>
	</g>
</g>
<path class="st0" d="M600.39,475.17"/>
<path d="M431.86,503.37c-4.21-10.03,1.61-19.97,8.3-27.28c3.09-3.38,6.55-7.09,10.91-8.81c4.45-1.75,9.16-0.64,13.02,1.96
	c4.46,3,7.3,8.07,9.12,13c0.66,1.78,2.39,2.99,4.33,2.46c1.72-0.47,3.12-2.54,2.46-4.33c-2.15-5.81-5.21-11.48-10.06-15.49
	c-4.76-3.93-10.85-6.17-17.05-5.3c-6.15,0.86-11.21,4.85-15.46,9.15c-4.35,4.4-8.51,9.31-11.11,14.98
	c-3.07,6.7-4.19,14.57-1.27,21.53c0.74,1.75,2.33,3.01,4.33,2.46C431.06,507.24,432.61,505.13,431.86,503.37L431.86,503.37z"/>
<path d="M441.97,485.12c4.27,1.88,8.09,4.99,8.7,9.9c0.7,5.68-2.26,11.07-4.81,15.91c-2.11,4.01,3.97,7.57,6.08,3.55
	c3.38-6.43,6.65-13.25,5.61-20.72c-0.95-6.81-5.89-12.03-12.03-14.73c-1.74-0.76-3.78-0.51-4.82,1.26
	C439.83,481.79,440.22,484.35,441.97,485.12L441.97,485.12z"/>
<path d="M110.35,193.74c-13.06-10.45-31.31-13.86-47-7.51c-8.36,3.38-14.89,9.22-20.26,16.37c-5.12,6.82-9.29,14.53-12.28,22.5
	c-3.5,9.34-4.89,19.6-2.17,29.33c1.22,4.36,8.01,2.51,6.79-1.87c-4.19-15.01,3.17-30.79,11.38-43.07
	c4.12-6.16,9.22-11.75,15.85-15.24c6.45-3.4,13.85-4.63,21.08-4.05c7.77,0.63,15.54,3.64,21.64,8.52c1.48,1.19,3.53,1.45,4.98,0
	C111.58,197.49,111.85,194.93,110.35,193.74L110.35,193.74z"/>
<path d="M323.61,109.02c-5.12,2.82-10.45,5.81-14.35,10.26c-4.49,5.13-6.31,11.45-7.02,18.11c-0.71,6.63-0.5,13.53,2.33,19.68
	c2.38,5.17,7.1,9.51,12.74,10.7c4.42,0.93,6.31-5.85,1.87-6.79c-10.58-2.24-10.88-15.72-9.83-24.19c0.61-4.91,2.15-9.71,5.64-13.34
	c3.44-3.58,7.87-5.98,12.17-8.35C331.13,112.91,327.58,106.83,323.61,109.02L323.61,109.02z"/>
<path d="M519.35,55.04c4.64-8.41,15.3-12.7,24.46-9.67c9.01,2.98,15.02,13.44,13.33,22.72c-0.34,1.87,0.51,3.8,2.46,4.33
	c1.71,0.47,3.99-0.58,4.33-2.46c1.82-10-2.09-20.6-10.1-26.93c-8.26-6.53-19.18-7.21-28.59-2.75c-5.01,2.37-9.29,6.35-11.97,11.2
	C511.08,55.46,517.16,59.01,519.35,55.04L519.35,55.04z"/>
<g id="XMLID_00000145034775134497464070000016018174708493477530_">
	<g>
		<path d="M111.09,453.84c-0.01,0.01-0.03,0.03-0.04,0.03c-0.03,0-0.06,0.01-0.08,0.03c0-0.18,0.03-0.37,0.03-0.52
			c0.04-8.31-1.2-17,3.69-24.33c0.75-1.1,1.58-2.16,2.45-3.14c0.31-0.35,0.62-0.7,0.96-1.01c0.07,0,0.15,0.01,0.23,0.01
			c0.03,0.04,0.04,0.08,0.07,0.13c-0.06,0.11-0.06,0.18,0.03,0.18c0.03,0,0.01-0.07-0.03-0.18c0-0.04,0.03-0.08,0.06-0.13
			c0.11,0,0.23,0,0.31-0.03c0.06-0.01,0.1-0.01,0.14-0.03c-0.11,0-0.25-0.01-0.32-0.1c-0.01-0.01-0.03-0.03-0.03-0.04
			c0.21-0.32,0.41-0.61-0.13-0.13c-0.69-0.76-0.41-0.27-0.18,0.17c-0.06,0.04-0.1,0.08-0.14,0.14c-0.13,0-0.27-0.01-0.38-0.01
			c-0.79-0.01-1.59-0.01-2.38-0.03c-5.37-0.04-10.72-0.1-16.09-0.17c-8.45-0.13-16.9-0.3-25.35-0.42
			c-15.8-0.25-31.62-0.31-47.43-0.34c0-0.1,0-0.2-0.01-0.3c1.34-0.49,2.31-1.65,2.31-3.23c0-1.63-1.39-3.41-3.1-3.52
			c1.21,0.01,2.41,0.01,3.61,0.01c18.38,0.04,36.76,0.18,55.15,0.51c10.87,0.18,21.75,0.34,32.62,0.42
			c3.07,0.03,5.94,0.37,7.42,3.45c0.97,2.03,1.42,4.48,0.31,6.54c-1.17,2.17-3.37,3.65-4.63,5.82c-0.99,1.69-1.54,3.41-1.92,5.37
			c-0.75,3.86-0.24,8.63-0.18,12.79c0.03,2.61,0.06,5.07-1.96,7.01c-0.59,0.58-1.27,1.08-1.9,1.62c-2.37,2.01-4.72,4.01-7.09,6.03
			c-2.48,2.1-5.08,3.77-7.99,5.28c-18.62,9.66-43.1,11.83-59.62-3.14c-7.28-6.59-12.3-15.47-15.68-24.61
			c-1.68-4.52-2.93-9.21-3.69-13.97c-0.38-2.34-0.86-4.83-0.82-7.2c0.04-2.87,1.93-4.89,4.45-5.63c-2.97,1.35-2.48,6.75,1.49,6.75
			c0.41,0,0.82,0,1.23,0c0.03,0.38,0.01,0.82,0.03,1.03c0.08,0.82,0.17,1.63,0.3,2.45c2.39,16.1,10.44,34.41,25.96,41.68
			c8.37,3.93,18.21,4.14,27.13,2.21c4.7-1.01,9.31-2.56,13.65-4.63c2.3-1.1,4.47-2.37,6.66-3.65c0.13-0.08,0.23-0.13,0.3-0.17
			c-0.07,0.08-0.11,0.11-0.13,0.14c0.03,0.03,0.41-0.27,0.15-0.15c0.27-0.25,0.56-0.48,0.85-0.72c2.1-1.79,4.21-3.58,6.31-5.38
			c0.9-0.76,1.8-1.52,2.7-2.28c0.08-0.08,0.41-0.45,0.59-0.55c0,0.1,0.01,0.2,0.03,0.28c0.03,0.14,0.04,0.21,0.06,0.24
			C111.05,454.35,111.02,454,111.09,453.84z M118.99,424.84C119.1,424.84,119.15,424.81,118.99,424.84L118.99,424.84z"/>
		<path d="M118.89,424.85c-0.04,0.01-0.08,0.01-0.14,0.03c-0.08,0.03-0.2,0.03-0.31,0.03c0.03-0.07,0.07-0.13,0.1-0.2
			c0,0.01,0.01,0.03,0.03,0.04C118.64,424.84,118.78,424.85,118.89,424.85z"/>
		<path d="M118.41,424.59c0.54-0.48,0.34-0.2,0.13,0.13C118.48,424.66,118.46,424.63,118.41,424.59z"/>
		<path d="M118.41,424.59c0.04,0.04,0.07,0.07,0.13,0.13c-0.03,0.07-0.07,0.13-0.1,0.2c-0.04,0-0.08,0-0.13,0
			c-0.03-0.06-0.06-0.1-0.08-0.15c0.03-0.03,0.04-0.04,0.07-0.07C118.34,424.64,118.39,424.61,118.41,424.59z"/>
		<path d="M118.32,424.91c0.04,0,0.08,0,0.13,0c-0.03,0.04-0.06,0.08-0.06,0.13C118.36,425,118.34,424.95,118.32,424.91z"/>
		<path d="M118.41,424.59c-0.03,0.03-0.07,0.06-0.11,0.1c-0.03,0.03-0.04,0.04-0.07,0.07C118.01,424.32,117.72,423.83,118.41,424.59
			z"/>
		<path d="M118.32,424.91c-0.07,0-0.15-0.01-0.23-0.01c0.04-0.06,0.08-0.1,0.14-0.14C118.26,424.81,118.29,424.85,118.32,424.91z"/>
		<path class="st4" d="M117.71,424.88c0.11,0,0.25,0.01,0.38,0.01c-0.34,0.31-0.65,0.66-0.96,1.01c-0.87,0.99-1.7,2.04-2.45,3.14
			c-4.89,7.32-3.65,16.02-3.69,24.33c0,0.15-0.03,0.34-0.03,0.52c-0.18,0.1-0.51,0.46-0.59,0.55c-0.9,0.76-1.8,1.52-2.7,2.28
			c-2.1,1.8-4.21,3.59-6.31,5.38c-0.28,0.24-0.58,0.46-0.85,0.72c-0.01,0.01-0.01,0.01-0.03,0.01c-0.07,0.04-0.17,0.08-0.3,0.17
			c-2.2,1.28-4.37,2.55-6.66,3.65c-4.34,2.07-8.94,3.62-13.65,4.63c-8.92,1.93-18.76,1.72-27.13-2.21
			c-15.52-7.27-23.57-25.58-25.96-41.68c-0.13-0.82-0.21-1.63-0.3-2.45c-0.01-0.21,0-0.65-0.03-1.03
			c15.8,0.03,31.62,0.08,47.43,0.34c8.45,0.13,16.9,0.3,25.35,0.42c5.37,0.07,10.72,0.13,16.09,0.17
			C116.12,424.87,116.92,424.87,117.71,424.88z"/>
		<path d="M111.05,453.87c0.01,0,0.03-0.01,0.04-0.03c-0.07,0.15-0.04,0.51-0.04,0.58c-0.01-0.03-0.03-0.1-0.06-0.24
			c-0.01-0.08-0.03-0.18-0.03-0.28C110.99,453.88,111.02,453.87,111.05,453.87z"/>
		<path d="M100.51,462.83c0.25-0.11-0.13,0.18-0.15,0.15c0.01-0.03,0.06-0.06,0.13-0.14C100.5,462.84,100.5,462.84,100.51,462.83z"
			/>
		<path d="M28.76,420.4c0,1.58-0.97,2.73-2.31,3.23c-0.03-0.14-0.06-0.27-0.1-0.35c-0.03-0.04-0.06-0.07-0.07-0.11
			c0.04-0.04,0.06-0.07,0.03-0.08c0.17,0.07-0.7-1.01-0.03,0.08c-0.17,0.23-0.9,0.75-1.04,0.76c-3.97,0-4.47-5.39-1.49-6.75
			c0.01,0,0.03,0,0.04-0.01c0.46-0.14,0.96-0.24,1.45-0.28c0.14,0,0.28,0,0.42,0C27.36,416.99,28.76,418.77,28.76,420.4z"/>
		<path d="M26.45,423.63c0.01,0.1,0.01,0.2,0.01,0.3c-0.41,0-0.82,0-1.23,0C25.66,423.88,26.07,423.78,26.45,423.63z"/>
		<path d="M26.35,423.28c0.04,0.08,0.07,0.21,0.1,0.35c-0.38,0.15-0.79,0.25-1.21,0.3c0.14-0.01,0.87-0.54,1.04-0.76
			C26.29,423.21,26.32,423.23,26.35,423.28z"/>
		<path d="M26.31,423.08c0.03,0.01,0.01,0.04-0.03,0.08C25.6,422.07,26.48,423.15,26.31,423.08z"/>
		<path d="M25.66,416.88c-0.14,0-0.28,0-0.42,0C25.38,416.87,25.52,416.87,25.66,416.88z"/>
		<path d="M23.79,417.16c0.42-0.18,0.9-0.28,1.45-0.28C24.74,416.92,24.25,417.02,23.79,417.16z"/>
	</g>
	<g>
	</g>
</g>
<path d="M118.18,514.46c-2.96,3.09-5.77,6.3-8.41,9.67c-2.51,3.2-5.06,6.47-6.94,10.1c-3.61,6.99-4.37,15.76,1.34,21.89
	c3.1,3.32,8.07-1.67,4.98-4.98c-4.1-4.39-1.77-11.01,0.94-15.44c3.6-5.91,8.28-11.27,13.06-16.25
	C126.29,516.17,121.32,511.18,118.18,514.46L118.18,514.46z"/>
<path d="M136.72,545.99c0.29,0.25,0.55,0.53,0.79,0.83c-0.18-0.24-0.37-0.48-0.55-0.71c0.33,0.43,0.59,0.89,0.8,1.39
	c-0.12-0.28-0.24-0.56-0.35-0.84c0.22,0.54,0.37,1.09,0.46,1.66c-0.04-0.31-0.08-0.62-0.13-0.94c0.08,0.61,0.09,1.23,0.01,1.84
	c0.04-0.31,0.08-0.62,0.13-0.94c-0.08,0.57-0.23,1.12-0.45,1.66c0.12-0.28,0.24-0.56,0.35-0.84c-0.17,0.39-0.38,0.75-0.62,1.1
	c-0.5,0.7-0.58,1.91-0.35,2.71c0.22,0.82,0.86,1.7,1.62,2.1c0.82,0.43,1.81,0.65,2.71,0.36c0.92-0.3,1.55-0.83,2.1-1.62
	c0.62-0.87,1.08-1.93,1.32-2.97c0.25-1.06,0.37-2.2,0.24-3.28c-0.17-1.42-0.47-2.58-1.09-3.87c-0.47-0.98-1.19-1.9-2-2.62
	c-0.71-0.62-1.53-1.03-2.49-1.03c-0.86,0-1.9,0.38-2.49,1.03c-0.62,0.67-1.07,1.55-1.03,2.49
	C135.73,544.39,136.02,545.37,136.72,545.99L136.72,545.99z"/>
<path d="M81.39,413.48c5.99-0.1,11.98-0.03,17.97,0.2c1.84,0.07,3.6-1.67,3.52-3.52c-0.09-1.97-1.55-3.45-3.52-3.52
	c-5.99-0.23-11.98-0.29-17.97-0.2c-1.84,0.03-3.61,1.6-3.52,3.52C77.95,411.84,79.41,413.51,81.39,413.48L81.39,413.48z"/>
<path d="M216.07,409.59c10.2-0.09,20.39-1.61,30.17-4.51c4.33-1.29,2.49-8.09-1.87-6.79c-9.21,2.74-18.68,4.17-28.29,4.26
	C211.54,402.59,211.53,409.63,216.07,409.59L216.07,409.59z"/>
<g id="XMLID_00000127011364587590756340000011177247269471895481_">
	<g>
		<path d="M326.16,423.16c0.23,3.14-1.49,6.73-2.65,9.59c-1,2.45-2.08,4.82-3.44,7.1c-2.66,4.51-5.92,8.68-9.25,12.69
			c-5.96,7.13-12.48,13.79-19.26,20.14c-0.8,0.76-1.62,1.54-2.45,2.27c-2.08,1.83-4.79,2.9-7.32,3.99
			c-6.38,2.72-13.02,4.48-19.89,5.41c-7.2,0.99-14.59,1.42-21.8,0.38c-7.3-1.07-13.79-3.77-20.18-7.32
			c-6.03-3.34-11.73-7.37-15.93-12.9c-4.41-5.79-5.72-12.56-6.85-19.58c-0.59-3.66-1.18-7.32-1.77-10.97
			c-0.32-2.06-0.63-4.13-0.9-6.2c-0.23-1.73-0.55-3.59-0.35-5.34c0.34-3.04,2-5.85,5.03-6.86c2.21-0.73,4.93-0.25,7.24-0.18
			c21.07,0.72,42.16,0.92,63.24,1.06c16.42,0.11,32.85,0.15,49.29,0.14c-1.82,0-3.34,1.76-3.34,3.52c0,2.01,1.61,3.39,3.52,3.52
			c-1.1,0-2.2,0-3.3,0c-16.35,0.01-32.72-0.04-49.09-0.17c-19.65-0.14-39.31-0.34-58.96-0.99c-1.9-0.06-3.97-0.38-5.87-0.21
			c-0.62,0.07-0.58-0.13-0.73,0.69c-0.21,1.21,0.1,2.61,0.24,3.83c0.77,6.72,2.01,13.44,3.17,20.09c1.07,6.18,2.93,11.59,7.38,16.16
			c4.47,4.56,10.13,7.65,15.75,10.55c11.38,5.87,25.1,5.58,37.4,3.18c6.11-1.2,12.07-3.13,17.62-5.96c2.14-1.08,3.83-3,5.58-4.66
			c6.51-6.21,12.79-12.71,18.48-19.66c2.89-3.54,5.62-7.24,7.86-11.23c1.13-2.01,2.06-4.11,2.85-6.27c0.2-0.54,1.76-5.34,1.63-5.35
			c4.1,0,4.49-5.79,1.16-6.87C323.39,417.36,325.91,419.73,326.16,423.16z"/>
		<path d="M320.25,416.74c3.34,1.08,2.94,6.87-1.16,6.87c-1.92-0.13-3.52-1.51-3.52-3.52c0-1.76,1.52-3.52,3.34-3.52
			c0.06,0,0.13,0,0.18,0c0.35,0.03,0.69,0.07,1.01,0.14C320.16,416.71,320.21,416.73,320.25,416.74z"/>
		<path d="M320.11,416.71c-0.32-0.07-0.66-0.11-1.01-0.14C319.46,416.57,319.8,416.61,320.11,416.71z"/>
		<path class="st4" d="M319.09,423.61c0.13,0.01-1.44,4.82-1.63,5.35c-0.79,2.16-1.72,4.25-2.85,6.27
			c-2.24,3.99-4.97,7.69-7.86,11.23c-5.69,6.96-11.97,13.45-18.48,19.66c-1.75,1.66-3.44,3.58-5.58,4.66
			c-5.55,2.83-11.51,4.76-17.62,5.96c-12.3,2.39-26.02,2.69-37.4-3.18c-5.62-2.9-11.28-5.99-15.75-10.55
			c-4.45-4.56-6.31-9.97-7.38-16.16c-1.16-6.65-2.39-13.37-3.17-20.09c-0.14-1.23-0.45-2.62-0.24-3.83
			c0.15-0.82,0.11-0.62,0.73-0.69c1.9-0.17,3.97,0.15,5.87,0.21c19.65,0.65,39.31,0.85,58.96,0.99c16.37,0.13,32.74,0.18,49.09,0.17
			C316.9,423.61,317.99,423.61,319.09,423.61z"/>
	</g>
	<g>
	</g>
</g>
<g>
	<path class="st0" d="M463.28,661.65c-0.46,0.17-0.92,0.35-1.37,0.54c0.47,0.22,0.95,0.43,1.43,0.63
		C463.25,662.4,463.24,662.02,463.28,661.65z"/>
	<path d="M463.28,661.65c-0.04,0.37-0.03,0.76,0.06,1.17c-0.48-0.2-0.96-0.41-1.43-0.63C462.36,662,462.82,661.82,463.28,661.65z"/>
	<path d="M414.61,715.39c1.42,1.27,3.58,1.4,4.98,0c1.29-1.29,1.42-3.71,0-4.98c-0.17-0.14-0.33-0.3-0.48-0.46
		c-0.03-0.05-0.07-0.1-0.12-0.18c-0.12-0.24-0.17-0.32-0.16-0.29c-0.04-0.11-0.08-0.22-0.11-0.33c-0.03-0.1-0.19-0.8-0.21-0.82
		c-0.06-0.45-0.07-0.9-0.07-1.35c0-1.83,0.29-3.66,0.61-5.46c0.8-4.54,2.05-8.99,3.7-13.3c0.68-1.78-0.75-3.86-2.46-4.33
		c-1.98-0.54-3.65,0.68-4.33,2.46c-1.87,4.9-3.23,9.99-4,15.18C411.26,706.24,410.67,711.86,414.61,715.39z"/>
</g>
<path d="M139.58,702.71c-7.08,4.85-12.29,12.1-14.49,20.42c-2.01,7.6-2.16,18.2,4.5,23.67c1.47,1.21,3.54,1.44,4.98,0
	c1.24-1.24,1.48-3.77,0-4.98c-4.83-3.98-4.07-11.95-2.54-17.34c1.78-6.29,5.71-11.98,11.12-15.69c1.57-1.07,2.27-3.09,1.26-4.82
	C143.49,702.42,141.16,701.63,139.58,702.71L139.58,702.71z"/>
<path d="M163.98,712.73c-8.49,16.33-5.94,37,6.21,50.81c1.26,1.43,3.7,1.28,4.98,0c1.42-1.42,1.26-3.55,0-4.98
	c-9.98-11.35-12.07-28.89-5.11-42.28C172.15,712.26,166.08,708.7,163.98,712.73L163.98,712.73z"/>
<path d="M190.87,710.09c-1.37,13.8-1.61,28.49,7.71,39.77c1.21,1.47,3.72,1.26,4.98,0c1.45-1.45,1.22-3.51,0-4.98
	c-7.93-9.59-6.8-23.26-5.65-34.79c0.19-1.9-1.75-3.52-3.52-3.52C192.33,706.57,191.06,708.19,190.87,710.09L190.87,710.09z"/>
<path d="M223.5,714.79c8.32,9.96,10.87,24.03,7.03,36.35c-1.35,4.34,5.44,6.19,6.79,1.87c4.63-14.84,1.08-31.33-8.84-43.2
	c-1.22-1.46-3.72-1.26-4.98,0C222.06,711.25,222.28,713.32,223.5,714.79L223.5,714.79z"/>
<path d="M256.28,702.44c6.4,2.33,12.47,5.8,17.69,10.2c4.16,3.51,10.52,9.13,9.25,15.22c-0.39,1.86,0.54,3.81,2.46,4.33
	c1.75,0.48,3.94-0.59,4.33-2.46c1.81-8.71-4.13-16.04-10.29-21.41c-6.36-5.55-13.64-9.78-21.57-12.67
	c-1.79-0.65-3.86,0.73-4.33,2.46C253.28,700.07,254.48,701.79,256.28,702.44L256.28,702.44z"/>
<path d="M291.42,685.4c6.96,0.54,14.15,2.85,19.75,7.19c5.62,4.35,10.7,11.99,8.16,19.3c-0.62,1.8,0.71,3.85,2.46,4.33
	c1.94,0.53,3.71-0.66,4.33-2.46c3.29-9.49-2.34-19.9-9.62-25.87c-7.12-5.84-15.98-8.83-25.09-9.54c-1.9-0.15-3.52,1.72-3.52,3.52
	C287.9,683.91,289.52,685.25,291.42,685.4L291.42,685.4z"/>
<g>
	<g id="XMLID_00000090994503663885123720000012367365176689970340_">
		<g>
			<path d="M304.02,610.02c3.48-10.28-2.63-20.92-10.4-27.97c-0.56-0.23-1.14-0.46-1.7-0.69c-1.32,3.3-3.72,6.09-6.38,8.58
				c-3.55,3.32-7.48,6.28-11.59,8.85c-10.72,6.69-22.75,10.92-34.96,14.23c-5,1.37-10.03,2.56-15.02,3.72
				c-9.97,2.31-20.13,4.21-30.37,4.63c-3.8,0.14-7.73,0.03-11.55-0.61c4.66,4.31,9.97,7.85,15.42,11.07
				c4.13,2.45,8.35,4.97,12.72,7.07c1.68,0.8,3.38,1.55,5.11,2.2c10.59,3.99,21.86,3.16,33.34,1.32c5.3-0.85,10.54-2.11,15.59-3.89
				c9.25-3.24,18.3-7.61,26.45-13.21c4.55-3.11,8.92-6.87,11.71-11.72C303.08,612.41,303.61,611.22,304.02,610.02z M311.06,596.2
				c2.03,7.7,0.9,15.89-3.56,22.54c-3.7,5.52-8.89,9.79-14.38,13.42c-6,3.97-12.4,7.28-19.03,10.06
				c-15.4,6.44-32.68,9.85-49.29,8.48c-3.18-0.27-6.32-0.93-9.32-2.01c-8.76-3.18-17.18-7.94-25.16-12.97
				c-5.87-3.7-11.58-7.92-16.33-13.03c-2.48-2.69-4.59-5.68-6.8-8.59c-2.08-2.77,2.06-6.86,4.82-4.82
				c7.31,5.39,16.66,5.48,25.35,4.8c9.48-0.73,18.8-2.69,28.03-4.92c8.06-1.94,16.1-4.01,23.95-6.72c10.03-3.45,19.69-8,28.09-14.71
				c0.79-0.63,1.55-1.31,2.28-2c2.54-2.35,6.09-5.31,6.27-9.16c0.1-2.17,2.51-4.62,4.92-3.16c1.52,0.65,2.97,1.27,4.49,1.92
				c0.52,0.1,1.01,0.27,1.48,0.51c0,0,0,0,0.01,0c0.06,0.03,0.13,0.06,0.18,0.1c0.35,0.15,0.69,0.37,0.99,0.62
				C304.01,581.79,309.02,588.44,311.06,596.2z"/>
			<path class="st5" d="M293.63,582.04c7.76,7.06,13.87,17.69,10.4,27.97c-2.06-4.82-10.66-6.72-21.45-7.9
				c-16.18-1.77-28.12,9.87-28.12,9.87c-5.7-0.49-10.82,0.1-15.35,1.41l-0.11-0.39c12.21-3.31,24.24-7.54,34.96-14.23
				c4.11-2.56,8.04-5.52,11.59-8.85c2.66-2.49,5.06-5.28,6.38-8.58C292.48,581.58,293.06,581.82,293.63,582.04z"/>
			<path class="st6" d="M304.02,610.02c-0.41,1.2-0.94,2.39-1.62,3.58c-2.79,4.85-7.16,8.61-11.71,11.72
				c-8.16,5.61-17.2,9.97-26.45,13.21c-5.06,1.77-10.3,3.04-15.59,3.89c-11.48,1.83-22.75,2.66-33.34-1.32
				c-1.73-0.65-3.44-1.39-5.11-2.2c2.96-5.8,11.99-20.61,28.9-25.5c4.54-1.31,9.65-1.9,15.35-1.41c0,0,11.93-11.65,28.12-9.87
				C293.36,603.3,301.96,605.2,304.02,610.02z"/>
			<path class="st5" d="M238.99,613l0.11,0.39c-16.92,4.89-25.95,19.69-28.9,25.5c-4.37-2.1-8.59-4.62-12.72-7.07
				c-5.45-3.23-10.76-6.76-15.42-11.07c3.82,0.63,7.75,0.75,11.55,0.61c10.24-0.42,20.4-2.32,30.37-4.63
				C228.96,615.57,233.99,614.37,238.99,613z"/>
		</g>
		<g>
		</g>
	</g>
</g>
<g id="XMLID_00000141430307965800125740000009611274083973372824_">
	<g>
		<path d="M304.09,368.23c0.08,2.72-0.07,6.39-1.34,8.04c-0.41,0.54-1.44,0.49-1.44,0.49c-10.69,0-21.35,1.01-31.99,2.13
			c-16.52,1.73-33.16,3.72-48.85,9.14c-7.06,2.44-14.03,5.65-19.41,10.8c-0.32,0.32-0.77,0.49-1.24,0.46h-0.2
			c-0.86-0.04-1.59-0.68-1.76-1.52c-0.17-0.83-0.34-1.66-0.49-2.49c-1.42-7.13-2.77-14.28-4.06-21.44c-0.35-1.9,0.46-3.82,2.04-4.92
			l1.25-0.86c0.03-0.01,0.07-0.04,0.1-0.06c10.35-5.28,21.85-7.87,33.31-9.76c12.4-2.04,24.99-3.34,37.54-2.61
			c11.48,0.66,22.93,3.04,33.35,7.82C302.8,364.33,304.02,366.16,304.09,368.23z"/>
	</g>
	<g>
		<path class="st7" d="M196.62,368.07c0.03-0.01,0.07-0.04,0.1-0.06c10.35-5.28,21.85-7.87,33.31-9.76
			c12.4-2.04,24.99-3.34,37.54-2.61c11.48,0.66,22.93,3.04,33.35,7.82c1.87,0.86,3.1,2.69,3.17,4.76c0.08,2.72-0.07,6.39-1.34,8.04
			c-0.41,0.54-1.44,0.49-1.44,0.49c-10.69,0-21.35,1.01-31.99,2.13c-16.52,1.73-33.16,3.72-48.85,9.14
			c-7.06,2.44-14.03,5.65-19.41,10.8c-0.32,0.32-0.77,0.49-1.24,0.46h-0.2c-0.86-0.04-1.59-0.68-1.76-1.52
			c-0.17-0.83-0.34-1.66-0.49-2.49c-1.42-7.13-2.77-14.28-4.06-21.44c-0.35-1.9,0.46-3.82,2.04-4.92L196.62,368.07z"/>
	</g>
</g>
<g id="XMLID_00000083080293356107020700000000852658623184582826_">
	<g>
		<path d="M103.27,372.62c2.41,2.7,2.82,6.76,2.37,10.41c-0.63,5.18-2.75,10.2-6.03,14.27c-1.06,1.3-2.96,1.51-4.27,0.46
			c-0.31-0.24-0.63-0.48-0.94-0.72c-11.16-8-24.35-12.76-37.79-15.54c-12.3-2.55-24.85-3.51-37.37-4.34
			c-1.92-0.11-3.25-1.97-2.76-3.83c0.18-0.7,0.38-1.3,0.58-1.56c0.62-0.85,1.54-1.39,2.45-1.89c8.27-4.47,17.79-5.85,27.13-6.73
			c9.93-0.96,19.97-1.45,29.86-0.21c8.86,1.13,22.97,7.65,25.85,9.01C102.69,372.12,103,372.33,103.27,372.62z"/>
	</g>
	<g>
		<path class="st7" d="M99.61,397.3c3.28-4.07,5.39-9.09,6.03-14.27c0.45-3.65,0.04-7.7-2.37-10.41c-0.27-0.3-0.58-0.51-0.93-0.66
			c-2.87-1.37-16.99-7.89-25.85-9.01c-9.89-1.24-19.93-0.75-29.86,0.21c-9.34,0.89-18.86,2.27-27.13,6.73
			c-0.92,0.49-1.83,1.04-2.45,1.89c-0.2,0.27-0.39,0.86-0.58,1.56c-0.49,1.86,0.85,3.72,2.76,3.83c12.52,0.83,25.07,1.79,37.37,4.34
			c13.44,2.77,26.64,7.54,37.79,15.54c0.31,0.24,0.63,0.48,0.94,0.72C96.65,398.81,98.55,398.6,99.61,397.3z"/>
	</g>
</g>
<path d="M189,174.27c-19.8,8.02-35.97,24.47-42.44,44.99c-6.37,20.21-1.61,42.81,11.77,59.13c3.69,4.5,8.12,8.43,13.01,11.59
	c5.64,3.63,12.92,6.79,19.6,4.15c1.77-0.7,3-2.36,2.46-4.33c-0.46-1.68-2.55-3.16-4.33-2.46c-4.96,1.96-10.03-0.77-14.17-3.44
	c-3.77-2.43-7.14-5.42-10.12-8.77c-6.04-6.79-10.22-15.16-12.39-23.96c-4.52-18.33,0.91-37.5,13.13-51.69
	c6.87-7.98,15.57-14.46,25.35-18.42c1.76-0.71,3.01-2.35,2.46-4.33C192.87,175.06,190.77,173.55,189,174.27L189,174.27z"/>
<g>
	<g>
		<path d="M242.81,447.94c-4.32,0-7.83-3.5-7.83-7.82c0-3.48,2.28-6.43,5.42-7.45c-2.74-2.52-6.38-4.06-10.39-4.06
			c-8.5,0-15.39,6.88-15.39,15.38c0,8.5,6.89,15.38,15.39,15.38c7.22,0,13.28-4.99,14.92-11.72
			C244.26,447.83,243.55,447.94,242.81,447.94z"/>
	</g>
	<g>
		<path class="st7" d="M242.81,447.94c-4.32,0-7.83-3.5-7.83-7.82c0-3.48,2.28-6.43,5.42-7.45c-2.74-2.52-6.38-4.06-10.39-4.06
			c-8.5,0-15.39,6.88-15.39,15.38c0,8.5,6.89,15.38,15.39,15.38c7.22,0,13.28-4.99,14.92-11.72
			C244.26,447.83,243.55,447.94,242.81,447.94z"/>
	</g>
</g>
<g>
	<g>
		<path d="M100.55,447.94c-4.32,0-7.83-3.5-7.83-7.82c0-3.48,2.27-6.43,5.42-7.44c-2.74-2.52-6.38-4.06-10.39-4.06
			c-8.5,0-15.38,6.88-15.38,15.38c0,8.48,6.88,15.38,15.38,15.38c7.22,0,13.27-5,14.92-11.72
			C101.99,447.83,101.28,447.94,100.55,447.94z"/>
	</g>
	<g>
		<path class="st7" d="M100.55,447.94c-4.32,0-7.83-3.5-7.83-7.82c0-3.48,2.27-6.43,5.42-7.44c-2.74-2.52-6.38-4.06-10.39-4.06
			c-8.5,0-15.38,6.88-15.38,15.38c0,8.48,6.88,15.38,15.38,15.38c7.22,0,13.27-5,14.92-11.72
			C101.99,447.83,101.28,447.94,100.55,447.94z"/>
	</g>
</g>
</svg>
