<?xml version="1.0" encoding="utf-8"?>
<!-- Generator: Adobe Illustrator 26.0.0, SVG Export Plug-In . SVG Version: 6.00 Build 0)  -->
<svg version="1.1" id="Layer_3" xmlns="http://www.w3.org/2000/svg" xmlns:xlink="http://www.w3.org/1999/xlink" x="0px" y="0px"
	 viewBox="0 0 612 792" style="enable-background:new 0 0 612 792;" xml:space="preserve">
<style type="text/css">
	.st0{fill:#FFFFFF;stroke:#FFFFFF;stroke-width:9;stroke-miterlimit:10;}
	.st1{fill:#333333;}
	.st2{fill:#5C606F;}
	.st3{fill:#F5F6E8;}
	.st4{fill:#5481B8;}
	.st5{fill:#FFFFFF;}
	.st6{fill:#725F55;}
	.st7{fill:#E59972;}
</style>
<g>
	<path class="st0" d="M581.3,219.4c-5.3,2.9-11.6,2.5-17.2,0.9c-5.8-1.6-11.8-4.1-16.7-7.7c-9.5-6.9-11.8-19.6-11-30.7
		c0.5-7.1,2.3-14,3.9-20.9c1.7-7.1,3.2-14.1,3.8-21.4c1.3-13.8-0.1-28.1-5.4-41c-5.3-13-13.9-24.4-25.7-32c-1.3-0.8-2.5-0.7-3.5,0
		c-0.5-4.3-1.4-7.8-2.2-10.5c0.8-0.5,1.4-1.2,1.7-2.1c1-2.6,0.1-5.3-1.1-7.7c-1.1-2.2-2.3-4.3-3.5-6.3c-2.4-3.9-5-7.7-7.9-11.2
		c-5.8-7-13-13.2-21.4-17c-9.6-4.4-20.1-6-30.6-6.5c-10-0.5-20.1-0.1-30,1.2C395,9,375.5,15,359.3,26.5
		c-14.6,10.3-26.5,24.7-32.7,41.6c-3.3,9-5.1,19-3.9,28.6c0.5,4.1,1.5,8.3,3.2,12c-0.7-0.2-1.5-0.1-2.4,0.4
		c-5.1,2.8-10.4,5.8-14.3,10.3c-3.1,3.5-4.9,7.6-6,11.9c-16.3-3.6-33.1-4.7-49.7-3.5c-27.5,2-54.4,9.9-79.2,22
		c-7.7,3.8-15.3,8.1-22.3,13.2c-2.5-6-0.9-13.1,2.6-18.5c4.8-7.3,12.7-11.9,20.2-16c2.3-0.3,4.5-0.3,6.8,0.1
		c1.9,0.3,3.8-0.5,4.3-2.5c0.5-1.7-0.6-4-2.5-4.3c-3.3-0.6-6.6-0.5-9.8-0.1c-0.4,0-0.9,0-1.3,0.2c-2.9,0.5-5.8,1.3-8.6,2.2
		c-6,2-11.8,4.3-17.5,6.9c-10.7,5-20.9,11.8-28.6,20.9c-4.2,5.1-7.5,10.6-9.9,16.7c-0.7,1.8,0.7,3.8,2.4,4.3
		c-2.5,6.7-4,14.8-0.4,20.6c-13-10.2-31.1-13.5-46.6-7.2c-8.4,3.4-14.9,9.2-20.3,16.4c-5.1,6.8-9.3,14.5-12.3,22.5
		c-3.5,9.3-4.9,19.6-2.2,29.3c1.2,4.4,8,2.5,6.8-1.9c-4.2-15,3.2-30.8,11.4-43.1c4.1-6.2,9.2-11.7,15.8-15.2
		c6.4-3.4,13.8-4.6,21.1-4c7.8,0.6,15.5,3.6,21.6,8.5c0.4,0.3,0.8,0.5,1.2,0.7c-1.1,0.8-2.2,1.7-3.1,2.5c-1-0.4-2.2-0.3-3,0.3
		c-5,3.5-9.4,7.8-13.7,12c-4.3,4.2-8,9.1-11.8,13.8c-10.7,13.3-20.8,27-29.6,41.6C36.7,283.9,29.3,299.1,24,315
		c-5.8,17.3-8.6,35.3-9.6,53.4c-0.6,10.7-0.6,21.4-0.5,32.1c0.1,10.4-0.4,21,3.9,30.7c0.5,1.1,1.7,1.7,2.9,1.7
		c0.5,2.6,1.2,5.2,2,7.8c1.7,8.4,3.5,17.5,4.8,25.5c-1.7,0.4-3.2,2-2.6,4.2c5.5,19.6-2.6,39.6-6.7,58.6c-2.2,10.2-3.3,20.5-2.3,30.9
		c1,10.6,3.7,21,7.4,31c6.6,18.4,15.6,36.1,25.7,52.9c9.7,16.2,20.8,31.6,33.3,45.7c12.5,14.2,26.5,27.2,41.8,38.5
		c-0.8,6.7,0.2,14.3,5.5,18.7c1.5,1.2,3.5,1.4,5,0c1.2-1.2,1.5-3.8,0-5c-2.7-2.2-3.6-5.6-3.7-9.2c0.1,0,0.2,0.1,0.3,0.1
		c9.4,3.9,18.9,7.8,28.8,10.1c1.6,7.6,5,14.8,10.2,20.7c1.3,1.4,3.7,1.3,5,0c1.4-1.4,1.3-3.5,0-5c-3.6-4.1-6.2-9-7.7-14.3
		c0.1,0,0.1,0,0.2,0c9,1.3,18,0.9,26.9-0.5c1.1,2.1,2.4,4.1,3.9,6c1.2,1.5,3.7,1.3,5,0c1.5-1.5,1.2-3.5,0-5
		c-0.6-0.8-1.2-1.5-1.7-2.3c1.9-0.4,3.8-0.8,5.7-1.3c8.2-2,16.3-4.6,24.2-7.4c0.8,5.8,0.4,11.7-1.3,17.3c-1.4,4.3,5.4,6.2,6.8,1.9
		c2.2-7.1,2.5-14.5,1.2-21.7c2.3-0.9,4.7-1.8,7-2.7c10.7-4.2,21.3-8.5,32-12.8c3.4,3.3,6.6,7.6,5.7,12c-0.4,1.9,0.5,3.8,2.5,4.3
		c1.7,0.5,3.9-0.6,4.3-2.5c1.3-6.4-1.5-12-5.6-16.7c6.8-2.8,13.7-5.5,20.5-8.3c4.2-1.7,8.3-3.5,12.3-5.5c2.4,3.8,3.6,8.3,2.1,12.7
		c-0.6,1.8,0.7,3.9,2.5,4.3c1.9,0.5,3.7-0.7,4.3-2.5c2.1-6.1,0.5-12.5-2.8-18c0.4-0.3,0.9-0.5,1.3-0.8l0.1-0.1
		c0.5,0,1.1-0.1,1.7-0.5c1-0.6,2-1.2,2.9-1.8c0.2,0.5,0.4,1,0.8,1.4c6.7,8.4,7.4,19,6,29.5c-7.8,4.9-16.5,8.2-25.7,9.6
		c-1.9,0.3-2.9,2.6-2.5,4.3c0.5,2,2.5,2.7,4.3,2.5c2.7-0.4,5.4-1,8-1.7c-2.4,6.3-3,13.4-1,19.9c2.4,8,8.4,13.9,15.9,17.2
		c17.4,7.7,36.7,3,53.5-4.2c8.3-3.5,16.3-7.6,24.4-11.5c7.9-3.8,15.8-7.8,23-12.7c13.1-8.9,23.3-21,29.5-35.6
		c6.7-15.8,8.5-33.6,4.5-50.3c-0.1-0.4-0.3-0.8-0.5-1.1c8.6-1.4,17.6,0.4,25.1,5c3.8,2.4,7.4-3.7,3.5-6.1
		c-12.4-7.8-28.2-8.5-41.3-2.2c-0.7,0.3-1.2,1-1.5,1.7c-5.3-3.8-9.8-8.9-13.1-14.6c-4.3-7.4-6.5-15.6-7-24
		c17.4-9.3,33.3-21.6,46.7-36c13.5-14.5,24.8-31.1,33.1-49.1c3.4-7.4,6.3-15,8.7-22.8c1.7,6.9,2.9,14,2.9,21.1
		c0,10.5-2.1,21-6.3,30.6c-4.7,11-11.9,20.7-21,28.5c-1.3,1.1-1.3,3.1-0.4,4.4c-2.2,3.1,2.4,7.3,5.5,4.4
		c24.8-22.6,48.8-49.5,52.4-84.3c0.9-8.4,0.3-16.9-1.8-25.1c-1.1-4.5-2.5-8.8-3.4-13.3c-0.8-4.3-1-8.6-0.7-13
		c0.6-9.1,3.2-17.9,5.5-26.7c2.2-8.2,4.1-16.5,5.3-24.9c2.8-18.8,2.3-38.2-5.8-55.8c-0.3-0.6-0.8-1.1-1.4-1.4
		c2.7-20.3,2.6-40.9-0.7-61.2c-3-18.6-8.9-36.8-17.4-53.6c0.9,0.3,1.7,0.6,2.4,0.9c-0.1,0.3-0.1,0.6-0.1,1c0,2.1,1.6,3.3,3.5,3.5
		c16.7,1.8,33.4-6,43.4-19.4c0.7-0.9,0.6-2.2,0.1-3.3C587.9,221.9,584.8,217.5,581.3,219.4z"/>
	<path class="st0" d="M519.4,55c4.6-8.4,15.3-12.7,24.5-9.7c9,3,15,13.4,13.3,22.7c-0.3,1.9,0.5,3.8,2.5,4.3c1.7,0.5,4-0.6,4.3-2.5
		c1.8-10-2.1-20.6-10.1-26.9c-8.3-6.5-19.2-7.2-28.6-2.8c-5,2.4-9.3,6.4-12,11.2C511.1,55.5,517.2,59,519.4,55z"/>
</g>
<g>
	<path class="st1" d="M110.4,172.8c-1.7-0.5-3.1-2.6-2.4-4.3c2.3-6.1,5.7-11.7,9.9-16.7c7.6-9.1,17.8-15.9,28.6-20.9
		c5.7-2.6,11.6-4.9,17.5-6.9c2.8-0.9,5.7-1.7,8.6-2.2c0.5-0.2,0.9-0.2,1.3-0.2c3.2-0.4,6.5-0.5,9.8,0.1c1.9,0.3,2.9,2.6,2.5,4.3
		c-0.5,2-2.5,2.8-4.3,2.5c-2.3-0.4-4.5-0.4-6.8-0.1c-7.5,4.1-15.4,8.7-20.2,16c-4.2,6.4-5.6,15.2-0.9,21.7c1.1,1.5,0.3,3.9-1.3,4.8
		l-0.1,0c-1.7,1-3.6,0.2-4.7-1.3c-5.9-8.2-4.6-19.6,0.3-27.9c1.3-2.2,2.9-4.2,4.6-6c-16.2,7.1-31.5,17.7-38,34.7
		C114,172.2,112.4,173.4,110.4,172.8L110.4,172.8z"/>
	<path class="st2" d="M152.5,170.9c1.2,9.1-1.5,18.5-1.5,18.5s-6.4,16.6-31.2,10.4c-14.8-3.7-13.2-16.9-9.5-27h0
		c2,0.5,3.6-0.7,4.3-2.5c6.4-16.9,21.8-27.6,38-34.7c-1.7,1.8-3.3,3.8-4.6,6c-5,8.3-6.2,19.7-0.3,27.9
		C148.9,171.1,150.8,171.9,152.5,170.9z"/>
	<path class="st1" d="M507.9,69.2c0.4-2.2,2.7-4.1,5.1-2.5c11.8,7.7,20.5,19.1,25.7,32c5.2,12.9,6.6,27.2,5.4,41
		c-0.7,7.2-2.2,14.3-3.8,21.4c-1.6,6.9-3.4,13.8-3.9,20.9c-0.8,11.1,1.5,23.7,11,30.7c4.9,3.6,10.8,6.1,16.7,7.7
		c5.7,1.5,11.9,2,17.2-0.9c3.5-1.9,6.6,2.5,4.7,5.1c-0.3-0.6-0.8-1.2-1.4-1.5c-1.8-1.1-3.7-0.3-4.8,1.3c-1.1,1.4-2.2,2.8-3.5,4
		c-4.5,0.6-9.1,0.2-13.6-1c-7-1.8-14.1-4.9-19.9-9.3c-10.3-7.9-14.1-21-13.7-33.6c0.5-14.6,6-28.3,7.6-42.7
		c1.6-13.9,0.4-28.3-5-41.3c-4.6-11.1-12.3-21-22.4-27.6C508.1,71.9,507.7,70.5,507.9,69.2z"/>
	<path class="st1" d="M539.2,242.7c0.5-1.4,1.8-2.7,3.4-2.6c12.3,1.3,25.1-3.1,33.8-11.9c2.9-0.4,5.8-1.3,8.5-2.8
		c0.5-0.3,0.9-0.6,1.2-1c0.5,1,0.6,2.3-0.1,3.3c-10,13.4-26.7,21.2-43.4,19.4c-1.9-0.2-3.5-1.5-3.5-3.5
		C539,243.3,539.1,243,539.2,242.7z"/>
	<path class="st1" d="M586,224.5c-0.3,0.4-0.7,0.7-1.2,1c-2.7,1.5-5.6,2.4-8.5,2.8c1.3-1.3,2.4-2.6,3.5-4c1.1-1.5,3-2.3,4.8-1.3
		C585.2,223.3,585.7,223.9,586,224.5z"/>
	<path class="st2" d="M562.8,227.3c4.5,1.1,9.1,1.6,13.6,1c-8.7,8.8-21.5,13.2-33.8,11.9c-1.6-0.2-2.9,1.1-3.4,2.6
		c-21.7-8.1-145.2-58-117.1-134.2c25.5-69.1,70.9-48.5,85.8-39.3c-0.2,1.3,0.2,2.7,1.5,3.6c10.1,6.6,17.8,16.5,22.4,27.6
		c5.4,13,6.6,27.4,5,41.3c-1.6,14.4-7.2,28.1-7.6,42.7c-0.4,12.6,3.4,25.7,13.7,33.6C548.6,222.4,555.8,225.5,562.8,227.3z"/>
	<path class="st1" d="M491,190.3l0.1-0.1c1.4-1.4,3.5-1.2,5,0c11.1,9.3,20.8,20.2,29,32.1c15,21.8,24.9,47,29.1,73.1
		c4.8,29.6,2.8,60-4.8,89c-0.2,0.7-0.6,1.3-1,1.7c3.1-25.3,4-42.6,4-42.6l-3.2-0.2c0.2-2.9,0.4-5.9,0.5-8.8
		c0.9-27.3-3.7-54.9-14.6-80c-10-22.8-24.8-43.4-43.9-59.4C489.7,193.9,489.9,191.6,491,190.3z"/>
	<path class="st1" d="M549.3,343.3l3.2,0.2c0,0-1,17.3-4,42.6c-2.2,2-6.7,0.1-5.8-3.6C546,369.7,548.3,356.5,549.3,343.3z"/>
	<path class="st2" d="M535.1,254.5c11,25.1,15.5,52.7,14.6,80c-0.1,2.9-0.3,5.9-0.5,8.8c-1,13.3-3.3,26.4-6.6,39.3
		c-1,3.6,3.5,5.5,5.8,3.6c-3.8,31.4-10.9,75-23.4,113.1c-1.8-1.2-4.6-0.8-5.3,1.9c-4.6,18.7-12.4,36.4-22.8,52.6
		c-10.4,16.2-23.5,30.6-38.5,42.6c-7.2,5.8-14.9,10.9-22.9,15.4c0.1-1.1,0.1-2.3,0.3-3.4c0.8-7.5,2.9-15,5.7-22
		c0.6-1.5-0.4-3.2-1.7-4c2.6-7.9,5.1-17.4,6.6-23c22.2-12.7,42.6-29.6,50.6-54.7c4.4-13.7,4.7-30.5-5.4-41.8
		c-4.9-5.6-11.9-9-18.9-11.1c-7.8-2.3-16.2-3.2-24.4-2.4c-16.6,1.8-32.3,10.9-40.4,25.8c-0.2,0.4-0.3,0.8-0.4,1.1
		c-4,1.6-8.4-0.1-12.4-3.1c0.4-2.1-1.3-4.8-4.1-4.4c-10.1-14.7-18.4-32.6-11.7-50.4c1.7-4.4,4.4-8.3,7.9-11.4c0.4-0.3,0.6-0.7,0.8-1
		c0.3,0.3,0.7,0.5,1,0.8c1.6,1.1,3.9,0.3,4.8-1.3c1-1.7,0.3-3.7-1.3-4.8c-5.4-3.7-8.1-10.5-8.5-16.9c-0.5-8.1,2.3-16.1,5.6-23.4
		c6.7-14.8,15.6-28.7,21.3-44c3.1-8.5,5.1-17.5,5-26.6c0-1.7-1-2.7-2.2-3.2c-0.9-0.6-2.1-0.7-3.4,0.1c-2.8,1.8-5.6,3.5-8.5,5.3
		c-0.8,0.5-1.5,1-2.3,1.4c0.1-0.3,0.2-0.6,0.2-0.8c0.4-1.7,0.9-3.4,1.3-5.1c0.8-3.2,1.6-6.3,2.4-9.5c0.8-3.3,1.7-6.5,2.5-9.8
		c0.8-3.2,0.7-7.2-3.2-8.1c-3.3-0.7-6,2-8.4,3.8c-2.7,2-5.4,4.1-8.1,6.1c-4.1,3-8.1,6.1-12.2,9.1c0.8-8.4,1.6-16.8,2.3-25.2
		c0.2-2-1.7-3.4-3.5-3.5c-5.6-0.5-8.7,6-11.3,9.9c-1.5,2.3-3,4.5-4.5,6.7c-1-5.5-2.5-11-4.5-16.3c-0.2-0.5-0.5-0.9-0.8-1.3l0.1-0.2
		c1.1-1.5,0.3-3.9-1.3-4.8c-1.8-1-3.7-0.3-4.8,1.3c-3.8,5.2-8,10-12.7,14.4c-1.1-6.2-2.2-12.4-3.3-18.7c-0.4-2.3-3.3-3.1-5.2-2.1
		c-3.9,2.1-7.5,4.6-10.8,7.5c0.2-2.3,0.5-4.6,0.8-6.8c0.4-2.8-2.4-5.8-5.2-4c-2.9,1.9-5.5,4.1-7.9,6.6c-0.6-2.3-1.3-4.6-1.9-6.9
		c-1.1-3.9-1.9-9.2-6.9-9.5c-4.3-0.2-7.9,3.7-11,6.1c-1.8,1.4-3.6,2.8-5.4,4.2c-0.1-5.1,0.3-10.2,1.2-15.2c0.6-3.5-3.1-5.8-5.9-3.4
		c-6,5.2-11.9,10.4-17.9,15.6c-1.9-8.5-3.8-17-5.7-25.4c-0.5-2.4-4.3-3.6-5.9-1.5c-6.4,8.3-13.4,16.1-20.9,23.4
		c-1.1-3.7-2.4-7.4-3.9-11c-1-2.4-1.8-5.2-3.8-6.9c-2.8-2.4-6-1.3-8.6,0.7c-8.1,6.4-15.7,13.4-22.9,20.7c-2.2-2.9-4.2-6.1-6-9.3
		c-1-1.9-3-2.1-4.5-1.3c-1.2-3.1-3-6.5-4.5-6.2c-2.7,0.5-10.1,14.7-14.9,19.5c-4.8,4.8-4.9,0-4.9,0l-2.5-8.3c1-0.6,1.7-1.7,1.6-2.9
		c-0.3-3.8-0.6-7.5-0.9-11.3c-0.2-2.1-0.5-3.9-2.6-4.9c-1.9-0.9-4-0.2-5.7,0.8c-2.7,1.7-5,4.1-7.1,6.5c0.4-2.2,0.7-4.4,1.1-6.5
		c0.5-3.3-3.2-6.1-5.9-3.4c-2.7,2.7-5.5,5.4-8.3,8.2c-1.3,1.3-2.7,2.6-4,4c-0.4,0.4-0.9,0.9-1.3,1.5c-0.1-0.3-0.2-0.5-0.3-0.8
		c-0.6-1.8-1.2-3.6-1.8-5.4c-1.2-3.6-2.4-7.1-4.1-10.4c-0.4-0.7-1-1.2-1.8-1.5c8.5-6.9,22.8-16.4,34.9-24.1c0.7,2.3,3.7,3.9,5.8,1.6
		c4.7-5.1,10-9.4,15.6-13.3c4.5-3.1,9.3-5.8,14.1-8.3c11.5-5.9,23.6-10.8,36-14.6c25.2-7.7,51.7-10.8,77.9-7.6
		c14.3,1.8,28.5,5.5,41.7,11.2c-0.4,1.1-0.9,2.3-1.4,3.4c-0.7,1.7-0.6,3.9,1.3,4.8c1,0.5,2.1,1.1,3.1,1.6c0.6,0.3,1.1,0.6,1.7,0.9
		c0.1,0.1,0.2,0.1,0.4,0.2c0,0.1,0.8,0.7,1.1,0.9c4.5,3.8,9.2,7.5,14,10.9c9.6,6.8,19.8,12.7,30.5,17.6c5.4,2.5,11,4.8,16.6,6.8
		c5.3,1.8,12,3.7,17.5,2c3.3-1,6.5-2.5,9.6-3.9c5.4-2.4,10.7-5.2,15.8-8.2c5.8-3.5,11.4-7.3,16.8-11.5c1.5-1.2,3.1-2.1,3.3-4.2
		c0-0.5,0-1,0.1-1.5c0-0.8,0.1-1.7,0.1-2.5c0.3-0.8,0.3-1.6,0-2.5c1.2-1,2.7-2.4,4.6-4.5c0.1,0.1,0.1,0.2,0.3,0.4
		c5.2,5.9,10.1,12.8,9.5,21c-0.6,8.2-5.3,16.5-10.7,22.5c-3,3.4,2,8.4,5,5c5.6-6.3,10.3-14.2,12-22.6c2.3,1.3,6.9,4,10.5,7
		c-1.1,1.3-1.3,3.6,0.1,4.8C510.3,211.2,525.1,231.7,535.1,254.5z"/>
	<path class="st1" d="M525,499.2c1.2,0.7,1.9,2.1,1.5,3.8c-2.7,10.9-6.5,21.6-11.2,31.8c-8.3,18-19.6,34.6-33.1,49.1
		c-13.5,14.4-29.3,26.7-46.7,36c0.5,8.4,2.7,16.6,7,24c3.3,5.7,7.8,10.8,13.1,14.6c0.3-0.7,0.8-1.4,1.5-1.7
		c13.1-6.3,29-5.6,41.3,2.2c3.8,2.4,0.3,8.5-3.5,6.1c-7.4-4.7-16.5-6.5-25.1-5c0.2,0.3,0.4,0.7,0.5,1.1c4,16.8,2.2,34.5-4.5,50.3
		c-6.2,14.6-16.4,26.7-29.5,35.6c-7.3,4.9-15.1,8.9-23,12.7c-8.1,3.9-16.2,7.9-24.4,11.5c-16.7,7.2-36,11.9-53.5,4.2
		c-7.5-3.3-13.5-9.2-15.9-17.2c-1.9-6.5-1.3-13.6,1-19.9c-2.6,0.7-5.3,1.3-8,1.7c-1.9,0.3-3.8-0.5-4.3-2.5c-0.5-1.7,0.6-4.1,2.5-4.3
		c9.2-1.4,17.9-4.6,25.7-9.6c1.4-10.5,0.7-21.1-6-29.5c-0.4-0.4-0.6-0.9-0.8-1.4c-1,0.6-1.9,1.2-2.9,1.8c-0.6,0.3-1.2,0.5-1.7,0.5
		l-0.1,0.1c-6.2,4-12.9,6.9-19.7,9.7c-7,2.9-14.1,5.7-21.2,8.6c-12.7,5.2-25.4,10.4-38.2,15.4c-12.4,4.8-25,9.4-37.9,12.6
		c-13,3.3-26.5,5-39.9,3.1c-12.7-1.8-24.7-6.7-36.6-11.6c-0.5-0.1-0.9-0.2-1.3-0.5c-17.5-12.2-33.4-26.6-47.5-42.6
		c-12.5-14.2-23.6-29.6-33.3-45.7c-10.1-16.7-19.1-34.5-25.7-52.9c-3.6-10-6.3-20.4-7.4-31c-1-10.4,0.1-20.7,2.3-30.9
		c4.1-19,12.2-39,6.7-58.6c-0.6-2.2,0.8-3.8,2.6-4.2c1.7-0.4,3.6,0.2,4.2,2.4c6.2,22.3-3.3,44.4-7.4,66c-1.9,10-2.3,20.1-0.7,30.2
		c1.6,10.2,4.7,20.2,8.6,29.8c7,17.6,15.9,34.6,25.9,50.6c19.6,31.3,44.7,59.5,75.1,80.7c12.9,5.3,26.3,10.9,40.4,11.9
		c12.9,0.9,25.7-1.6,38-5c12.6-3.5,24.9-8.2,37.1-13c12.5-5,24.9-10.1,37.4-15.1c11.8-4.8,24.2-9,35-15.9c0.6-0.4,1.2-0.5,1.8-0.5
		c7.1-4.1,13.8-8.7,20.1-13.9c11.2-9.3,21.1-20.2,29.1-32.3c8.4-12.7,16.7-27.8,16.3-43.5c-0.1-4.5,6.9-4.5,7,0
		c0.3,10.1-2.8,19.9-7.1,29c-11.5,24.8-30.4,46.3-53.2,61.4l0,0c5.6,7,8.2,15.6,8.6,24.6c0.1,3.4-0.1,6.7-0.5,10.1
		c0.6,1.3,0.3,2.6-0.5,3.7c-0.9,5.3-2.2,10.6-3.4,15.7c-1.1,4.4-7.9,2.5-6.8-1.9c0.7-2.8,1.4-5.7,2.1-8.6c-2.1,1.1-4.2,2-6.3,2.9
		c0.2,0.8,0.2,1.7-0.3,2.6c-3.3,6.6-4,15.1-0.4,21.7c4,7.3,12.6,10.7,20.4,12c16.7,2.6,33.2-4.6,47.9-11.6
		c14.4-6.9,29.9-13.2,42.4-23.4c19.3-15.7,29.4-41.3,26.5-65.9l-0.2,0c-6.7-2.1-12.7-5.7-17.8-10.4c-9.3-8.5-15.4-20.3-17.4-32.6
		c-2.1-12.6-0.6-25.5,3.3-37.6l3.8,1.4c1-2.4,2.2-5.6,3.4-9.2c1.3,0.8,2.3,2.5,1.7,4c-2.8,7.1-4.9,14.5-5.7,22
		c-0.1,1.1-0.2,2.3-0.3,3.4c8-4.5,15.8-9.6,22.9-15.4c15-12,28-26.5,38.5-42.6c10.4-16.2,18.2-33.9,22.8-52.6
		C520.4,498.4,523.2,498,525,499.2z"/>
	<path class="st1" d="M507.3,56.2c-0.7,0.5-1.6,0.6-2.6,0.4c-1.7-0.5-3.1-2.6-2.5-4.3c0.6-1.7-1.4-4.2-2.2-5.7
		c-1.2-2.1-2.4-4.2-3.7-6.2c-2.6-3.9-5.5-7.6-8.8-11c-6.8-7-15-11.9-24.5-14.3c-9-2.4-18.4-2.7-27.7-2.7c-9.2,0.1-18.5,0.8-27.6,2.4
		c-17.3,3.1-34.5,9.5-48.4,20.5c-12.5,10-22.5,23.3-27.2,38.7c-2.2,7.3-3.4,15.2-2.4,22.7c0.9,6.5,3.5,13.3,9.1,17.1
		c0.1,0,0.2,0,0.3,0.1c2,0.8,4,1.6,6,2.5c0.2,0.1,0.5,0.2,0.7,0.3c0.3,0.2,0.6,0.3,0.9,0.6c6.6,5.7,13.8,10.7,21.2,15.1
		c13.3,7.9,27.5,13.9,42.3,18.5c7.6,2.4,15.2,4.3,23,6c3.9,0.8,7.7,1.6,11.6,2.3c1.9,0.3,3.9,0.7,5.8,1c0.9,0.2,1.9,0.3,2.8,0.5
		c1.4-2.3,5.2-2,6.4,0.9l0.1,0.2c0.3,0.9,0.3,1.7,0,2.5c0,0.8-0.1,1.7-0.1,2.5c0,0.5,0,1-0.1,1.5c-0.2,2.1-1.7,3-3.3,4.2
		c-5.4,4.2-10.9,8-16.8,11.5c-5.1,3-10.4,5.8-15.8,8.2c-3.1,1.4-6.4,2.9-9.6,3.9c-5.6,1.7-12.3-0.2-17.5-2c-5.6-2-11.2-4.3-16.6-6.8
		c-10.7-4.9-20.9-10.8-30.5-17.6c-4.8-3.4-9.5-7.1-14-10.9c-0.2-0.2-1.1-0.9-1.1-0.9c-0.1-0.1-0.3-0.1-0.4-0.2
		c-0.6-0.3-1.1-0.6-1.7-0.9c-1-0.5-2.1-1.1-3.1-1.6c-1.8-1-2-3.1-1.3-4.8c0.5-1.1,0.9-2.3,1.4-3.4c-13.2-5.7-27.4-9.5-41.7-11.2
		c-26.2-3.2-52.8-0.2-77.9,7.6c-12.4,3.8-24.5,8.7-36,14.6c-4.9,2.5-9.6,5.2-14.1,8.3l-0.8-1.2c-2.4,1.5-10.7,6.6-20.6,12.9
		c-0.3-1.1-0.2-2.3,0.8-3.4c9.8-10.6,22.3-18.4,35.3-24.7c24.8-12,51.7-20,79.2-22c26.6-1.9,53.5,2.1,78.1,12.4
		c1.9-6.8,2.9-13.7,3-20.8c-7.4-5.2-10.9-14-12-22.8c-1.1-9.6,0.6-19.6,3.9-28.6c6.2-16.9,18-31.3,32.7-41.6
		C375.5,15,395,9,414.6,6.6c9.9-1.3,20-1.6,30-1.2c10.5,0.5,21,2.1,30.6,6.5c8.3,3.8,15.6,9.9,21.4,17c2.9,3.5,5.5,7.3,7.9,11.2
		c1.2,2.1,2.4,4.2,3.5,6.3c1.2,2.4,2.1,5,1.1,7.7C508.7,55,508.1,55.7,507.3,56.2z M451.6,167.3c-0.9-0.2-1.9-0.4-2.8-0.5
		c-4.7-0.7-9.4-1.6-14-2.5c-33.4-6.8-66.1-19.4-92.4-41.6c-0.3-0.1-0.5-0.2-0.8-0.3c-0.5,9.6-2.5,19-6,27.9c1.3,0.7,2.7,1.4,3.8,2.4
		c4.3,3.6,8.7,7.2,13.3,10.5c8.3,6,17.1,11.2,26.3,15.8c4.3,2.1,8.7,4.1,13.2,5.9c4.8,1.9,9.9,4.1,15.2,4.6c1.8,0.2,3.8,0.3,5.5-0.4
		c1.2-0.4,2.4-0.9,3.5-1.4c3.9-1.5,7.7-3.3,11.4-5.2C436.1,178.1,444.1,173.1,451.6,167.3z"/>
	<path class="st2" d="M507.3,56.2c3.5,11,7.5,36.8-16.7,68.3c-0.2-1.4-0.8-2.7-2.3-3.6c-1.6-1.1-3.9-0.3-4.8,1.3
		c-0.7,1.2-0.6,2.5,0.1,3.6l-0.1,0.3c0,0.2-0.1,0.3-0.1,0.4c-0.2,0.7-0.4,1.4-0.7,2.1c-0.5,1.4-1,2.6-1.6,3.9
		c-1.3,2.6-2.9,5.2-4.7,7.4c-3.8,4.5-8.6,8.3-13.9,10.6c-1.8,0.7-3,2.3-2.5,4.3c0.5,1.6,2.6,3.2,4.3,2.5l0.2-0.1
		c-1.9,2.1-3.4,3.5-4.6,4.5l-0.1-0.2c-1.1-2.9-5-3.2-6.4-0.9c-0.9-0.2-1.9-0.3-2.8-0.5c-2-0.3-3.9-0.6-5.8-1
		c-3.9-0.7-7.8-1.5-11.6-2.3c-7.7-1.7-15.4-3.7-23-6c-14.7-4.6-29-10.6-42.3-18.5c-7.5-4.4-14.6-9.5-21.2-15.1
		c-0.3-0.2-0.6-0.4-0.9-0.6c-0.2-0.1-0.5-0.2-0.7-0.3c-2-0.8-4-1.7-6-2.5c-0.1,0-0.2,0-0.3-0.1c-5.6-3.8-8.3-10.5-9.1-17.1
		c-1-7.6,0.2-15.5,2.4-22.7c4.6-15.4,14.7-28.8,27.2-38.7c13.9-11.1,31.1-17.4,48.4-20.5c9.1-1.6,18.4-2.4,27.6-2.4
		c9.3-0.1,18.7,0.3,27.7,2.7c9.4,2.5,17.7,7.4,24.5,14.3c3.3,3.4,6.2,7.1,8.8,11c1.3,2,2.6,4.1,3.7,6.2c0.8,1.5,2.9,4,2.2,5.7
		c-0.7,1.8,0.7,3.9,2.5,4.3C505.6,56.8,506.5,56.6,507.3,56.2z"/>
	<path class="st1" d="M407.5,476.3c0.1-0.4,0.2-0.7,0.4-1.1c8.1-14.9,23.7-24,40.4-25.8c8.1-0.9,16.6,0,24.4,2.4
		c7,2.1,14,5.5,18.9,11.1c10,11.3,9.7,28.2,5.4,41.8c-8,25.1-28.4,42-50.6,54.7c0.8-3,1.3-4.9,1.3-4.9l-1.7-2.9
		c8.6-5.1,16.8-10.8,24-17.7c9.5-9.1,17.3-20.4,20.8-33.2c3.4-12.1,3.3-26.8-7-35.6c-5-4.2-11.6-6.5-17.9-7.8
		c-7.1-1.5-14.6-1.7-21.7-0.2c-12.6,2.6-23.9,10.2-30.1,21.7c-0.6,1.1-1.5,1.6-2.4,1.7c-0.6-1.6-2.3-2.7-3.9-2.5
		C407.4,477.5,407.3,476.9,407.5,476.3z"/>
	<path class="st3" d="M483.7,465c10.3,8.7,10.4,23.5,7,35.6c-3.6,12.8-11.3,24.1-20.8,33.2c-7.2,6.9-15.4,12.7-24,17.7
		c-5.5,3.3-11.2,6.2-16.9,9.1c-4.1,2-0.5,8.1,3.6,6.1c4.6-2.3,9.2-4.7,13.8-7.3c-1.5,5.6-4,15.1-6.6,23c-0.3-0.1-0.5-0.3-0.8-0.3
		c-2-0.5-3.6,0.7-4.3,2.5c-0.7,1.9-1.4,3.8-2.1,5.7c-3.9,12.1-5.4,25-3.3,37.6c2.1,12.3,8.2,24.1,17.4,32.6
		c5.2,4.7,11.2,8.3,17.8,10.4l0.2,0c2.9,24.6-7.2,50.2-26.5,65.9c-12.5,10.2-27.9,16.5-42.4,23.4c-14.7,7-31.2,14.3-47.9,11.6
		c-7.9-1.2-16.4-4.6-20.4-12c-3.6-6.6-2.9-15.1,0.4-21.7c0.5-0.9,0.5-1.8,0.3-2.6c2.1-0.9,4.2-1.8,6.3-2.9c-0.6,3-1.4,5.9-2.1,8.6
		c-1.1,4.4,5.7,6.3,6.8,1.9c1.3-5.2,2.6-10.4,3.4-15.7c0.8-1,1.1-2.4,0.5-3.7c0.4-3.3,0.6-6.7,0.5-10.1c-0.4-8.9-2.9-17.6-8.6-24.6
		l0,0c22.8-15.2,41.7-36.6,53.2-61.4c4.2-9.1,7.4-18.8,7.1-29c-0.1-4.5-7.2-4.5-7,0c0.4,15.7-7.9,30.8-16.3,43.5
		c-8,12.2-17.9,23-29.1,32.3c-6.3,5.2-13,9.8-20.1,13.9c-0.6,0-1.2,0.2-1.8,0.5c-10.8,6.9-23.2,11.1-35,15.9
		c-12.5,5-24.9,10.1-37.4,15.1c-12.2,4.8-24.5,9.5-37.1,13c-12.4,3.5-25.1,5.9-38,5c-14.1-1-27.5-6.6-40.4-11.9
		c-30.4-21.2-55.5-49.4-75.1-80.7c-10-16.1-19-33-25.9-50.6c-3.8-9.6-7-19.6-8.6-29.8c-1.6-10.1-1.2-20.2,0.7-30.2
		c4.1-21.7,13.7-43.8,7.4-66c-0.6-2.1-2.5-2.8-4.2-2.4c-1.8-10.6-4.2-23-6.4-33.3c0.5,0,1.1-0.2,1.5-0.4c1.8-1,2-3.1,1.3-4.8
		c-0.9-1.9-1.5-3.9-1.9-5.9c-1.3-6.3-1-13-1.1-19.2c-0.1-9.3-0.1-18.7,0.3-28c0.6-17.8,2.8-35.5,8-52.6
		c9.5-31.1,27.2-59.2,47.2-84.6c6.9-8.8,14.2-18.1,22.7-25.3c0.6-0.5,1.1-1,1.7-1.4c1,2.5,1.8,5,2.6,7.5c0.6,1.9,1.3,3.8,2,5.6
		c0.8,2,1.6,4.4,3.9,5c2.6,0.7,4.4-1.1,6-2.7c1.6-1.6,3.2-3.1,4.8-4.7c0.7-0.7,1.5-1.5,2.2-2.2c-0.5,2.8-1.1,5.7-1.1,8.6
		c0.1,2.4,3.1,4.7,5.3,3c3-2.3,4.9-5.5,7.3-8.3c1.2-1.4,2.5-2.7,3.9-4c0.3-0.3,0.5-0.5,0.8-0.8c0,0.4,0.1,0.8,0.1,1.3
		c0,0.5,0.1,0.9,0.1,1.4c0.1,1.6,0.3,3.3,0.4,4.9c0.1,1.9,1.5,3.5,3.5,3.5c0.6,0,1.3-0.2,1.9-0.6l2.5,8.3c0,0,0.1,4.8,4.9,0
		c4.8-4.8,12.3-18.9,14.9-19.5c1.5-0.3,3.3,3.1,4.5,6.2c-1.6,0.8-2.8,2.8-1.6,4.9c2.6,4.8,5.8,9.3,9.4,13.5c1.2,1.4,3.7,1.3,5,0
		c6.9-7.1,14.1-13.9,21.7-20.3c0.9-0.8,1.8-1.5,2.8-2.3c0.1-0.1,0.4-0.3,0.7-0.5c0.3,0.7,0.8,1.5,0.8,1.6c0.5,1.1,0.9,2.3,1.4,3.4
		c1.8,4.7,3.3,9.4,4.5,14.3c0.7,2.6,4,3.3,5.9,1.5c7.4-6.9,14.4-14.4,20.9-22.2c1.8,8,3.6,16.1,5.4,24.1c0.6,2.7,4,3.2,5.9,1.5
		c5.1-4.5,10.3-8.9,15.4-13.4c-0.4,4.8-0.3,9.5,0.1,14.3c0.3,3.2,3.5,4.4,6,2.5c2.9-2.3,5.9-4.6,8.8-6.9c1.5-1.1,2.9-2.3,4.4-3.4
		c0.6-0.5,1.3-1,1.9-1.5c0.1-0.1,0.5-0.3,0.8-0.5c0.2,0.5,0.4,1.1,0.4,1.2c0.5,1.8,1,3.5,1.5,5.3c1,3.5,1.9,7,2.9,10.6
		c0.9,3.1,4.7,3.2,6.4,0.8c1.1-1.5,2.4-3,3.8-4.4c-0.3,2.8-0.4,5.7-0.5,8.6s4,4.9,6,2.5c3.4-4,7.3-7.5,11.6-10.4
		c1.2,6.6,2.4,13.2,3.5,19.8c0.5,2.8,4.1,3.1,5.9,1.6c5-4.2,9.5-8.8,13.6-13.8c2.3,6.8,3.9,13.8,4.5,21c0.3,3.5,4.5,4.8,6.6,1.8
		c2.8-4.1,5.5-8.2,8.3-12.3c0.9-1.3,1.7-2.5,2.6-3.8c-0.7,8.1-1.4,16.2-2.3,24.3c-0.3,2.5,3.2,4.6,5.3,3c5.2-3.9,10.5-7.8,15.7-11.7
		c2.6-2,5.2-3.9,7.9-5.9c1.1-0.8,2.1-1.6,3.2-2.4c-0.2,0.8-0.4,1.6-0.6,2.4c-0.6,2.5-1.3,5-1.9,7.4c-0.7,2.7-1.4,5.4-2,8.1
		c-0.6,2.4-1.4,4.8-1.8,7.3c-0.3,2.1,0,4.3,1.5,5.8c1.8,1.9,4.6,1.7,6.7,0.5c2.8-1.6,5.6-3.4,8.3-5.1c-1.5,14.1-7.9,27.2-14.4,39.7
		c-3.9,7.5-8,14.9-11.4,22.7c-3.5,8.1-6.5,17-5.7,26c0.5,6.1,2.5,12.1,6.3,16.8c-0.4,0.2-0.8,0.4-1.1,0.7
		c-7.5,6.6-11.3,16.2-12.2,26c-1,10.7,2.1,21.2,6.8,30.7c2.1,4.3,4.6,8.4,7.2,12.3c-12.6,5.3-22.5,16.8-26,30
		c-4.2,15.8,2,32.7,14.4,43.1c6.4,5.3,14,8.9,22.2,10c0.7,0.3,1.5,0.4,2.3,0.3h0.1c1.9,0.2,3.5-1.7,3.5-3.5c0-1.9-1.4-3.2-3.1-3.5
		c-6.8-6.4-10.9-15.3-10.6-24.7c0.1-5.1,1.5-10.2,3.9-14.7c2.4-4.5,6-8,9.6-11.5c4.2-4,8.3-8,11.1-13.2c0.5-1,0.6-2,0.3-2.8
		c0.9-0.1,1.8-0.6,2.4-1.7c6.2-11.5,17.5-19.1,30.1-21.7c7.1-1.5,14.6-1.3,21.7,0.2C472.1,458.6,478.7,460.8,483.7,465z"/>
	<path class="st1" d="M480.6,183.3c-1.8,8.4-6.4,16.3-12,22.6c-3,3.4-8-1.6-5-5c5.4-6,10.1-14.3,10.7-22.5c0.6-8.2-4.3-15.2-9.5-21
		c-0.1-0.1-0.2-0.2-0.3-0.4l-0.2,0.1c-1.8,0.7-3.9-0.8-4.3-2.5c-0.5-2,0.7-3.6,2.5-4.3c5.4-2.2,10.2-6,13.9-10.6
		c1.9-2.2,3.5-4.8,4.7-7.4c0.6-1.3,1.1-2.5,1.6-3.9c0.2-0.7,0.5-1.4,0.7-2.1c0-0.1,0.1-0.3,0.1-0.4l0.3,0.1c0.2,0.3,0.5,0.6,0.9,0.9
		l2.6,1.6c1.1-1.4,2.2-2.7,3.3-4.1c0.4,2.7-0.9,5.8-1.9,8.2c-1.5,3.6-3.3,6.9-5.6,10c-3.4,4.5-7.5,8.1-12.1,11
		c5.9,7,11.1,15.2,10.4,24.7C481.2,180.1,480.9,181.7,480.6,183.3z"/>
	<path class="st1" d="M490.6,124.5c-1,1.3-2.1,2.7-3.3,4.1l-2.6-1.6c-0.4-0.2-0.7-0.5-0.9-0.9l-0.3-0.1l0.1-0.3
		c-0.6-1.1-0.8-2.4-0.1-3.6c0.9-1.6,3.2-2.3,4.8-1.3C489.7,121.8,490.4,123.1,490.6,124.5z"/>
	<path class="st4" d="M448.8,166.8c0.9,0.1,1.8,0.3,2.8,0.5c-7.5,5.7-15.5,10.8-23.8,15.1c-3.7,1.9-7.5,3.7-11.4,5.2
		c-1.2,0.5-2.3,0.9-3.5,1.4c-1.7,0.6-3.7,0.5-5.5,0.4c-5.2-0.5-10.3-2.7-15.2-4.6c-4.5-1.8-8.9-3.7-13.2-5.9
		c-9.2-4.5-18-9.8-26.3-15.8c-4.6-3.3-8.9-6.8-13.3-10.5c-1.1-1-2.5-1.7-3.8-2.4c3.5-8.9,5.5-18.3,6-27.9c0.3,0.1,0.5,0.2,0.8,0.3
		c26.3,22.2,59,34.8,92.4,41.6C439.5,165.3,444.1,166.1,448.8,166.8z"/>
	<path class="st1" d="M445.8,551.5l1.7,2.9c0,0-0.5,1.9-1.3,4.9c-4.5,2.6-9.2,5-13.8,7.3c-4.1,2-7.6-4.1-3.6-6.1
		C434.7,557.7,440.3,554.8,445.8,551.5z"/>
	<path class="st1" d="M438.9,582c0.3,0.1,0.5,0.2,0.8,0.3c-1.2,3.6-2.3,6.8-3.4,9.2l-3.8-1.4c0.6-1.9,1.3-3.8,2.1-5.7
		C435.3,582.7,436.9,581.5,438.9,582z"/>
	<path class="st1" d="M171.3,223.1c1.5-0.7,3.4-0.6,4.5,1.3c1.8,3.2,3.8,6.4,6,9.3c7.2-7.4,14.8-14.4,22.9-20.7
		c2.6-2,5.8-3.1,8.6-0.7c2,1.7,2.9,4.5,3.8,6.9c1.5,3.6,2.8,7.3,3.9,11c7.5-7.3,14.5-15.1,20.9-23.4c1.6-2.1,5.4-0.8,5.9,1.5
		c1.9,8.5,3.8,17,5.7,25.4c6-5.2,11.9-10.4,17.9-15.6c2.7-2.4,6.5-0.1,5.9,3.4c-0.9,5-1.3,10.1-1.2,15.2c1.8-1.4,3.6-2.8,5.4-4.2
		c3.1-2.4,6.7-6.4,11-6.1c5,0.3,5.8,5.6,6.9,9.5c0.6,2.3,1.3,4.6,1.9,6.9c2.4-2.4,5-4.7,7.9-6.6c2.8-1.9,5.6,1.2,5.2,4
		c-0.4,2.3-0.6,4.5-0.8,6.8c3.3-2.9,7-5.4,10.8-7.5c1.8-1,4.7-0.2,5.2,2.1c1.1,6.2,2.2,12.4,3.3,18.7c4.6-4.4,8.9-9.2,12.7-14.4
		c1.1-1.5,3-2.3,4.8-1.3c1.5,0.9,2.4,3.3,1.3,4.8l-0.1,0.2c0.3,0.4,0.6,0.8,0.8,1.3c2,5.3,3.5,10.7,4.5,16.3c1.5-2.2,3-4.5,4.5-6.7
		c2.6-3.9,5.7-10.4,11.3-9.9c1.8,0.2,3.7,1.5,3.5,3.5c-0.7,8.4-1.4,16.8-2.3,25.2c4.1-3,8.1-6.1,12.2-9.1c2.7-2,5.4-4.1,8.1-6.1
		c2.4-1.8,5.1-4.5,8.4-3.8c4,0.9,4,4.9,3.2,8.1c-0.8,3.3-1.7,6.5-2.5,9.8c-0.8,3.1-1.6,6.3-2.4,9.5c-0.4,1.7-0.9,3.4-1.3,5.1
		c-0.1,0.2-0.1,0.5-0.2,0.8c0.8-0.5,1.5-0.9,2.3-1.4c2.8-1.8,5.6-3.5,8.5-5.3c1.2-0.8,2.4-0.7,3.4-0.1c1.2,0.4,2.2,1.5,2.2,3.2
		c0.1,9.1-1.8,18.1-5,26.6c-5.7,15.3-14.5,29.2-21.3,44c-3.3,7.3-6.1,15.3-5.6,23.4c0.4,6.4,3.1,13.2,8.5,16.9
		c1.6,1.1,2.3,3.1,1.3,4.8c-0.9,1.5-3.3,2.4-4.8,1.3c-0.4-0.2-0.7-0.5-1-0.8c-0.2,0.4-0.4,0.7-0.8,1c-3.5,3.1-6.2,7-7.9,11.4
		c-6.6,17.8,1.7,35.7,11.7,50.4l-0.2,0c-0.2,0-0.4,0.1-0.6,0.1c-2.1,0.5-4.2,1.2-6.2,2c-2.7-4-5.1-8.1-7.2-12.3
		c-4.7-9.5-7.7-20-6.8-30.7c0.9-9.8,4.7-19.4,12.2-26c0.4-0.3,0.7-0.5,1.1-0.7c-3.7-4.7-5.7-10.7-6.3-16.8c-0.8-9,2.2-17.8,5.7-26
		c3.4-7.7,7.5-15.2,11.4-22.7c6.5-12.5,12.9-25.6,14.4-39.7c-2.7,1.8-5.5,3.5-8.3,5.1c-2.1,1.2-4.9,1.4-6.7-0.5
		c-1.5-1.6-1.8-3.8-1.5-5.8c0.3-2.5,1.1-4.9,1.8-7.3c0.7-2.7,1.4-5.4,2-8.1c0.6-2.5,1.3-4.9,1.9-7.4c0.2-0.8,0.4-1.6,0.6-2.4
		c-1.1,0.8-2.1,1.6-3.2,2.4c-2.6,2-5.2,3.9-7.9,5.9c-5.3,3.9-10.5,7.8-15.7,11.7c-2.1,1.5-5.6-0.5-5.3-3c0.9-8.1,1.6-16.2,2.3-24.3
		c-0.9,1.3-1.7,2.5-2.6,3.8c-2.8,4.1-5.5,8.2-8.3,12.3c-2,3-6.3,1.7-6.6-1.8c-0.6-7.2-2.1-14.2-4.5-21c-4.1,5-8.6,9.6-13.6,13.8
		c-1.8,1.5-5.4,1.3-5.9-1.6c-1.2-6.6-2.4-13.2-3.5-19.8c-4.3,2.9-8.2,6.3-11.6,10.4c-2,2.4-6.1,0.4-6-2.5s0.2-5.7,0.5-8.6
		c-1.4,1.4-2.6,2.8-3.8,4.4c-1.7,2.4-5.6,2.3-6.4-0.8c-1-3.5-1.9-7-2.9-10.6c-0.5-1.8-1-3.5-1.5-5.3c0-0.1-0.3-0.7-0.4-1.2
		c-0.4,0.2-0.7,0.4-0.8,0.5c-0.7,0.5-1.3,1-1.9,1.5c-1.5,1.1-2.9,2.3-4.4,3.4c-2.9,2.3-5.9,4.6-8.8,6.9c-2.5,1.9-5.7,0.7-6-2.5
		c-0.5-4.8-0.5-9.6-0.1-14.3c-5.1,4.5-10.3,8.9-15.4,13.4c-1.9,1.6-5.3,1.2-5.9-1.5c-1.8-8-3.6-16.1-5.4-24.1
		c-6.5,7.8-13.4,15.3-20.9,22.2c-1.9,1.8-5.2,1.1-5.9-1.5c-1.2-4.9-2.7-9.6-4.5-14.3c-0.4-1.1-0.9-2.3-1.4-3.4
		c-0.1-0.1-0.5-1-0.8-1.6c-0.3,0.2-0.6,0.4-0.7,0.5c-0.9,0.8-1.9,1.5-2.8,2.3c-7.6,6.4-14.8,13.1-21.7,20.3c-1.2,1.3-3.8,1.4-5,0
		c-3.5-4.2-6.7-8.7-9.4-13.5C168.5,225.9,169.6,224,171.3,223.1z"/>
	<path class="st1" d="M411.5,480.4c0.3,0.8,0.3,1.8-0.3,2.8c-2.7,5.1-6.9,9.2-11.1,13.2c-3.7,3.5-7.2,7-9.6,11.5
		c-2.5,4.5-3.8,9.6-3.9,14.7c-0.2,9.4,3.8,18.4,10.6,24.7c-0.1,0-0.3,0-0.4-0.1c-3.9-0.3-7.6-1.3-11.2-3c-1.3-2-2.3-4.1-3.2-6.3
		c-4.4-10.8-3.6-23.2,1.9-33.5c2.7-5,6.6-9.1,10.7-13c3.8-3.6,7.7-7.2,10.2-11.9c0.6-1.1,1.5-1.6,2.4-1.7
		C408.2,479.5,409.9,480.6,411.5,480.4z"/>
	<path class="st1" d="M411.5,480.4c-1.6,0.2-3.4-0.9-3.9-2.5C409.2,477.8,411,478.9,411.5,480.4z"/>
	<path class="st2" d="M407.5,476.3c-0.1,0.6-0.1,1.2,0.1,1.7c-0.9,0.1-1.8,0.6-2.4,1.7c-2.5,4.7-6.4,8.3-10.2,11.9
		c-4.1,3.9-8,8-10.7,13c-5.5,10.3-6.3,22.7-1.9,33.5c0.9,2.2,2,4.3,3.2,6.3c-8.6-3.9-15.7-11.2-19.4-19.9
		c-5.4-12.6-2.1-27.2,6.9-37.3c4.4-4.9,9.8-8.6,16-10.6c0.7,0.1,1.5,0,2.2-0.4c0.1-0.1,0.3-0.2,0.4-0.3c0.3-0.1,0.5-0.1,0.8-0.2
		c1.5-0.3,2.3-1.3,2.5-2.5C399.1,476.1,403.5,477.9,407.5,476.3z"/>
	<path d="M397.3,547.4c1.7,0.3,3.1,1.6,3.1,3.5c0,1.8-1.6,3.7-3.5,3.5h-0.1c0.6-0.1,1.2-0.4,1.7-0.9c1.3-1.3,1.5-3.7,0-5
		C398.1,548.2,397.7,547.8,397.3,547.4z"/>
	<path class="st1" d="M398.5,548.5c1.5,1.2,1.3,3.7,0,5c-0.5,0.5-1.1,0.8-1.7,0.9c-0.8-0.1-1.5-0.2-2.3-0.3c-0.4-0.2-0.7-0.4-1-0.7
		c-3.1-2.6-5.7-5.7-7.8-9.1c3.5,1.6,7.3,2.6,11.2,3c0.1,0,0.3,0,0.4,0.1C397.7,547.8,398.1,548.2,398.5,548.5z"/>
	<path d="M396.8,554.4c-0.7,0.2-1.5,0.1-2.3-0.3C395.3,554.3,396.1,554.3,396.8,554.4z"/>
	<path class="st1" d="M390.9,468.9c2.8-0.5,4.5,2.2,4.1,4.4c-0.8-0.6-1.6-1.2-2.4-1.8l0,0C392.1,470.5,391.5,469.7,390.9,468.9z"/>
	<path class="st1" d="M393.5,553.5c0.3,0.3,0.7,0.5,1,0.7c-8.2-1.1-15.8-4.7-22.2-10c-12.5-10.4-18.6-27.2-14.4-43.1
		c3.5-13.2,13.4-24.7,26-30c0.9,1.3,1.8,2.6,2.7,3.9c0.6,0.9,1.6,1.5,2.6,1.7c-6.2,2-11.6,5.7-16,10.6c-9,10.1-12.3,24.7-6.9,37.3
		c3.7,8.6,10.8,16,19.4,19.9C387.8,547.8,390.4,550.9,393.5,553.5z"/>
	<path class="st1" d="M392.6,471.4c0.8,0.6,1.6,1.3,2.4,1.8c-0.2,1.2-1,2.2-2.5,2.5c-0.3,0.1-0.5,0.1-0.8,0.2
		C393,474.9,393.6,472.8,392.6,471.4z"/>
	<path class="st1" d="M392.6,471.4c1,1.4,0.4,3.5-0.9,4.5c-0.9,0.2-1.7,0.5-2.6,0.7c-1-0.1-2-0.8-2.6-1.7c-0.9-1.3-1.8-2.6-2.7-3.9
		c2-0.8,4.1-1.5,6.2-2C390.9,469.8,391.7,470.6,392.6,471.4L392.6,471.4z"/>
	<path class="st1" d="M391.8,475.9c-0.1,0.1-0.3,0.2-0.4,0.3c-0.7,0.4-1.5,0.5-2.2,0.4C390,476.3,390.9,476.1,391.8,475.9z"/>
	<path class="st1" d="M390.9,468.9c0.6,0.8,1.2,1.7,1.7,2.5c-0.9-0.7-1.7-1.5-2.5-2.3c0.2-0.1,0.4-0.1,0.6-0.1L390.9,468.9z"/>
	<path class="st1" d="M158.9,164.9l0.8,1.2c-5.7,3.8-11,8.2-15.6,13.3c-2.1,2.3-5.1,0.7-5.8-1.6
		C148.2,171.5,156.5,166.3,158.9,164.9z"/>
	<path class="st1" d="M146.1,225.2c0.1,1.2-0.6,2.3-1.6,2.9L142,220l-3.3,0.3c0-0.5-0.1-0.9-0.1-1.4c0-0.4-0.1-0.8-0.1-1.3
		c-0.3,0.3-0.5,0.5-0.8,0.8c-1.3,1.3-2.6,2.6-3.9,4c-2.4,2.8-4.4,6.1-7.3,8.3c-2.2,1.7-5.2-0.6-5.3-3c-0.1-2.9,0.5-5.8,1.1-8.6
		c-0.7,0.7-1.5,1.5-2.2,2.2c-1.6,1.6-3.2,3.1-4.8,4.7c-1.6,1.6-3.4,3.4-6,2.7c-2.3-0.6-3.1-3-3.9-5c-0.7-1.8-1.4-3.7-2-5.6
		c-0.8-2.5-1.6-5-2.6-7.5c-0.6,0.5-1.2,0.9-1.7,1.4l-3-2.6c0.6-1.6,3.4-4.3,7.4-7.6c0.8,0.3,1.5,0.8,1.8,1.5c1.7,3.4,3,6.9,4.1,10.4
		c0.6,1.8,1.2,3.6,1.8,5.4c0.1,0.3,0.2,0.5,0.3,0.8c0.5-0.5,0.9-1,1.3-1.5c1.3-1.3,2.7-2.6,4-4c2.7-2.7,5.5-5.4,8.3-8.2
		c2.7-2.7,6.4,0.1,5.9,3.4c-0.4,2.2-0.7,4.4-1.1,6.5c2.1-2.4,4.4-4.8,7.1-6.5c1.7-1,3.8-1.8,5.7-0.8c2,1,2.4,2.8,2.6,4.9
		C145.5,217.7,145.8,221.4,146.1,225.2z"/>
	<path class="st1" d="M142,220l2.5,8.1c-0.6,0.4-1.2,0.6-1.9,0.6c-2,0-3.4-1.6-3.5-3.5c-0.1-1.6-0.3-3.3-0.4-4.9L142,220z"/>
	<path class="st1" d="M18.8,422.4c0.7,3.1,1.5,6.7,2.3,10.6c-1.3,0.1-2.8-0.5-3.3-1.7c-4.3-9.7-3.9-20.4-3.9-30.7
		c-0.1-10.7,0-21.4,0.5-32.1c1-18.2,3.8-36.2,9.6-53.4c5.3-15.9,12.7-31.1,21.4-45.4c8.8-14.6,18.9-28.4,29.6-41.6
		c3.8-4.7,7.5-9.6,11.8-13.8c4.3-4.2,8.8-8.5,13.7-12c0.8-0.6,2-0.6,3-0.3c-4,3.3-6.8,5.9-7.4,7.6l3,2.6
		c-8.5,7.2-15.8,16.5-22.7,25.3c-20,25.4-37.8,53.4-47.2,84.6c-5.2,17.1-7.3,34.8-8,52.6c-0.3,9.3-0.3,18.7-0.3,28
		c0,6.3-0.3,13,1.1,19.2L18.8,422.4z"/>
	<path d="M23.8,427.7c0.8,1.7,0.5,3.8-1.3,4.8c-0.4,0.3-0.9,0.4-1.5,0.4c-0.8-3.9-1.6-7.5-2.3-10.6l3.1-0.6
		C22.4,423.8,23,425.8,23.8,427.7z"/>
	<path class="st1" d="M550.3,357.8c0.3-0.5,0.7-0.9,1.2-1.2c1.5-0.9,4-0.5,4.8,1.3c8.1,17.5,8.6,36.9,5.8,55.8
		c-1.2,8.4-3.1,16.7-5.3,24.9c-2.3,8.8-4.9,17.6-5.5,26.7c-0.3,4.3-0.2,8.7,0.7,13c0.9,4.5,2.3,8.9,3.4,13.3
		c2,8.2,2.6,16.7,1.8,25.1c-3.6,34.8-27.6,61.7-52.4,84.3c-3.2,2.9-7.7-1.3-5.5-4.4c-0.8-1.3-0.8-3.4,0.4-4.4
		c9.1-7.7,16.3-17.5,21-28.5c4.1-9.6,6.3-20.2,6.3-30.6c0-11.8-3.3-23.2-6.5-34.4c-3.2-11.6-6.5-23.6-5.8-35.7
		c0.3-4.5,1.1-8.8,2.4-12.9c2.4-7.6,6.4-14.8,10.8-21.6c2.5-3.8,8.6-0.3,6.1,3.5c-3.8,5.9-7.5,12-9.8,18.7
		c-2.1,6.3-2.8,12.8-2.4,19.5c0.8,12.1,4.8,23.7,7.9,35.4c3,11.3,5.1,22.8,4,34.6c-0.9,10.2-3.7,20.3-8.1,29.6
		c3.8-4.6,7.4-9.5,10.6-14.6c8.5-13.6,14.2-29.2,14.4-45.4c0-4-0.2-7.9-1-11.8c-0.8-4.2-2-8.4-3.1-12.6c-2.4-9-2.7-17.8-1.4-27
		c1.3-8.8,3.9-17.3,6.1-26c2-7.9,3.7-15.9,4.6-24c1.9-15.8,1.3-32.3-5.5-47C549.7,360.3,549.6,358.9,550.3,357.8z"/>
	<path class="st2" d="M550.2,361.5c6.8,14.6,7.4,31.2,5.5,47c-0.9,8.1-2.6,16.1-4.6,24c-2.2,8.6-4.8,17.1-6.1,26
		c-1.4,9.2-1,18,1.4,27c1.1,4.2,2.4,8.3,3.1,12.6c0.7,3.9,1,7.8,1,11.8c-0.2,16.1-5.9,31.8-14.4,45.4c-3.2,5.1-6.7,9.9-10.6,14.6
		c4.4-9.3,7.2-19.3,8.1-29.6c1-11.7-1-23.3-4-34.6c-3.1-11.6-7.1-23.3-7.9-35.4c-0.4-6.6,0.3-13.2,2.4-19.5c2.3-6.7,6-12.8,9.8-18.7
		c2.5-3.8-3.6-7.3-6.1-3.5c-4.5,6.9-8.4,14-10.8,21.6c-0.9-20.6,21.4-83.2,23.9-90.6c1.8-5.5,6.6-3.4,9.4-1.6
		C549.6,358.9,549.7,360.3,550.2,361.5z"/>
	<path class="st1" d="M431.9,503.4c-4.2-10,1.6-20,8.3-27.3c3.1-3.4,6.6-7.1,10.9-8.8c4.4-1.7,9.2-0.6,13,2c4.5,3,7.3,8.1,9.1,13
		c0.7,1.8,2.4,3,4.3,2.5c1.7-0.5,3.1-2.5,2.5-4.3c-2.1-5.8-5.2-11.5-10.1-15.5c-4.8-3.9-10.9-6.2-17.1-5.3
		c-6.2,0.9-11.2,4.9-15.5,9.1c-4.3,4.4-8.5,9.3-11.1,15c-3.1,6.7-4.2,14.6-1.3,21.5c0.7,1.8,2.3,3,4.3,2.5
		C431.1,507.2,432.6,505.1,431.9,503.4z"/>
	<path class="st1" d="M442,485.1c4.3,1.9,8.1,5,8.7,9.9c0.7,5.7-2.3,11.1-4.8,15.9c-2.1,4,4,7.6,6.1,3.6c3.4-6.4,6.7-13.2,5.6-20.7
		c-0.9-6.8-5.9-12-12-14.7c-1.7-0.8-3.8-0.5-4.8,1.3C439.8,481.8,440.2,484.3,442,485.1z"/>
	<path class="st1" d="M110.4,193.7c-13.1-10.4-31.3-13.9-47-7.5c-8.4,3.4-14.9,9.2-20.3,16.4c-5.1,6.8-9.3,14.5-12.3,22.5
		c-3.5,9.3-4.9,19.6-2.2,29.3c1.2,4.4,8,2.5,6.8-1.9c-4.2-15,3.2-30.8,11.4-43.1c4.1-6.2,9.2-11.7,15.8-15.2
		c6.4-3.4,13.8-4.6,21.1-4c7.8,0.6,15.5,3.6,21.6,8.5c1.5,1.2,3.5,1.4,5,0C111.6,197.5,111.8,194.9,110.4,193.7z"/>
	<path class="st1" d="M323.6,109c-5.1,2.8-10.4,5.8-14.3,10.3c-4.5,5.1-6.3,11.5-7,18.1c-0.7,6.6-0.5,13.5,2.3,19.7
		c2.4,5.2,7.1,9.5,12.7,10.7c4.4,0.9,6.3-5.9,1.9-6.8c-10.6-2.2-10.9-15.7-9.8-24.2c0.6-4.9,2.2-9.7,5.6-13.3
		c3.4-3.6,7.9-6,12.2-8.3C331.1,112.9,327.6,106.8,323.6,109z"/>
	<path class="st1" d="M519.4,55c4.6-8.4,15.3-12.7,24.5-9.7c9,3,15,13.4,13.3,22.7c-0.3,1.9,0.5,3.8,2.5,4.3c1.7,0.5,4-0.6,4.3-2.5
		c1.8-10-2.1-20.6-10.1-26.9c-8.3-6.5-19.2-7.2-28.6-2.8c-5,2.4-9.3,6.4-12,11.2C511.1,55.5,517.2,59,519.4,55z"/>
	<path class="st1" d="M119,424.8C119.1,424.8,119.1,424.8,119,424.8z M100.4,463c0,0,0.4-0.3,0.2-0.2c0.3-0.3,0.6-0.5,0.8-0.7
		c2.1-1.8,4.2-3.6,6.3-5.4c0.9-0.8,1.8-1.5,2.7-2.3c0.1-0.1,0.4-0.5,0.6-0.5c0,0.1,0,0.2,0,0.3c0,0.1,0,0.2,0.1,0.2
		c0-0.1,0-0.4,0-0.6l0,0l-0.1,0c0-0.2,0-0.4,0-0.5c0-8.3-1.2-17,3.7-24.3c0.7-1.1,1.6-2.2,2.5-3.1c0.3-0.4,0.6-0.7,1-1l0.2,0
		l0.1,0.1c-0.1,0.1-0.1,0.2,0,0.2c0,0,0-0.1,0-0.2l0.1-0.1c0.1,0,0.2,0,0.3,0l0.1,0c-0.1,0-0.3,0-0.3-0.1l0,0
		c0.2-0.3,0.4-0.6-0.1-0.1c-0.7-0.8-0.4-0.3-0.2,0.2l-0.1,0.1c-0.1,0-0.3,0-0.4,0c-0.8,0-1.6,0-2.4,0c-5.4,0-10.7-0.1-16.1-0.2
		c-8.5-0.1-16.9-0.3-25.4-0.4c-15.8-0.3-31.6-0.3-47.4-0.3c0-0.1,0-0.2,0-0.3c1.3-0.5,2.3-1.6,2.3-3.2c0-1.6-1.4-3.4-3.1-3.5
		c1.2,0,2.4,0,3.6,0c18.4,0,36.8,0.2,55.1,0.5c10.9,0.2,21.7,0.3,32.6,0.4c3.1,0,5.9,0.4,7.4,3.5c1,2,1.4,4.5,0.3,6.5
		c-1.2,2.2-3.4,3.6-4.6,5.8c-1,1.7-1.5,3.4-1.9,5.4c-0.7,3.9-0.2,8.6-0.2,12.8c0,2.6,0.1,5.1-2,7c-0.6,0.6-1.3,1.1-1.9,1.6
		c-2.4,2-4.7,4-7.1,6c-2.5,2.1-5.1,3.8-8,5.3c-18.6,9.7-43.1,11.8-59.6-3.1c-7.3-6.6-12.3-15.5-15.7-24.6c-1.7-4.5-2.9-9.2-3.7-14
		c-0.4-2.3-0.9-4.8-0.8-7.2c0-2.9,1.9-4.9,4.5-5.6c-3,1.4-2.5,6.7,1.5,6.7c0.4,0,0.8,0,1.2,0c0,0.4,0,0.8,0,1
		c0.1,0.8,0.2,1.6,0.3,2.5c2.4,16.1,10.4,34.4,26,41.7c8.4,3.9,18.2,4.1,27.1,2.2c4.7-1,9.3-2.6,13.6-4.6c2.3-1.1,4.5-2.4,6.7-3.6
		c0.1-0.1,0.2-0.1,0.3-0.2L100.4,463z"/>
	<path d="M118.9,424.9l-0.1,0c-0.1,0-0.2,0-0.3,0l0.1-0.2l0,0C118.6,424.8,118.8,424.9,118.9,424.9z"/>
	<path d="M118.4,424.6c0.5-0.5,0.3-0.2,0.1,0.1L118.4,424.6z"/>
	<polygon points="118.4,424.6 118.5,424.7 118.4,424.9 118.3,424.9 118.2,424.8 118.3,424.7 	"/>
	<polygon points="118.3,424.9 118.4,424.9 118.4,425 	"/>
	<path d="M118.4,424.6l-0.1,0.1l-0.1,0.1C118,424.3,117.7,423.8,118.4,424.6z"/>
	<polygon points="118.3,424.9 118.1,424.9 118.2,424.8 	"/>
	<path class="st5" d="M117.7,424.9c0.1,0,0.3,0,0.4,0c-0.3,0.3-0.6,0.7-1,1c-0.9,1-1.7,2-2.5,3.1c-4.9,7.3-3.6,16-3.7,24.3
		c0,0.2,0,0.3,0,0.5c-0.2,0.1-0.5,0.5-0.6,0.5c-0.9,0.8-1.8,1.5-2.7,2.3c-2.1,1.8-4.2,3.6-6.3,5.4c-0.3,0.2-0.6,0.5-0.8,0.7l0,0
		c-0.1,0-0.2,0.1-0.3,0.2c-2.2,1.3-4.4,2.5-6.7,3.6c-4.3,2.1-8.9,3.6-13.6,4.6c-8.9,1.9-18.8,1.7-27.1-2.2
		c-15.5-7.3-23.6-25.6-26-41.7c-0.1-0.8-0.2-1.6-0.3-2.5c0-0.2,0-0.6,0-1c15.8,0,31.6,0.1,47.4,0.3c8.5,0.1,16.9,0.3,25.4,0.4
		c5.4,0.1,10.7,0.1,16.1,0.2C116.1,424.9,116.9,424.9,117.7,424.9z"/>
	<path d="M111,453.9L111,453.9c0,0.1,0,0.5,0,0.5c0,0,0-0.1-0.1-0.2C111,454.1,111,454,111,453.9L111,453.9z"/>
	<path d="M100.5,462.8c0.3-0.1-0.1,0.2-0.2,0.2L100.5,462.8L100.5,462.8z"/>
	<path class="st1" d="M28.8,420.4c0,1.6-1,2.7-2.3,3.2c0-0.1-0.1-0.3-0.1-0.4l-0.1-0.1l0-0.1c0.2,0.1-0.7-1,0,0.1
		c-0.2,0.2-0.9,0.7-1,0.8c-4,0-4.5-5.4-1.5-6.7l0,0c0.5-0.1,1-0.2,1.5-0.3c0.1,0,0.3,0,0.4,0C27.4,417,28.8,418.8,28.8,420.4z"/>
	<path d="M26.4,423.6c0,0.1,0,0.2,0,0.3c-0.4,0-0.8,0-1.2,0C25.7,423.9,26.1,423.8,26.4,423.6z"/>
	<path d="M26.3,423.3c0,0.1,0.1,0.2,0.1,0.4c-0.4,0.2-0.8,0.3-1.2,0.3c0.1,0,0.9-0.5,1-0.8L26.3,423.3z"/>
	<path d="M26.3,423.1L26.3,423.1C25.6,422.1,26.5,423.1,26.3,423.1z"/>
	<path d="M25.7,416.9c-0.1,0-0.3,0-0.4,0C25.4,416.9,25.5,416.9,25.7,416.9z"/>
	<path d="M23.8,417.2c0.4-0.2,0.9-0.3,1.5-0.3C24.7,416.9,24.3,417,23.8,417.2z"/>
	<path class="st1" d="M118.2,514.5c-3,3.1-5.8,6.3-8.4,9.7c-2.5,3.2-5.1,6.5-6.9,10.1c-3.6,7-4.4,15.8,1.3,21.9c3.1,3.3,8.1-1.7,5-5
		c-4.1-4.4-1.8-11,0.9-15.4c3.6-5.9,8.3-11.3,13.1-16.3C126.3,516.2,121.3,511.2,118.2,514.5z"/>
	<path class="st1" d="M136.7,546c0.3,0.3,0.6,0.5,0.8,0.8c-0.2-0.2-0.4-0.5-0.6-0.7c0.3,0.4,0.6,0.9,0.8,1.4
		c-0.1-0.3-0.2-0.6-0.4-0.8c0.2,0.5,0.4,1.1,0.5,1.7c0-0.3-0.1-0.6-0.1-0.9c0.1,0.6,0.1,1.2,0,1.8c0-0.3,0.1-0.6,0.1-0.9
		c-0.1,0.6-0.2,1.1-0.5,1.7c0.1-0.3,0.2-0.6,0.4-0.8c-0.2,0.4-0.4,0.8-0.6,1.1c-0.5,0.7-0.6,1.9-0.4,2.7c0.2,0.8,0.9,1.7,1.6,2.1
		c0.8,0.4,1.8,0.6,2.7,0.4c0.9-0.3,1.5-0.8,2.1-1.6c0.6-0.9,1.1-1.9,1.3-3c0.2-1.1,0.4-2.2,0.2-3.3c-0.2-1.4-0.5-2.6-1.1-3.9
		c-0.5-1-1.2-1.9-2-2.6c-0.7-0.6-1.5-1-2.5-1c-0.9,0-1.9,0.4-2.5,1c-0.6,0.7-1.1,1.6-1,2.5C135.7,544.4,136,545.4,136.7,546z"/>
	<path class="st1" d="M81.4,413.5c6-0.1,12,0,18,0.2c1.8,0.1,3.6-1.7,3.5-3.5c-0.1-2-1.5-3.4-3.5-3.5c-6-0.2-12-0.3-18-0.2
		c-1.8,0-3.6,1.6-3.5,3.5C77.9,411.8,79.4,413.5,81.4,413.5z"/>
	<path class="st1" d="M216.1,409.6c10.2-0.1,20.4-1.6,30.2-4.5c4.3-1.3,2.5-8.1-1.9-6.8c-9.2,2.7-18.7,4.2-28.3,4.3
		C211.5,402.6,211.5,409.6,216.1,409.6z"/>
	<path class="st1" d="M326.2,423.2c0.2,3.1-1.5,6.7-2.6,9.6c-1,2.5-2.1,4.8-3.4,7.1c-2.7,4.5-5.9,8.7-9.3,12.7
		c-6,7.1-12.5,13.8-19.3,20.1c-0.8,0.8-1.6,1.5-2.5,2.3c-2.1,1.8-4.8,2.9-7.3,4c-6.4,2.7-13,4.5-19.9,5.4c-7.2,1-14.6,1.4-21.8,0.4
		c-7.3-1.1-13.8-3.8-20.2-7.3c-6-3.3-11.7-7.4-15.9-12.9c-4.4-5.8-5.7-12.6-6.8-19.6c-0.6-3.7-1.2-7.3-1.8-11
		c-0.3-2.1-0.6-4.1-0.9-6.2c-0.2-1.7-0.5-3.6-0.4-5.3c0.3-3,2-5.8,5-6.9c2.2-0.7,4.9-0.3,7.2-0.2c21.1,0.7,42.2,0.9,63.2,1.1
		c16.4,0.1,32.8,0.2,49.3,0.1c-1.8,0-3.3,1.8-3.3,3.5c0,2,1.6,3.4,3.5,3.5c-1.1,0-2.2,0-3.3,0c-16.4,0-32.7,0-49.1-0.2
		c-19.6-0.1-39.3-0.3-59-1c-1.9-0.1-4-0.4-5.9-0.2c-0.6,0.1-0.6-0.1-0.7,0.7c-0.2,1.2,0.1,2.6,0.2,3.8c0.8,6.7,2,13.4,3.2,20.1
		c1.1,6.2,2.9,11.6,7.4,16.2c4.5,4.6,10.1,7.6,15.7,10.6c11.4,5.9,25.1,5.6,37.4,3.2c6.1-1.2,12.1-3.1,17.6-6c2.1-1.1,3.8-3,5.6-4.7
		c6.5-6.2,12.8-12.7,18.5-19.7c2.9-3.5,5.6-7.2,7.9-11.2c1.1-2,2.1-4.1,2.8-6.3c0.2-0.5,1.8-5.3,1.6-5.4c4.1,0,4.5-5.8,1.2-6.9
		C323.4,417.4,325.9,419.7,326.2,423.2z"/>
	<path class="st1" d="M320.2,416.7c3.3,1.1,2.9,6.9-1.2,6.9c-1.9-0.1-3.5-1.5-3.5-3.5c0-1.8,1.5-3.5,3.3-3.5h0.2
		c0.4,0,0.7,0.1,1,0.1L320.2,416.7z"/>
	<path d="M320.1,416.7c-0.3-0.1-0.7-0.1-1-0.1C319.5,416.6,319.8,416.6,320.1,416.7z"/>
	<path class="st5" d="M319.1,423.6c0.1,0-1.4,4.8-1.6,5.4c-0.8,2.2-1.7,4.3-2.8,6.3c-2.2,4-5,7.7-7.9,11.2c-5.7,7-12,13.5-18.5,19.7
		c-1.7,1.7-3.4,3.6-5.6,4.7c-5.5,2.8-11.5,4.8-17.6,6c-12.3,2.4-26,2.7-37.4-3.2c-5.6-2.9-11.3-6-15.7-10.6
		c-4.5-4.6-6.3-10-7.4-16.2c-1.2-6.6-2.4-13.4-3.2-20.1c-0.1-1.2-0.5-2.6-0.2-3.8c0.2-0.8,0.1-0.6,0.7-0.7c1.9-0.2,4,0.2,5.9,0.2
		c19.6,0.6,39.3,0.8,59,1c16.4,0.1,32.7,0.2,49.1,0.2C316.9,423.6,318,423.6,319.1,423.6z"/>
	<path d="M463.3,661.6c0,0.4,0,0.8,0.1,1.2c-0.5-0.2-1-0.4-1.4-0.6C462.4,662,462.8,661.8,463.3,661.6z"/>
	<path class="st1" d="M414.6,715.4c1.4,1.3,3.6,1.4,5,0c1.3-1.3,1.4-3.7,0-5c-0.2-0.1-0.3-0.3-0.5-0.5l-0.1-0.2
		c-0.1-0.2-0.2-0.3-0.2-0.3c0-0.1-0.1-0.2-0.1-0.3c0-0.1-0.2-0.8-0.2-0.8c-0.1-0.4-0.1-0.9-0.1-1.4c0-1.8,0.3-3.7,0.6-5.5
		c0.8-4.5,2.1-9,3.7-13.3c0.7-1.8-0.8-3.9-2.5-4.3c-2-0.5-3.7,0.7-4.3,2.5c-1.9,4.9-3.2,10-4,15.2
		C411.3,706.2,410.7,711.9,414.6,715.4z"/>
	<path class="st1" d="M139.6,702.7c-7.1,4.9-12.3,12.1-14.5,20.4c-2,7.6-2.2,18.2,4.5,23.7c1.5,1.2,3.5,1.4,5,0c1.2-1.2,1.5-3.8,0-5
		c-4.8-4-4.1-12-2.5-17.3c1.8-6.3,5.7-12,11.1-15.7c1.6-1.1,2.3-3.1,1.3-4.8C143.5,702.4,141.2,701.6,139.6,702.7z"/>
	<path class="st1" d="M164,712.7c-8.5,16.3-5.9,37,6.2,50.8c1.3,1.4,3.7,1.3,5,0c1.4-1.4,1.3-3.5,0-5c-10-11.3-12.1-28.9-5.1-42.3
		C172.2,712.3,166.1,708.7,164,712.7z"/>
	<path class="st1" d="M190.9,710.1c-1.4,13.8-1.6,28.5,7.7,39.8c1.2,1.5,3.7,1.3,5,0c1.5-1.5,1.2-3.5,0-5
		c-7.9-9.6-6.8-23.3-5.7-34.8c0.2-1.9-1.8-3.5-3.5-3.5C192.3,706.6,191.1,708.2,190.9,710.1z"/>
	<path class="st1" d="M223.5,714.8c8.3,10,10.9,24,7,36.4c-1.4,4.3,5.4,6.2,6.8,1.9c4.6-14.8,1.1-31.3-8.8-43.2
		c-1.2-1.5-3.7-1.3-5,0C222.1,711.3,222.3,713.3,223.5,714.8z"/>
	<path class="st1" d="M256.3,702.4c6.4,2.3,12.5,5.8,17.7,10.2c4.2,3.5,10.5,9.1,9.3,15.2c-0.4,1.9,0.5,3.8,2.5,4.3
		c1.7,0.5,3.9-0.6,4.3-2.5c1.8-8.7-4.1-16-10.3-21.4c-6.4-5.5-13.6-9.8-21.6-12.7c-1.8-0.7-3.9,0.7-4.3,2.5
		C253.3,700.1,254.5,701.8,256.3,702.4z"/>
	<path class="st1" d="M291.4,685.4c7,0.5,14.2,2.8,19.8,7.2c5.6,4.4,10.7,12,8.2,19.3c-0.6,1.8,0.7,3.9,2.5,4.3
		c1.9,0.5,3.7-0.7,4.3-2.5c3.3-9.5-2.3-19.9-9.6-25.9c-7.1-5.8-16-8.8-25.1-9.5c-1.9-0.1-3.5,1.7-3.5,3.5
		C287.9,683.9,289.5,685.3,291.4,685.4z"/>
	<path class="st1" d="M304,610c3.5-10.3-2.6-20.9-10.4-28c-0.6-0.2-1.1-0.5-1.7-0.7c-1.3,3.3-3.7,6.1-6.4,8.6
		c-3.5,3.3-7.5,6.3-11.6,8.8c-10.7,6.7-22.7,10.9-35,14.2c-5,1.4-10,2.6-15,3.7c-10,2.3-20.1,4.2-30.4,4.6c-3.8,0.1-7.7,0-11.6-0.6
		c4.7,4.3,10,7.8,15.4,11.1c4.1,2.5,8.4,5,12.7,7.1c1.7,0.8,3.4,1.5,5.1,2.2c10.6,4,21.9,3.2,33.3,1.3c5.3-0.8,10.5-2.1,15.6-3.9
		c9.3-3.2,18.3-7.6,26.5-13.2c4.5-3.1,8.9-6.9,11.7-11.7C303.1,612.4,303.6,611.2,304,610z M311.1,596.2c2,7.7,0.9,15.9-3.6,22.5
		c-3.7,5.5-8.9,9.8-14.4,13.4c-6,4-12.4,7.3-19,10.1c-15.4,6.4-32.7,9.8-49.3,8.5c-3.2-0.3-6.3-0.9-9.3-2c-8.8-3.2-17.2-7.9-25.2-13
		c-5.9-3.7-11.6-7.9-16.3-13c-2.5-2.7-4.6-5.7-6.8-8.6c-2.1-2.8,2.1-6.9,4.8-4.8c7.3,5.4,16.7,5.5,25.4,4.8c9.5-0.7,18.8-2.7,28-4.9
		c8.1-1.9,16.1-4,23.9-6.7c10-3.5,19.7-8,28.1-14.7c0.8-0.6,1.5-1.3,2.3-2c2.5-2.4,6.1-5.3,6.3-9.2c0.1-2.2,2.5-4.6,4.9-3.2
		c1.5,0.6,3,1.3,4.5,1.9c0.5,0.1,1,0.3,1.5,0.5h0l0.2,0.1c0.4,0.2,0.7,0.4,1,0.6C304,581.8,309,588.4,311.1,596.2z"/>
	<path class="st6" d="M293.6,582c7.8,7.1,13.9,17.7,10.4,28c-2.1-4.8-10.7-6.7-21.5-7.9c-16.2-1.8-28.1,9.9-28.1,9.9
		c-5.7-0.5-10.8,0.1-15.4,1.4L239,613c12.2-3.3,24.2-7.5,35-14.2c4.1-2.6,8-5.5,11.6-8.8c2.7-2.5,5.1-5.3,6.4-8.6
		C292.5,581.6,293.1,581.8,293.6,582z"/>
	<path class="st7" d="M304,610c-0.4,1.2-0.9,2.4-1.6,3.6c-2.8,4.8-7.2,8.6-11.7,11.7c-8.2,5.6-17.2,10-26.5,13.2
		c-5.1,1.8-10.3,3-15.6,3.9c-11.5,1.8-22.7,2.7-33.3-1.3c-1.7-0.6-3.4-1.4-5.1-2.2c3-5.8,12-20.6,28.9-25.5
		c4.5-1.3,9.6-1.9,15.4-1.4c0,0,11.9-11.6,28.1-9.9C293.4,603.3,302,605.2,304,610z"/>
	<path class="st6" d="M239,613l0.1,0.4c-16.9,4.9-25.9,19.7-28.9,25.5c-4.4-2.1-8.6-4.6-12.7-7.1c-5.5-3.2-10.8-6.8-15.4-11.1
		c3.8,0.6,7.7,0.7,11.6,0.6c10.2-0.4,20.4-2.3,30.4-4.6C229,615.6,234,614.4,239,613z"/>
	<g>
		<path class="st1" d="M304.1,368.2c-0.1-2.1-1.3-3.9-3.2-4.8c-10.4-4.8-21.9-7.2-33.4-7.8c-12.6-0.7-25.1,0.6-37.5,2.6
			c-11.5,1.9-23,4.5-33.3,9.8l-0.1,0.1l-1.3,0.9c-1.6,1.1-2.4,3-2,4.9c1.3,7.2,2.6,14.3,4.1,21.4c0.2,0.8,0.3,1.7,0.5,2.5
			c0.2,0.8,0.9,1.5,1.8,1.5h0.2c0.5,0,0.9-0.1,1.2-0.5c5.4-5.2,12.4-8.4,19.4-10.8c15.7-5.4,32.3-7.4,48.8-9.1
			c10.6-1.1,21.3-2.1,32-2.1c0,0,1,0,1.4-0.5C304,374.6,304.2,370.9,304.1,368.2z"/>
	</g>
	<g>
		<path class="st1" d="M103.3,372.6c2.4,2.7,2.8,6.8,2.4,10.4c-0.6,5.2-2.7,10.2-6,14.3c-1.1,1.3-3,1.5-4.3,0.5
			c-0.3-0.2-0.6-0.5-0.9-0.7c-11.2-8-24.4-12.8-37.8-15.5c-12.3-2.5-24.8-3.5-37.4-4.3c-1.9-0.1-3.3-2-2.8-3.8
			c0.2-0.7,0.4-1.3,0.6-1.6c0.6-0.8,1.5-1.4,2.5-1.9c8.3-4.5,17.8-5.8,27.1-6.7c9.9-1,20-1.5,29.9-0.2c8.9,1.1,23,7.6,25.8,9
			C102.7,372.1,103,372.3,103.3,372.6z"/>
	</g>
	<path class="st1" d="M189,174.3c-19.8,8-36,24.5-42.4,45c-6.4,20.2-1.6,42.8,11.8,59.1c3.7,4.5,8.1,8.4,13,11.6
		c5.6,3.6,12.9,6.8,19.6,4.1c1.8-0.7,3-2.4,2.5-4.3c-0.5-1.7-2.6-3.2-4.3-2.5c-5,2-10-0.8-14.2-3.4c-3.8-2.4-7.1-5.4-10.1-8.8
		c-6-6.8-10.2-15.2-12.4-24c-4.5-18.3,0.9-37.5,13.1-51.7c6.9-8,15.6-14.5,25.3-18.4c1.8-0.7,3-2.3,2.5-4.3
		C192.9,175.1,190.8,173.6,189,174.3z"/>
	<path class="st1" d="M242.8,447.9c-4.3,0-7.8-3.5-7.8-7.8c0-3.5,2.3-6.4,5.4-7.4c-2.7-2.5-6.4-4.1-10.4-4.1
		c-8.5,0-15.4,6.9-15.4,15.4c0,8.5,6.9,15.4,15.4,15.4c7.2,0,13.3-5,14.9-11.7C244.3,447.8,243.5,447.9,242.8,447.9z"/>
	<path d="M242.8,447.9v-0.5c-2,0-3.9-0.8-5.2-2.1c-1.3-1.3-2.1-3.2-2.1-5.2c0-3.3,2.1-6,5.1-7l0.8-0.3l-0.6-0.6
		c-2.8-2.6-6.6-4.2-10.7-4.2c-8.8,0-15.9,7.1-15.9,15.9c0,8.8,7.1,15.9,15.9,15.9c7.5,0,13.7-5.2,15.4-12.1l0.2-0.8l-0.8,0.2
		c-0.6,0.2-1.3,0.3-2,0.3V447.9v0.5c0.8,0,1.5-0.1,2.3-0.3l-0.1-0.5l-0.5-0.1c-1.6,6.5-7.4,11.3-14.4,11.3c-4.1,0-7.8-1.7-10.5-4.4
		c-2.7-2.7-4.4-6.4-4.4-10.5c0-4.1,1.7-7.8,4.4-10.5c2.7-2.7,6.4-4.4,10.5-4.4c3.9,0,7.4,1.5,10,3.9l0.3-0.4l-0.2-0.5
		c-3.3,1.1-5.8,4.2-5.8,7.9c0,4.6,3.7,8.3,8.3,8.3V447.9z"/>
	<path class="st1" d="M100.5,447.9c-4.3,0-7.8-3.5-7.8-7.8c0-3.5,2.3-6.4,5.4-7.4c-2.7-2.5-6.4-4.1-10.4-4.1
		c-8.5,0-15.4,6.9-15.4,15.4c0,8.5,6.9,15.4,15.4,15.4c7.2,0,13.3-5,14.9-11.7C102,447.8,101.3,447.9,100.5,447.9z"/>
	<path d="M100.5,447.9v-0.5c-2,0-3.9-0.8-5.2-2.1c-1.3-1.3-2.1-3.2-2.1-5.2c0-3.3,2.1-6,5.1-7l0.8-0.3l-0.6-0.6
		c-2.8-2.6-6.6-4.2-10.7-4.2c-4.4,0-8.4,1.8-11.2,4.6c-2.9,2.9-4.6,6.8-4.6,11.2c0,8.8,7.1,15.9,15.9,15.9c7.5,0,13.7-5.2,15.4-12.1
		l0.2-0.8l-0.8,0.2c-0.6,0.2-1.3,0.3-2,0.3V447.9v0.5c0.8,0,1.5-0.1,2.3-0.3l-0.1-0.5l-0.5-0.1c-1.6,6.5-7.4,11.3-14.4,11.3
		c-4.1,0-7.8-1.7-10.5-4.4c-2.7-2.7-4.4-6.4-4.4-10.5c0-8.2,6.7-14.9,14.9-14.9c3.9,0,7.4,1.5,10,3.9l0.3-0.4l-0.2-0.5
		c-3.3,1.1-5.8,4.2-5.8,7.9c0,4.6,3.7,8.3,8.3,8.3V447.9z"/>
</g>
</svg>
