<svg width="70" height="56" viewBox="0 0 70 56" fill="none" xmlns="http://www.w3.org/2000/svg">
<path d="M42.4282 21.5515C42.4282 18.8377 40.4416 17.3396 36.9524 17.3396H30.5343V26.0827H35.9464C40.1232 26.0704 42.4282 24.4495 42.4282 21.5515ZM65.7956 19.9797C64.5859 16.1854 64.4076 11.5314 64.5477 7.93352C64.6878 4.18827 61.657 0.75 57.582 0.75H15.7115C11.6238 0.75 8.60579 4.20055 8.74587 7.93352C8.87321 11.5314 8.70766 16.1854 7.4979 19.9797C6.27541 23.7864 4.22518 26.1932 0.850586 26.5002V29.9998C4.21245 30.3068 6.27541 32.7136 7.4979 36.5203C8.70766 40.3146 8.88594 44.9686 8.74587 48.5665C8.60579 52.3117 11.6366 55.75 15.7115 55.75H57.5693C61.657 55.75 64.675 52.2995 64.5349 48.5665C64.4076 44.9686 64.5731 40.3146 65.7829 36.5203C67.0054 32.7136 69.0556 30.3068 72.4175 29.9998V26.5002C69.0684 26.1932 67.0054 23.7864 65.7956 19.9797ZM38.1876 42.8811H25.7207V13.6189H38.124C43.6379 13.6189 47.2545 16.4924 47.2545 20.913C47.2545 24.0197 44.8222 26.7949 41.715 27.2738V27.4334C45.9428 27.8755 48.7826 30.6998 48.7826 34.5924C48.7826 39.7621 44.7967 42.8811 38.1876 42.8811ZM36.9142 29.5332H30.5343V39.1604H37.1943C41.5495 39.1604 43.8544 37.4781 43.8544 34.3099C43.8544 31.1541 41.4858 29.5332 36.9142 29.5332Z" fill="#AEAEAE"/>
</svg>
