<svg id="e0K1rb8gzGE1" xmlns="http://www.w3.org/2000/svg" xmlns:xlink="http://www.w3.org/1999/xlink" viewBox="0 0 520 638" shape-rendering="geometricPrecision" text-rendering="geometricPrecision">
<style><![CDATA[
#e0K1rb8gzGE2_to {animation: e0K1rb8gzGE2_to__to 2000ms linear infinite normal forwards}@keyframes e0K1rb8gzGE2_to__to { 0% {transform: translate(322.714005px,196.713104px)} 50% {transform: translate(349.714005px,203.713104px)} 100% {transform: translate(322.714005px,196.713104px)}} #e0K1rb8gzGE2_tr {animation: e0K1rb8gzGE2_tr__tr 2000ms linear infinite normal forwards}@keyframes e0K1rb8gzGE2_tr__tr { 0% {transform: rotate(2.377098deg)} 50% {transform: rotate(0deg)} 100% {transform: rotate(2.377098deg)}} #e0K1rb8gzGE3_to {animation: e0K1rb8gzGE3_to__to 2000ms linear infinite normal forwards}@keyframes e0K1rb8gzGE3_to__to { 0% {transform: translate(322.713303px,196.712486px)} 50% {transform: translate(349.713303px,203.712486px)} 100% {transform: translate(322.713303px,196.712486px)}} #e0K1rb8gzGE3_tr {animation: e0K1rb8gzGE3_tr__tr 2000ms linear infinite normal forwards}@keyframes e0K1rb8gzGE3_tr__tr { 0% {transform: rotate(2.377098deg)} 50% {transform: rotate(2.377098deg)} 100% {transform: rotate(0deg)}} #e0K1rb8gzGE5_tr {animation: e0K1rb8gzGE5_tr__tr 2000ms linear infinite normal forwards}@keyframes e0K1rb8gzGE5_tr__tr { 0% {transform: translate(420.425461px,461.908518px) rotate(0deg)} 50% {transform: translate(420.425461px,461.908518px) rotate(90deg)} 100% {transform: translate(420.425461px,461.908518px) rotate(0deg)}} #e0K1rb8gzGE6_tr {animation: e0K1rb8gzGE6_tr__tr 2000ms linear infinite normal forwards}@keyframes e0K1rb8gzGE6_tr__tr { 0% {transform: translate(126.213785px,393.213303px) rotate(0deg)} 50% {transform: translate(126.213785px,393.213303px) rotate(180deg)} 100% {transform: translate(126.213785px,393.213303px) rotate(360deg)}} #e0K1rb8gzGE8_to {animation: e0K1rb8gzGE8_to__to 2000ms linear infinite normal forwards}@keyframes e0K1rb8gzGE8_to__to { 0% {transform: translate(178.425209px,578.423584px)} 50% {transform: translate(217.424473px,551.423401px)} 100% {transform: translate(178.424473px,578.423401px)}} #e0K1rb8gzGE8_tr {animation: e0K1rb8gzGE8_tr__tr 2000ms linear infinite normal forwards}@keyframes e0K1rb8gzGE8_tr__tr { 0% {transform: rotate(0deg)} 50% {transform: rotate(80deg)} 100% {transform: rotate(0deg)}} #e0K1rb8gzGE9_to {animation: e0K1rb8gzGE9_to__to 2000ms linear infinite normal forwards}@keyframes e0K1rb8gzGE9_to__to { 0% {transform: translate(178.424473px,578.423401px)} 50% {transform: translate(217.424473px,551.423401px)} 100% {transform: translate(178.424473px,578.423401px)}} #e0K1rb8gzGE9_tr {animation: e0K1rb8gzGE9_tr__tr 2000ms linear infinite normal forwards}@keyframes e0K1rb8gzGE9_tr__tr { 0% {transform: rotate(0deg)} 50% {transform: rotate(80deg)} 100% {transform: rotate(0deg)}}
]]></style>
<g id="e0K1rb8gzGE2_to" transform="translate(322.714005,196.713104)"><g id="e0K1rb8gzGE2_tr" transform="rotate(2.377098)"><path d="M440.171,312.022c.598-2.348.238-4.838-1-6.92l-13.409-22.564c3.005-3.607,5.825-7.38,8.44-11.294l25.439,6.473c4.89,1.244,9.862-1.711,11.106-6.6l17.558-69.003c1.244-4.89-1.71-9.862-6.6-11.106l-25.439-6.473c-.426-4.687-1.1-9.351-2.015-13.955l22.564-13.41c4.337-2.577,5.764-8.183,3.186-12.521L443.624,83.4412c-2.578-4.3363-8.184-5.7627-12.521-3.186L408.539,93.6646c-3.608-3.005-7.38-5.8245-11.294-8.4406l6.473-25.4367c1.244-4.8897-1.711-9.8616-6.601-11.1058L328.114,31.1229c-4.89-1.2442-9.862,1.7107-11.106,6.6003l-6.473,25.4377c-4.686.4259-9.349,1.0998-13.955,2.0157L283.17,42.613c-2.578-4.3371-8.183-5.7635-12.521-3.1859L209.442,75.8035c-4.337,2.5776-5.764,8.1833-3.186,12.5213l13.409,22.5632c-3.004,3.607-5.825,7.381-8.44,11.294l-25.438-6.472c-4.889-1.246-9.862,1.71-11.106,6.6l-17.558,69.003c-1.244,4.89,1.71,9.862,6.6,11.106l25.438,6.473c.426,4.687,1.099,9.35,2.015,13.955l-22.563,13.409c-2.082,1.238-3.588,3.253-4.186,5.601-.597,2.348-.237,4.837,1,6.92l36.376,61.208c1.238,2.082,3.253,3.589,5.601,4.186c2.348.598,4.837.237,6.92-1l22.563-13.41c3.608,3.005,7.381,5.825,11.295,8.44l-6.473,25.438c-1.245,4.89,1.71,9.862,6.6,11.106l69.003,17.558c4.89,1.245,9.862-1.71,11.106-6.6l6.473-25.438c4.687-.426,9.349-1.099,13.955-2.015l13.409,22.564c1.238,2.082,3.253,3.588,5.601,4.186c2.348.597,4.838.237,6.92-1l61.208-36.377c2.084-1.239,3.59-3.253,4.187-5.601Zm-66.876,21.603l-12.132-20.414c-2.068-3.477-6.176-5.182-10.099-4.187-7.739,1.961-15.73,3.115-23.749,3.431-4.042.159-7.498,2.956-8.495,6.875l-5.856,23.014-51.296-13.053l5.856-23.014c.997-3.919-.702-8.028-4.175-10.099-6.894-4.11-13.36-8.943-19.222-14.366-2.97-2.747-7.391-3.214-10.871-1.148l-20.414,12.132L185.8,247.294l20.414-12.131c3.478-2.067,5.182-6.176,4.188-10.098-1.962-7.74-3.116-15.73-3.432-23.749-.158-4.041-2.956-7.497-6.875-8.495l-23.013-5.855l13.052-51.297l23.014,5.856c3.92.998,8.029-.701,10.1-4.176c4.11-6.893,8.943-13.359,14.365-19.22c2.748-2.97,3.216-7.394,1.149-10.872L226.629,86.8435l45.502-27.0419l12.132,20.4138c2.067,3.4771,6.176,5.1825,10.097,4.1877c7.74-1.9611,15.731-3.1155,23.75-3.431c4.041-.1592,7.497-2.9564,8.494-6.8756l5.857-23.015l51.296,13.0529-5.856,23.0141c-.997,3.9191.701,8.0279,4.175,10.0995c6.894,4.111,13.36,8.943,19.221,14.365c2.972,2.749,7.394,3.216,10.871,1.148l20.414-12.132l27.042,45.501-20.414,12.132c-3.478,2.067-5.182,6.177-4.188,10.099c1.961,7.737,3.116,15.727,3.431,23.748.159,4.042,2.957,7.498,6.876,8.495l23.014,5.856-13.053,51.297-23.014-5.857c-3.919-.997-8.028.702-10.1,4.176-4.111,6.894-8.944,13.362-14.365,19.221-2.748,2.971-3.215,7.394-1.148,10.871l12.132,20.413-45.5,27.044Z" transform="translate(-322.714005,-196.713104)" fill="#57c6d4" fill-opacity="0.58"/></g></g><g id="e0K1rb8gzGE3_to" transform="translate(322.713303,196.712486)"><g id="e0K1rb8gzGE3_tr" transform="rotate(2.377098)"><path d="M386.968,213.063c9.015-35.431-12.475-71.59-47.905-80.606-35.429-9.015-71.589,12.475-80.604,47.905-9.016,35.431,12.474,71.59,47.903,80.606c35.432,9.015,71.59-12.475,80.606-47.905ZM276.165,184.868c6.532-25.667,32.726-41.235,58.392-34.704s41.235,32.726,34.704,58.393-32.726,41.235-58.393,34.704-41.233-32.727-34.703-58.393Z" transform="translate(-322.713303,-196.712486)" fill="#57c6d4" fill-opacity="0.58"/></g></g><path d="M435.852,420.789c-21.305-8.507-45.555,1.906-54.06,23.209-8.507,21.304,1.905,45.556,23.208,54.061c5.044,2.014,10.249,2.967,15.375,2.967c16.526,0,32.193-9.915,38.686-26.175c8.506-21.303-1.905-45.556-23.209-54.062Zm6.533,47.403c-2.341,5.866-6.828,10.468-12.63,12.96-5.803,2.491-12.23,2.574-18.096.231-12.108-4.834-18.026-18.618-13.191-30.726c4.835-12.109,18.62-18.025,30.727-13.192c12.107,4.835,18.025,18.619,13.19,30.727Z" fill="#57c6d4" fill-opacity="0.58"/><g id="e0K1rb8gzGE5_tr" transform="translate(420.425461,461.908518) rotate(0)"><path d="M517.122,469.323c-.939-2.189-2.709-3.914-4.92-4.796l-11.484-4.585c.007-1.031-.006-2.061-.039-3.09l11.361-4.878c2.189-.939,3.914-2.709,4.796-4.92.883-2.212.852-4.684-.088-6.871l-16.029-37.336c-1.955-4.556-7.236-6.666-11.793-4.708l-11.361,4.878c-.723-.733-1.46-1.452-2.213-2.157l4.586-11.484c1.839-4.604-.404-9.828-5.009-11.667l-37.735-15.067c-4.603-1.837-9.829.404-11.667,5.009l-4.586,11.483c-1.027-.008-2.06.006-3.09.039l-4.877-11.363c-.939-2.188-2.709-3.914-4.921-4.796-2.21-.883-4.683-.852-6.87.088l-37.336,16.03c-4.557,1.956-6.665,7.236-4.708,11.792l4.878,11.361c-.733.724-1.452,1.461-2.157,2.213l-11.483-4.585c-2.211-.883-4.683-.852-6.871.088-2.188.939-3.913,2.709-4.795,4.92l-15.068,37.733c-1.839,4.605.404,9.828,5.008,11.667l11.484,4.586c-.007,1.03.006,2.061.039,3.09l-11.361,4.877c-2.189.94-3.914,2.71-4.796,4.921-.883,2.212-.852,4.683.088,6.871l16.029,37.336c.939,2.189,2.71,3.914,4.921,4.796c2.21.883,4.683.852,6.871-.088l11.361-4.878c.723.733,1.46,1.452,2.213,2.157l-4.586,11.483c-1.839,4.605.404,9.829,5.009,11.668l37.735,15.067c1.07.427,2.2.64,3.329.64c1.206,0,2.413-.243,3.543-.728c2.188-.939,3.914-2.71,4.796-4.921l4.584-11.482c1.029.004,2.062-.007,3.09-.04l4.878,11.361c1.955,4.556,7.233,6.664,11.792,4.708l37.336-16.029c2.189-.94,3.914-2.71,4.796-4.921.883-2.212.851-4.683-.088-6.871l-4.878-11.361c.733-.724,1.452-1.461,2.157-2.213l11.484,4.585c4.603,1.837,9.828-.404,11.667-5.009l15.067-37.735c.882-2.209.851-4.681-.089-6.868Zm-28.326,29.608l-9.089-3.628c-3.692-1.475-7.913-.346-10.375,2.774-2.675,3.389-5.708,6.5-9.011,9.245-3.058,2.542-4.079,6.793-2.51,10.447l3.861,8.993-20.837,8.945-3.861-8.993c-1.569-3.654-5.351-5.839-9.302-5.375-4.265.504-8.609.559-12.908.165-3.959-.361-7.684,1.921-9.158,5.612l-3.629,9.089-21.059-8.409l3.629-9.089c1.474-3.691.346-7.913-2.775-10.375-3.388-2.675-6.499-5.708-9.245-9.011-2.541-3.058-6.792-4.08-10.446-2.51c0,0-6.266278,4.949719-8.993,3.861-6.317769-2.522542-8.945-20.837-8.945-20.837l8.993-3.861c3.654-1.569,5.842-5.354,5.374-9.303-.503-4.264-.559-8.607-.165-12.907.362-3.958-1.921-7.683-5.611-9.158l-9.089-3.629l8.408-21.059l9.089,3.63c3.692,1.474,7.913.345,10.376-2.775c2.677-3.389,5.708-6.5,9.01-9.244c3.058-2.541,4.08-6.792,2.512-10.446l-3.861-8.993l20.836-8.945l3.861,8.993c1.569,3.653,5.351,5.839,9.303,5.374c4.266-.503,8.61-.558,12.906-.165c3.961.362,7.685-1.92,9.159-5.612l3.63-9.09l21.058,8.408-3.629,9.09c-1.475,3.692-.345,7.913,2.774,10.376c3.389,2.676,6.5,5.707,9.244,9.009c2.543,3.059,6.793,4.081,10.447,2.512l8.993-3.861l8.945,20.837-8.993,3.861c-3.655,1.568-5.841,5.354-5.375,9.303.504,4.265.559,8.606.166,12.906-.364,3.958,1.92,7.684,5.612,9.158l9.089,3.63-8.409,21.057Z" transform="translate(-420.425461,-459.423615)" fill="#57c6d4" fill-opacity="0.58"/></g><g id="e0K1rb8gzGE6_tr" transform="translate(126.213785,393.213303) rotate(0)"><path d="M201.576,467.196c.383-1.506.152-3.104-.642-4.44L192.33,448.28c1.928-2.315,3.738-4.736,5.416-7.247l16.322,4.153c3.137.799,6.327-1.097,7.125-4.235l11.266-44.273c.798-3.137-1.098-6.327-4.235-7.125l-16.322-4.154c-.273-3.007-.706-5.999-1.293-8.953l14.478-8.604c2.782-1.654,3.698-5.25,2.044-8.034l-23.34-39.271c-1.654-2.782-5.251-3.698-8.033-2.044l-14.478,8.603c-2.315-1.928-4.735-3.737-7.246-5.415l4.153-16.321c.798-3.137-1.098-6.327-4.235-7.125l-44.273-11.266c-3.138-.799-6.328,1.097-7.126,4.235L118.4,307.525c-3.007.273-5.999.705-8.954,1.293l-8.604-14.477c-1.6539-2.783-5.2506-3.698-8.0334-2.044L53.5372,315.636c-2.7827,1.654-3.698,5.251-2.0443,8.034l8.6038,14.477c-1.9279,2.314-3.7378,4.736-5.4156,7.247L38.36,341.24c-3.1371-.798-6.3273,1.098-7.1256,4.235L19.9687,389.748c-.7983,3.138,1.0976,6.328,4.2348,7.126l16.3211,4.153c.2737,3.007.7055,5.999,1.2933,8.954L27.341,418.585c-1.3358.793-2.3023,2.086-2.6856,3.593-.3834,1.506-.1523,3.103.6415,4.44L48.6362,465.89c.7939,1.336,2.0868,2.302,3.5933,2.685c1.5066.384,3.1036.153,4.44-.641l14.477-8.604c2.3148,1.928,4.7357,3.737,7.2465,5.415l-4.1531,16.321c-.7983,3.138,1.0976,6.328,4.2349,7.126l44.2732,11.266c3.137.798,6.327-1.098,7.126-4.235l4.153-16.321c3.007-.274,5.998-.706,8.953-1.294l8.604,14.478c.794,1.336,2.087,2.302,3.593,2.685c1.507.384,3.104.153,4.44-.641l39.272-23.34c1.337-.795,2.303-2.087,2.687-3.594Zm-42.909,13.861l-7.784-13.097c-1.327-2.231-3.963-3.325-6.479-2.687-4.966,1.258-10.093,1.999-15.238,2.201-2.593.102-4.811,1.897-5.451,4.412l-3.757,14.766-32.9123-8.375l3.7574-14.766c.6399-2.515-.4499-5.151-2.6788-6.48-4.4228-2.637-8.5717-5.738-12.3326-9.217-1.9056-1.763-4.7422-2.063-6.9754-.737l-13.0977,7.784-17.3502-29.194l13.0976-7.784c2.2315-1.326,3.3251-3.962,2.687-6.479-1.2584-4.966-1.9991-10.093-2.2015-15.237-.1016-2.593-1.8969-4.811-4.4115-5.451l-14.7655-3.757l8.3748-32.912l14.7661,3.757c2.5146.64,5.1514-.45,6.4802-2.679c2.6369-4.423,5.7379-8.572,9.2168-12.332c1.7628-1.906,2.0628-4.744.7366-6.976L64.5649,322.72l29.194-17.351l7.7841,13.098c1.326,2.231,3.963,3.325,6.479,2.687c4.966-1.258,10.093-1.999,15.238-2.201c2.593-.103,4.81-1.897,5.45-4.412l3.757-14.767l32.913,8.375-3.758,14.766c-.64,2.515.45,5.151,2.679,6.48c4.423,2.638,8.572,5.738,12.333,9.217c1.906,1.764,4.744,2.063,6.974.737l13.098-7.784l17.351,29.194-13.098,7.784c-2.232,1.326-3.325,3.963-2.687,6.479c1.258,4.964,1.999,10.091,2.201,15.237.102,2.594,1.897,4.811,4.412,5.451l14.766,3.757-8.375,32.912-14.766-3.757c-2.515-.64-5.151.45-6.48,2.679-2.638,4.424-5.739,8.573-9.217,12.332-1.763,1.907-2.063,4.744-.737,6.976l7.785,13.097-29.194,17.351Z" transform="translate(-126.213785,-393.213303)" fill="#57c6d4" fill-opacity="0.58"/></g><path d="M167.44,403.703c5.784-22.732-8.004-45.932-30.737-51.717-22.731-5.784-45.9317,8.004-51.7163,30.736-5.7845,22.733,8.0037,45.933,30.7353,51.718c22.733,5.784,45.933-8.004,51.718-30.737Zm-71.0923-18.09c4.1903-16.468,20.9973-26.456,37.4653-22.266c16.467,4.19,26.456,20.997,22.266,37.465-4.191,16.469-20.998,26.457-37.466,22.267-16.468-4.191-26.4556-20.998-22.2653-37.466Z" fill="#57c6d4" fill-opacity="0.58"/><g id="e0K1rb8gzGE8_to" transform="translate(178.425209,578.423584)"><g id="e0K1rb8gzGE8_tr" transform="rotate(0)"><path d="M187.834,554.858c-12.995-5.189-27.786,1.163-32.974,14.157s1.162,27.786,14.156,32.974c3.076,1.229,6.251,1.81,9.378,1.81c10.08,0,19.636-6.048,23.596-15.966c5.189-12.994-1.162-27.786-14.156-32.975Zm3.985,28.914c-1.428,3.578-4.165,6.385-7.704,7.905-3.539,1.519-7.459,1.57-11.037.141-7.386-2.949-10.995-11.356-8.046-18.742c2.949-7.385,11.357-10.994,18.742-8.046c7.385,2.949,10.994,11.356,8.045,18.742Z" transform="translate(-178.425209,-578.423584)" fill="#57c6d4" fill-opacity="0.58"/></g></g><g id="e0K1rb8gzGE9_to" transform="translate(178.424473,578.423401)"><g id="e0K1rb8gzGE9_tr" transform="rotate(0)"><path d="M237.405,584.461c-.573-1.334-1.653-2.387-3.001-2.925l-7.005-2.796c.004-.629-.004-1.257-.023-1.885l6.929-2.975c1.335-.573,2.388-1.653,2.926-3.002.538-1.348.519-2.856-.054-4.19L227.4,543.915c-1.193-2.779-4.414-4.066-7.193-2.872l-6.93,2.975c-.441-.447-.891-.885-1.35-1.315l2.797-7.005c1.122-2.808-.246-5.995-3.055-7.116l-23.016-9.191c-2.808-1.12-5.995.247-7.117,3.056l-2.797,7.004c-.626-.005-1.256.004-1.884.024l-2.975-6.931c-.573-1.335-1.653-2.387-3.002-2.925-1.348-.539-2.856-.52-4.19.053l-22.774,9.777c-2.779,1.193-4.065,4.414-2.871,7.193l2.975,6.93c-.447.441-.885.891-1.315,1.35l-7.004-2.797c-1.349-.539-2.857-.52-4.191.054-1.335.573-2.387,1.652-2.925,3.001l-9.191,23.015c-1.122,2.809.246,5.995,3.055,7.116l7.004,2.797c-.004.629.004,1.257.024,1.885l-6.93,2.975c-1.334.573-2.387,1.653-2.925,3.002-.538,1.348-.519,2.856.054,4.19l9.777,22.774c.573,1.334,1.653,2.387,3.001,2.925c1.349.538,2.857.52,4.191-.054l6.93-2.975c.441.447.891.885,1.35,1.316l-2.797,7.004c-1.122,2.809.246,5.995,3.055,7.116l23.016,9.191c.653.26,1.342.39,2.031.39.736,0,1.472-.148,2.161-.444c1.335-.573,2.387-1.653,2.925-3.001l2.796-7.004c.628.002,1.258-.004,1.885-.024l2.975,6.929c1.193,2.779,4.412,4.065,7.193,2.872l22.773-9.777c1.335-.573,2.387-1.653,2.925-3.002.539-1.349.52-2.856-.053-4.191l-2.975-6.929c.446-.442.885-.891,1.315-1.35l7.004,2.797c2.808,1.12,5.995-.247,7.117-3.055l9.19-23.017c.538-1.348.519-2.855-.054-4.19Zm-17.278,18.06l-5.543-2.213c-2.252-.899-4.827-.211-6.329,1.693-1.632,2.066-3.481,3.964-5.496,5.638-1.865,1.551-2.488,4.143-1.531,6.372l2.355,5.486-12.71,5.455-2.355-5.485c-.956-2.228-3.264-3.561-5.673-3.278-2.602.307-5.251.341-7.874.101-2.414-.221-4.686,1.171-5.585,3.422l-2.214,5.544-12.845-5.128l2.214-5.544c.899-2.252.211-4.827-1.693-6.329-2.067-1.631-3.964-3.481-5.639-5.496-1.55-1.865-4.143-2.489-6.372-1.531l-5.485,2.355-5.456-12.709l5.486-2.355c2.228-.957,3.563-3.266,3.278-5.675-.308-2.601-.341-5.249-.101-7.872.221-2.415-1.172-4.687-3.423-5.586l-5.544-2.214l5.129-12.845l5.544,2.214c2.252.899,4.826.211,6.329-1.692c1.632-2.067,3.481-3.965,5.495-5.639c1.866-1.55,2.489-4.143,1.532-6.372l-2.355-5.485l12.71-5.456l2.355,5.486c.956,2.228,3.263,3.561,5.673,3.278c2.603-.307,5.252-.341,7.873-.101c2.416.22,4.687-1.171,5.586-3.423l2.214-5.545l12.845,5.129-2.214,5.545c-.899,2.251-.211,4.826,1.692,6.328c2.068,1.632,3.965,3.481,5.639,5.496c1.55,1.865,4.143,2.488,6.372,1.531l5.485-2.355l5.456,12.71-5.486,2.355c-2.228.957-3.562,3.265-3.278,5.674.308,2.602.341,5.25.101,7.872-.221,2.415,1.171,4.687,3.423,5.586l5.544,2.214-5.129,12.844Z" transform="translate(-178.424473,-578.423401)" fill="#57c6d4" fill-opacity="0.58"/></g></g></svg>
