<svg width="520" height="638" viewBox="0 0 520 638" fill="none" xmlns="http://www.w3.org/2000/svg">
<path d="M440.171 312.022C440.769 309.674 440.409 307.184 439.171 305.102L425.762 282.538C428.767 278.931 431.587 275.158 434.202 271.244L459.641 277.717C464.531 278.961 469.503 276.006 470.747 271.117L488.305 202.114C489.549 197.224 486.595 192.252 481.705 191.008L456.266 184.535C455.84 179.848 455.166 175.184 454.251 170.58L476.815 157.17C481.152 154.593 482.579 148.987 480.001 144.649L443.624 83.4412C441.046 79.1049 435.44 77.6785 431.103 80.2552L408.539 93.6646C404.931 90.6596 401.159 87.8401 397.245 85.224L403.718 59.7873C404.962 54.8976 402.007 49.9257 397.117 48.6815L328.114 31.1229C323.224 29.8787 318.252 32.8336 317.008 37.7232L310.535 63.1609C305.849 63.5868 301.186 64.2607 296.58 65.1766L283.17 42.613C280.592 38.2759 274.987 36.8495 270.649 39.4271L209.442 75.8035C205.105 78.3811 203.678 83.9868 206.256 88.3248L219.665 110.888C216.661 114.495 213.84 118.269 211.225 122.182L185.787 115.71C180.898 114.464 175.925 117.42 174.681 122.31L157.123 191.313C155.879 196.203 158.833 201.175 163.723 202.419L189.161 208.892C189.587 213.579 190.26 218.242 191.176 222.847L168.613 236.256C166.531 237.494 165.025 239.509 164.427 241.857C163.83 244.205 164.19 246.694 165.427 248.777L201.803 309.985C203.041 312.067 205.056 313.574 207.404 314.171C209.752 314.769 212.241 314.408 214.324 313.171L236.887 299.761C240.495 302.766 244.268 305.586 248.182 308.201L241.709 333.639C240.464 338.529 243.419 343.501 248.309 344.745L317.312 362.303C322.202 363.548 327.174 360.593 328.418 355.703L334.891 330.265C339.578 329.839 344.24 329.166 348.846 328.25L362.255 350.814C363.493 352.896 365.508 354.402 367.856 355C370.204 355.597 372.694 355.237 374.776 354L435.984 317.623C438.068 316.384 439.574 314.37 440.171 312.022ZM373.295 333.625L361.163 313.211C359.095 309.734 354.987 308.029 351.064 309.024C343.325 310.985 335.334 312.139 327.315 312.455C323.273 312.614 319.817 315.411 318.82 319.33L312.964 342.344L261.668 329.291L267.524 306.277C268.521 302.358 266.822 298.249 263.349 296.178C256.455 292.068 249.989 287.235 244.127 281.812C241.157 279.065 236.736 278.598 233.256 280.664L212.842 292.796L185.8 247.294L206.214 235.163C209.692 233.096 211.396 228.987 210.402 225.065C208.44 217.325 207.286 209.335 206.97 201.316C206.812 197.275 204.014 193.819 200.095 192.821L177.082 186.966L190.134 135.669L213.148 141.525C217.068 142.523 221.177 140.824 223.248 137.349C227.358 130.456 232.191 123.99 237.613 118.129C240.361 115.159 240.829 110.735 238.762 107.257L226.629 86.8435L272.131 59.8016L284.263 80.2154C286.33 83.6925 290.439 85.3979 294.36 84.4031C302.1 82.442 310.091 81.2876 318.11 80.9721C322.151 80.8129 325.607 78.0157 326.604 74.0965L332.461 51.0815L383.757 64.1344L377.901 87.1485C376.904 91.0676 378.602 95.1764 382.076 97.248C388.97 101.359 395.436 106.191 401.297 111.613C404.269 114.362 408.691 114.829 412.168 112.761L432.582 100.629L459.624 146.13L439.21 158.262C435.732 160.329 434.028 164.439 435.022 168.361C436.983 176.098 438.138 184.088 438.453 192.109C438.612 196.151 441.41 199.607 445.329 200.604L468.343 206.46L455.29 257.757L432.276 251.9C428.357 250.903 424.248 252.602 422.176 256.076C418.065 262.97 413.232 269.438 407.811 275.297C405.063 278.268 404.596 282.691 406.663 286.168L418.795 306.581L373.295 333.625Z" fill="#B5B5B5" fill-opacity="0.58"/>
<path d="M386.968 213.063C395.983 177.632 374.493 141.473 339.063 132.457C303.634 123.442 267.474 144.932 258.459 180.362C249.443 215.793 270.933 251.952 306.362 260.968C341.794 269.983 377.952 248.493 386.968 213.063ZM276.165 184.868C282.697 159.201 308.891 143.633 334.557 150.164C360.223 156.695 375.792 182.89 369.261 208.557C362.73 234.224 336.535 249.792 310.868 243.261C285.201 236.73 269.635 210.534 276.165 184.868Z" fill="#B5B5B5" fill-opacity="0.58"/>
<path d="M435.852 420.789C414.547 412.282 390.297 422.695 381.792 443.998C373.285 465.302 383.697 489.554 405 498.059C410.044 500.073 415.249 501.026 420.375 501.026C436.901 501.026 452.568 491.111 459.061 474.851C467.567 453.548 457.156 429.295 435.852 420.789ZM442.385 468.192C440.044 474.058 435.557 478.66 429.755 481.152C423.952 483.643 417.525 483.726 411.659 481.383C399.551 476.549 393.633 462.765 398.468 450.657C403.303 438.548 417.088 432.632 429.195 437.465C441.302 442.3 447.22 456.084 442.385 468.192Z" fill="#B5B5B5" fill-opacity="0.58"/>
<path d="M517.122 469.323C516.183 467.134 514.413 465.409 512.202 464.527L500.718 459.942C500.725 458.911 500.712 457.881 500.679 456.852L512.04 451.974C514.229 451.035 515.954 449.265 516.836 447.054C517.719 444.842 517.688 442.37 516.748 440.183L500.719 402.847C498.764 398.291 493.483 396.181 488.926 398.139L477.565 403.017C476.842 402.284 476.105 401.565 475.352 400.86L479.938 389.376C481.777 384.772 479.534 379.548 474.929 377.709L437.194 362.642C432.591 360.805 427.365 363.046 425.527 367.651L420.941 379.134C419.914 379.126 418.881 379.14 417.851 379.173L412.974 367.81C412.035 365.622 410.265 363.896 408.053 363.014C405.843 362.131 403.37 362.162 401.183 363.102L363.847 379.132C359.29 381.088 357.182 386.368 359.139 390.924L364.017 402.285C363.284 403.009 362.565 403.746 361.86 404.498L350.377 399.913C348.166 399.03 345.694 399.061 343.506 400.001C341.318 400.94 339.593 402.71 338.711 404.921L323.643 442.654C321.804 447.259 324.047 452.482 328.651 454.321L340.135 458.907C340.128 459.937 340.141 460.968 340.174 461.997L328.813 466.874C326.624 467.814 324.899 469.584 324.017 471.795C323.134 474.007 323.165 476.478 324.105 478.666L340.134 516.002C341.073 518.191 342.844 519.916 345.055 520.798C347.265 521.681 349.738 521.65 351.926 520.71L363.287 515.832C364.01 516.565 364.747 517.284 365.5 517.989L360.914 529.472C359.075 534.077 361.318 539.301 365.923 541.14L403.658 556.207C404.728 556.634 405.858 556.847 406.987 556.847C408.193 556.847 409.4 556.604 410.53 556.119C412.718 555.18 414.444 553.409 415.326 551.198L419.91 539.716C420.939 539.72 421.972 539.709 423 539.676L427.878 551.037C429.833 555.593 435.111 557.701 439.67 555.745L477.006 539.716C479.195 538.776 480.92 537.006 481.802 534.795C482.685 532.583 482.653 530.112 481.714 527.924L476.836 516.563C477.569 515.839 478.288 515.102 478.993 514.35L490.477 518.935C495.08 520.772 500.305 518.531 502.144 513.926L517.211 476.191C518.093 473.982 518.062 471.51 517.122 469.323ZM488.796 498.931L479.707 495.303C476.015 493.828 471.794 494.957 469.332 498.077C466.657 501.466 463.624 504.577 460.321 507.322C457.263 509.864 456.242 514.115 457.811 517.769L461.672 526.762L440.835 535.707L436.974 526.714C435.405 523.06 431.623 520.875 427.672 521.339C423.407 521.843 419.063 521.898 414.764 521.504C410.805 521.143 407.08 523.425 405.606 527.116L401.977 536.205L380.918 527.796L384.547 518.707C386.021 515.016 384.893 510.794 381.772 508.332C378.384 505.657 375.273 502.624 372.527 499.321C369.986 496.263 365.735 495.241 362.081 496.811L353.088 500.672L344.143 479.835L353.136 475.974C356.79 474.405 358.978 470.62 358.51 466.671C358.007 462.407 357.951 458.064 358.345 453.764C358.707 449.806 356.424 446.081 352.734 444.606L343.645 440.977L352.053 419.918L361.142 423.548C364.834 425.022 369.055 423.893 371.518 420.773C374.195 417.384 377.226 414.273 380.528 411.529C383.586 408.988 384.608 404.737 383.04 401.083L379.179 392.09L400.015 383.145L403.876 392.138C405.445 395.791 409.227 397.977 413.179 397.512C417.445 397.009 421.789 396.954 426.085 397.347C430.046 397.709 433.77 395.427 435.244 391.735L438.874 382.645L459.932 391.053L456.303 400.143C454.828 403.835 455.958 408.056 459.077 410.519C462.466 413.195 465.577 416.226 468.321 419.528C470.864 422.587 475.114 423.609 478.768 422.04L487.761 418.179L496.706 439.016L487.713 442.877C484.058 444.445 481.872 448.231 482.338 452.18C482.842 456.445 482.897 460.786 482.504 465.086C482.14 469.044 484.424 472.77 488.116 474.244L497.205 477.874L488.796 498.931Z" fill="#B5B5B5" fill-opacity="0.58"/>
<path d="M201.576 467.196C201.959 465.69 201.728 464.092 200.934 462.756L192.33 448.28C194.258 445.965 196.068 443.544 197.746 441.033L214.068 445.186C217.205 445.985 220.395 444.089 221.193 440.951L232.459 396.678C233.257 393.541 231.361 390.351 228.224 389.553L211.902 385.399C211.629 382.392 211.196 379.4 210.609 376.446L225.087 367.842C227.869 366.188 228.785 362.592 227.131 359.808L203.791 320.537C202.137 317.755 198.54 316.839 195.758 318.493L181.28 327.096C178.965 325.168 176.545 323.359 174.034 321.681L178.187 305.36C178.985 302.223 177.089 299.033 173.952 298.235L129.679 286.969C126.541 286.17 123.351 288.066 122.553 291.204L118.4 307.525C115.393 307.798 112.401 308.23 109.446 308.818L100.842 294.341C99.1881 291.558 95.5914 290.643 92.8086 292.297L53.5372 315.636C50.7545 317.29 49.8392 320.887 51.4929 323.67L60.0967 338.147C58.1688 340.461 56.3589 342.883 54.6811 345.394L38.36 341.24C35.2229 340.442 32.0327 342.338 31.2344 345.475L19.9687 389.748C19.1704 392.886 21.0663 396.076 24.2035 396.874L40.5246 401.027C40.7983 404.034 41.2301 407.026 41.8179 409.981L27.341 418.585C26.0052 419.378 25.0387 420.671 24.6554 422.178C24.272 423.684 24.5031 425.281 25.2969 426.618L48.6362 465.89C49.4301 467.226 50.723 468.192 52.2295 468.575C53.7361 468.959 55.3331 468.728 56.6695 467.934L71.1465 459.33C73.4613 461.258 75.8822 463.067 78.393 464.745L74.2399 481.066C73.4416 484.204 75.3375 487.394 78.4748 488.192L122.748 499.458C125.885 500.256 129.075 498.36 129.874 495.223L134.027 478.902C137.034 478.628 140.025 478.196 142.98 477.608L151.584 492.086C152.378 493.422 153.671 494.388 155.177 494.771C156.684 495.155 158.281 494.924 159.617 494.13L198.889 470.79C200.226 469.995 201.192 468.703 201.576 467.196ZM158.667 481.057L150.883 467.96C149.556 465.729 146.92 464.635 144.404 465.273C139.438 466.531 134.311 467.272 129.166 467.474C126.573 467.576 124.355 469.371 123.715 471.886L119.958 486.652L87.0457 478.277L90.8031 463.511C91.443 460.996 90.3532 458.36 88.1243 457.031C83.7015 454.394 79.5526 451.293 75.7917 447.814C73.8861 446.051 71.0495 445.751 68.8163 447.077L55.7186 454.861L38.3684 425.667L51.466 417.883C53.6975 416.557 54.7911 413.921 54.153 411.404C52.8946 406.438 52.1539 401.311 51.9515 396.167C51.8499 393.574 50.0546 391.356 47.54 390.716L32.7745 386.959L41.1493 354.047L55.9154 357.804C58.43 358.444 61.0668 357.354 62.3956 355.125C65.0325 350.702 68.1335 346.553 71.6124 342.793C73.3752 340.887 73.6752 338.049 72.349 335.817L64.5649 322.72L93.7589 305.369L101.543 318.467C102.869 320.698 105.506 321.792 108.022 321.154C112.988 319.896 118.115 319.155 123.26 318.953C125.853 318.85 128.07 317.056 128.71 314.541L132.467 299.774L165.38 308.149L161.622 322.915C160.982 325.43 162.072 328.066 164.301 329.395C168.724 332.033 172.873 335.133 176.634 338.612C178.54 340.376 181.378 340.675 183.608 339.349L196.706 331.565L214.057 360.759L200.959 368.543C198.727 369.869 197.634 372.506 198.272 375.022C199.53 379.986 200.271 385.113 200.473 390.259C200.575 392.853 202.37 395.07 204.885 395.71L219.651 399.467L211.276 432.379L196.51 428.622C193.995 427.982 191.359 429.072 190.03 431.301C187.392 435.725 184.291 439.874 180.813 443.633C179.05 445.54 178.75 448.377 180.076 450.609L187.861 463.706L158.667 481.057Z" fill="#B5B5B5" fill-opacity="0.58"/>
<path d="M167.44 403.703C173.224 380.971 159.436 357.771 136.703 351.986C113.972 346.202 90.7713 359.99 84.9867 382.722C79.2022 405.455 92.9904 428.655 115.722 434.44C138.455 440.224 161.655 426.436 167.44 403.703ZM96.3477 385.613C100.538 369.145 117.345 359.157 133.813 363.347C150.28 367.537 160.269 384.344 156.079 400.812C151.888 417.281 135.081 427.269 118.613 423.079C102.145 418.888 92.1574 402.081 96.3477 385.613Z" fill="#B5B5B5" fill-opacity="0.58"/>
<path d="M187.834 554.858C174.839 549.669 160.048 556.021 154.86 569.015C149.672 582.009 156.022 596.801 169.016 601.989C172.092 603.218 175.267 603.799 178.394 603.799C188.474 603.799 198.03 597.751 201.99 587.833C207.179 574.839 200.828 560.047 187.834 554.858ZM191.819 583.772C190.391 587.35 187.654 590.157 184.115 591.677C180.576 593.196 176.656 593.247 173.078 591.818C165.692 588.869 162.083 580.462 165.032 573.076C167.981 565.691 176.389 562.082 183.774 565.03C191.159 567.979 194.768 576.386 191.819 583.772Z" fill="#B5B5B5" fill-opacity="0.58"/>
<path d="M237.405 584.461C236.832 583.127 235.752 582.074 234.404 581.536L227.399 578.74C227.403 578.111 227.395 577.483 227.376 576.855L234.305 573.88C235.64 573.307 236.693 572.227 237.231 570.878C237.769 569.53 237.75 568.022 237.177 566.688L227.4 543.915C226.207 541.136 222.986 539.849 220.207 541.043L213.277 544.018C212.836 543.571 212.386 543.133 211.927 542.703L214.724 535.698C215.846 532.89 214.478 529.703 211.669 528.582L188.653 519.391C185.845 518.271 182.658 519.638 181.536 522.447L178.739 529.451C178.113 529.446 177.483 529.455 176.855 529.475L173.88 522.544C173.307 521.209 172.227 520.157 170.878 519.619C169.53 519.08 168.022 519.099 166.688 519.672L143.914 529.449C141.135 530.642 139.849 533.863 141.043 536.642L144.018 543.572C143.571 544.013 143.133 544.463 142.703 544.922L135.699 542.125C134.35 541.586 132.842 541.605 131.508 542.179C130.173 542.752 129.121 543.831 128.583 545.18L119.392 568.195C118.27 571.004 119.638 574.19 122.447 575.311L129.451 578.108C129.447 578.737 129.455 579.365 129.475 579.993L122.545 582.968C121.211 583.541 120.158 584.621 119.62 585.97C119.082 587.318 119.101 588.826 119.674 590.16L129.451 612.934C130.024 614.268 131.104 615.321 132.452 615.859C133.801 616.397 135.309 616.379 136.643 615.805L143.573 612.83C144.014 613.277 144.464 613.715 144.923 614.146L142.126 621.15C141.004 623.959 142.372 627.145 145.181 628.266L168.197 637.457C168.85 637.717 169.539 637.847 170.228 637.847C170.964 637.847 171.7 637.699 172.389 637.403C173.724 636.83 174.776 635.75 175.314 634.402L178.11 627.398C178.738 627.4 179.368 627.394 179.995 627.374L182.97 634.303C184.163 637.082 187.382 638.368 190.163 637.175L212.936 627.398C214.271 626.825 215.323 625.745 215.861 624.396C216.4 623.047 216.381 621.54 215.808 620.205L212.833 613.276C213.279 612.834 213.718 612.385 214.148 611.926L221.152 614.723C223.96 615.843 227.147 614.476 228.269 611.668L237.459 588.651C237.997 587.303 237.978 585.796 237.405 584.461ZM220.127 602.521L214.584 600.308C212.332 599.409 209.757 600.097 208.255 602.001C206.623 604.067 204.774 605.965 202.759 607.639C200.894 609.19 200.271 611.782 201.228 614.011L203.583 619.497L190.873 624.952L188.518 619.467C187.562 617.239 185.254 615.906 182.845 616.189C180.243 616.496 177.594 616.53 174.971 616.29C172.557 616.069 170.285 617.461 169.386 619.712L167.172 625.256L154.327 620.128L156.541 614.584C157.44 612.332 156.752 609.757 154.848 608.255C152.781 606.624 150.884 604.774 149.209 602.759C147.659 600.894 145.066 600.27 142.837 601.228L137.352 603.583L131.896 590.874L137.382 588.519C139.61 587.562 140.945 585.253 140.66 582.844C140.352 580.243 140.319 577.595 140.559 574.972C140.78 572.557 139.387 570.285 137.136 569.386L131.592 567.172L136.721 554.327L142.265 556.541C144.517 557.44 147.091 556.752 148.594 554.849C150.226 552.782 152.075 550.884 154.089 549.21C155.955 547.66 156.578 545.067 155.621 542.838L153.266 537.353L165.976 531.897L168.331 537.383C169.287 539.611 171.594 540.944 174.004 540.661C176.607 540.354 179.256 540.32 181.877 540.56C184.293 540.78 186.564 539.389 187.463 537.137L189.677 531.592L202.522 536.721L200.308 542.266C199.409 544.517 200.097 547.092 202 548.594C204.068 550.226 205.965 552.075 207.639 554.09C209.189 555.955 211.782 556.578 214.011 555.621L219.496 553.266L224.952 565.976L219.466 568.331C217.238 569.288 215.904 571.596 216.188 574.005C216.496 576.607 216.529 579.255 216.289 581.877C216.068 584.292 217.46 586.564 219.712 587.463L225.256 589.677L220.127 602.521Z" fill="#B5B5B5" fill-opacity="0.58"/>
</svg>
