<svg width="57" height="54" viewBox="0 0 57 54" fill="none" xmlns="http://www.w3.org/2000/svg">
<path d="M4.05576 12.6728C-0.899403 19.8019 -0.286573 29.0748 3.50247 36.6698C3.59001 36.852 3.68632 37.0306 3.77912 37.2093L3.95421 37.5509C3.98923 37.6174 4.02775 37.6822 4.06452 37.747C4.1293 37.8696 4.19584 37.9817 4.26238 38.1009L4.62482 38.7209L4.83143 39.0607L5.25166 39.7176L5.43025 39.9943C5.62811 40.2886 5.82947 40.5829 6.03783 40.8701L6.1569 41.0313C6.33739 41.2795 6.52184 41.5247 6.71019 41.767L6.92031 42.0332L7.43158 42.6638L7.62769 42.8985C7.86056 43.1735 8.10044 43.4467 8.34032 43.713C8.36483 43.7393 8.37534 43.748 8.38234 43.7585C8.62022 44.0166 8.86187 44.2712 9.10723 44.5222L9.34011 44.7569L9.91792 45.3245L10.1543 45.5522C10.4143 45.7975 10.6788 46.0381 10.9475 46.2738L11.8159 47.0095L12.1136 47.2477L12.7142 47.7172L13.0346 47.9624L13.7087 48.4458L14.0239 48.6683C14.2392 48.8172 14.4581 48.959 14.6787 49.1009L14.9624 49.2901C15.3004 49.5047 15.6418 49.7138 15.9867 49.9172L16.2703 50.0923L17.0408 50.5232C17.1808 50.5985 17.3244 50.6703 17.4662 50.7422L18.016 51.0277L18.1438 51.089L18.3715 51.1976L19.2434 51.6005L19.4273 51.6828C19.7639 51.8295 20.103 51.9702 20.4446 52.1049L20.6897 52.203L21.6492 52.5586L21.7718 52.6006C22.1261 52.7226 22.4821 52.8394 22.8399 52.9509L23.099 53.028C23.4492 53.1384 23.8274 53.2732 24.2021 53.3398C48.1795 57.7135 55.1413 38.9241 55.1413 38.9241C49.2931 46.5471 38.91 48.5579 29.0522 46.3194C28.6793 46.2353 28.3168 46.1197 27.9544 46.0111L27.6812 45.9288C27.3268 45.8198 26.9742 45.7047 26.6237 45.5837L26.4783 45.5312C26.1663 45.4204 25.8558 45.3053 25.5468 45.1861L25.2842 45.081C24.9458 44.9478 24.6101 44.8076 24.2774 44.6606L24.076 44.573L23.2268 44.1772L22.9817 44.0598C22.7611 43.9547 22.544 43.8374 22.3251 43.7095L21.8874 43.4818C21.6212 43.3416 21.3621 43.191 21.0994 43.0404L20.8333 42.8915C20.4886 42.6879 20.1471 42.4788 19.809 42.2644C19.7162 42.2049 19.6251 42.1418 19.5323 42.0805L18.804 41.5953C18.7234 41.5428 18.6289 41.4832 18.5693 41.4306L17.8795 40.9314L17.573 40.7002L16.9515 40.2133L16.6748 39.9908L15.9009 39.3375C15.8727 39.3129 15.8435 39.2895 15.8133 39.2674L14.9992 38.5265L14.7715 38.3058L14.1902 37.7278L13.9626 37.5001C13.7175 37.2496 13.4793 36.9973 13.2622 36.7399C13.25 36.7276 13.2377 36.7153 13.2272 36.7013C12.9793 36.4291 12.7364 36.1523 12.4988 35.8711L12.3237 35.6434L11.7984 34.9953L11.6233 34.7553L11.0175 33.9496C5.52305 26.5017 3.5585 16.2058 7.92535 7.7631M19.4465 6.66835C15.8606 11.8303 16.055 18.7544 18.8512 24.1984C19.3198 25.1159 19.8498 26.0007 20.4376 26.8468C20.9751 27.6175 21.5704 28.5336 22.2831 29.1519C22.5422 29.4374 22.8119 29.7124 23.0885 29.9874L23.2986 30.1976C23.5662 30.4587 23.84 30.7133 24.1198 30.9613C24.1321 30.9701 24.1408 30.9823 24.1548 30.9911C24.4735 31.2714 24.7957 31.5166 25.1231 31.7933L25.3402 31.9632C25.6687 32.2167 26.0038 32.4614 26.3453 32.6972L26.375 32.7182C26.5256 32.8233 26.6797 32.9196 26.8338 33.0212C26.9073 33.0685 26.9774 33.1193 27.0509 33.1648C27.2957 33.3219 27.5438 33.4738 27.795 33.6203L27.9001 33.6816L28.5585 34.0319C28.6355 34.0757 28.7335 34.1125 28.7931 34.1545L29.2536 34.3927C29.2763 34.405 29.3009 34.4137 29.3236 34.4242C29.6395 34.5816 29.9594 34.7305 30.2831 34.8709L30.4932 34.9585C30.754 35.0692 31.0167 35.1755 31.2812 35.2773L31.6174 35.3999C31.8571 35.4871 32.0982 35.5706 32.3405 35.6504L32.6679 35.7555C33.0129 35.8606 33.3683 36.0007 33.7132 36.0585C52.2259 39.1273 56.5 24.8482 56.5 24.8482C52.6479 30.4008 45.1889 33.0457 37.2256 30.9788C36.8737 30.8862 36.524 30.7852 36.1768 30.6758C36.0718 30.6443 35.9667 30.6092 35.8616 30.5742L35.1262 30.322L34.7761 30.1994C34.5117 30.0973 34.249 29.9911 33.9881 29.8806L33.7745 29.793C33.4488 29.6514 33.1265 29.5018 32.808 29.3446L32.323 29.0994L32.0428 28.9557C31.8368 28.8438 31.6325 28.7288 31.43 28.6107L31.2829 28.5283C31.0324 28.3815 30.7849 28.2297 30.5405 28.0729C30.4652 28.0256 30.3917 27.9731 30.3164 27.924L29.8349 27.6053C29.4958 27.3701 29.163 27.126 28.8369 26.8731L28.6092 26.6979C25.1073 23.9444 22.3619 20.182 21.0487 15.9186C19.6724 11.4958 19.9683 6.52997 22.3531 2.50129M32.3895 2.18074C30.2779 5.30735 30.0678 9.15738 31.5351 12.594C33.0811 16.2426 36.2503 19.103 39.9501 20.4762L40.4088 20.6514L40.6119 20.7144L41.272 20.8896C51.4941 22.8654 54.264 15.6418 55.0047 14.5786C52.5761 18.0765 48.4947 18.9156 43.487 17.6999C43.0913 17.6036 42.657 17.46 42.2753 17.3251C41.7854 17.1514 41.305 16.952 40.8361 16.7278C39.946 16.2996 39.1008 15.7838 38.313 15.1881C33.8323 11.7883 31.0483 5.28283 33.9724 0" fill="#AEAEAE"/>
</svg>
