<svg width="62" height="56" viewBox="0 0 62 56" fill="none" xmlns="http://www.w3.org/2000/svg">
<path d="M0 0.875V55.125H62V0.875H0ZM33.7402 43.1852C33.7402 48.4648 30.1973 50.8746 25.0353 50.8746C20.3714 50.8746 17.6728 48.7676 16.2888 46.2125L21.0357 43.7059C21.9491 45.1227 22.7795 46.3215 24.7862 46.3215C26.696 46.3215 27.9138 45.6676 27.9138 43.1125V25.784H33.7402V43.1852ZM47.5241 50.8746C42.1129 50.8746 38.6116 48.6223 36.9094 45.6676L41.6562 43.2699C42.9018 45.05 44.5348 46.3699 47.3996 46.3699C49.8076 46.3699 51.3576 45.3164 51.3576 43.8512C51.3576 42.1074 49.7799 41.4898 47.1089 40.4605L45.6558 39.9156C41.4487 38.3535 38.667 36.3797 38.667 32.2262C38.667 28.3996 42.0022 25.4934 47.192 25.4934C50.9009 25.4934 53.558 26.6195 55.4679 29.5742L50.9286 32.1172C49.9321 30.5551 48.8527 29.9375 47.1781 29.9375C45.4759 29.9375 44.3964 30.882 44.3964 32.1172C44.3964 33.643 45.4759 34.2605 47.9808 35.2172L49.4339 35.7621C54.3884 37.6148 57.1701 39.516 57.1701 43.7785C57.1701 48.3559 53.046 50.8746 47.5241 50.8746Z" fill="#AEAEAE"/>
</svg>
