<svg width="65" height="64" viewBox="0 0 65 64" fill="none" xmlns="http://www.w3.org/2000/svg">
<g clip-path="url(#clip0_141_215)">
<path fill-rule="evenodd" clip-rule="evenodd" d="M59.4515 49.8526C55.9707 49.7556 53.2703 50.1124 51.007 51.0645C50.3553 51.3262 49.3095 51.3262 49.2236 52.1464C49.5719 52.4906 49.6138 53.0539 49.9192 53.5309C50.4411 54.3967 51.3562 55.5631 52.1825 56.168L54.9678 58.1585C56.6653 59.1959 58.5803 59.8018 60.2339 60.8402C61.1919 61.4461 62.149 62.2247 63.107 62.8742C63.5948 63.2204 63.8904 63.7837 64.5001 63.9989V63.868C64.1957 63.4802 64.1079 62.9179 63.8045 62.4835L62.4972 61.2299C61.2358 59.543 59.6681 58.0712 57.9706 56.8612C56.5775 55.9092 53.5317 54.6119 52.9659 53.0122L52.8801 52.9153C53.8361 52.8183 54.9678 52.4819 55.8829 52.2221C57.3638 51.8343 58.712 51.9196 60.2339 51.5308L62.3246 50.9248V50.537C61.5412 49.7585 60.9754 48.7201 60.149 47.9852C57.9296 46.0821 55.4907 44.2215 52.9659 42.6645C51.6167 41.7997 49.8753 41.2364 48.4392 40.5024C47.9154 40.2426 47.0461 40.1127 46.7418 39.6803C45.9564 38.7302 45.5223 37.4746 44.9565 36.349L41.3878 28.8226C40.6044 27.1356 40.1244 25.4486 39.1684 23.8916C34.6847 16.5377 29.8087 12.0828 22.3222 7.71312C20.7125 6.80467 18.7975 6.41395 16.7614 5.93889L13.4972 5.76437C12.7996 5.46188 12.104 4.63972 11.4943 4.24997C9.01343 2.69292 2.61466 -0.681032 0.785459 3.76521C-0.390106 6.57683 2.52685 9.34483 3.51706 10.7729C4.25849 11.7677 5.21455 12.8923 5.73844 14.017C6.03111 14.7519 6.12867 15.5314 6.43402 16.3099C7.12961 18.2131 7.78324 20.3334 8.69735 22.1077C9.18514 23.0161 9.69732 23.9691 10.307 24.7903C10.6553 25.2751 11.2651 25.4826 11.3948 26.2611C10.7851 27.1269 10.7431 28.4231 10.3948 29.5061C8.8271 34.3944 9.43683 40.4501 11.6563 44.049C12.3538 45.13 13.9976 47.5102 16.2278 46.6008C18.1867 45.8222 17.7497 43.3567 18.3155 41.1937C18.4472 40.675 18.3594 40.3289 18.6199 39.9818V40.0788L20.4052 43.6689C21.7544 45.7883 24.1055 47.9949 26.0635 49.4667C27.1074 50.2452 27.9347 51.587 29.24 52.0621V51.9312H29.1541C28.8927 51.5434 28.5005 51.3689 28.1522 51.0664C27.3688 50.2879 26.4986 49.3358 25.8889 48.471C24.0616 46.0491 22.4519 43.3664 21.0149 40.5984C20.3174 39.2576 19.7077 37.7868 19.1438 36.446C18.8804 35.9263 18.8804 35.1468 18.4463 34.8889C17.7926 35.839 16.8366 36.6631 16.3556 37.8304C15.5283 39.69 15.4425 41.9829 15.1381 44.3621C14.9625 44.4058 15.0405 44.3621 14.9625 44.4591C13.5713 44.1139 13.0913 42.6849 12.5694 41.4749C11.2641 38.4034 11.0455 33.4724 12.1772 29.9249C12.4816 29.0165 13.7889 26.1612 13.2669 25.2964C13.0035 24.4743 12.1353 23.9992 11.6553 23.3496C11.0894 22.5275 10.4817 21.4901 10.0895 20.5816C9.04563 18.1578 8.5237 15.4771 7.39106 13.0542C6.86717 11.9296 5.95404 10.7613 5.21358 9.72391C4.3863 8.55563 3.47414 7.73348 2.8205 6.34996C2.60295 5.8652 2.29857 5.0954 2.64685 4.57574C2.7327 4.22961 2.9083 4.09097 3.25463 4.01341C3.82046 3.52865 5.43211 4.14333 5.99794 4.40122C7.60763 5.0508 8.95685 5.65579 10.3061 6.56326C10.9158 6.99567 11.5694 7.81783 12.3528 8.035H13.2679C14.661 8.33749 16.2268 8.13195 17.5312 8.51976C19.8384 9.2566 21.9271 10.3367 23.8002 11.5059C29.5014 15.0961 34.2037 20.2006 37.3802 26.3009C37.9021 27.2956 38.1196 28.204 38.5996 29.2424C39.5147 31.3627 40.6464 33.5248 41.5585 35.6025C42.4736 37.6356 43.3438 39.7133 44.6491 41.4002C45.3028 42.3087 47.9134 42.7837 49.088 43.2598C49.9592 43.6476 51.3074 43.9966 52.0928 44.4717C53.5717 45.3801 55.0517 46.4185 56.4438 47.4132C57.1394 47.931 59.3169 49.0129 59.4466 49.8758L59.4515 49.8526ZM15.063 12.2621C14.4616 12.2568 13.8621 12.3295 13.2796 12.4783V12.5753H13.3655C13.7137 13.2675 14.3235 13.7436 14.7586 14.3495L15.7605 16.4262L15.8463 16.3293C16.4561 15.8969 16.7614 15.2046 16.7614 14.1672C16.5 13.8648 16.4571 13.5613 16.2395 13.2588C15.978 12.8264 15.4122 12.6092 15.063 12.2641V12.2621Z" fill="#AEAEAE"/>
</g>
<defs>
<clipPath id="clip0_141_215">
<rect width="64" height="64" fill="white" transform="translate(0.5)"/>
</clipPath>
</defs>
</svg>
