<svg width="76" height="40" viewBox="0 0 76 40" fill="none" xmlns="http://www.w3.org/2000/svg">
<path d="M38 1.99644C58.3537 1.99644 74.005 10.5764 74.005 20C74.005 29.4237 58.3419 38.0036 38 38.0036C17.6462 38.0036 1.995 29.4237 1.995 20C1.995 10.5764 17.6581 1.99644 38 1.99644ZM38 0C17.0169 0 0 8.94831 0 20C0 31.0517 17.0169 40 38 40C58.9831 40 76 31.0517 76 20C76 8.94831 58.9831 0 38 0ZM25.9112 18.3957C24.9731 23.2086 21.66 22.7094 17.5869 22.7094L19.2138 14.3197C23.7262 14.3197 26.79 13.8324 25.9112 18.3957ZM11.5662 31.2062H15.9244L16.9575 25.8824C21.8381 25.8824 24.8662 26.2389 27.6687 23.6126C30.7681 20.7605 31.5756 15.6863 29.3669 13.1432C28.215 11.8122 26.3625 11.1586 23.845 11.1586H15.4494L11.5662 31.2062ZM33.6181 5.82294H37.9525L36.9194 11.1468C40.66 11.1468 44.1275 10.8734 45.8019 12.4183C47.5594 14.0345 46.7162 16.1022 44.8162 25.8586H40.4225C42.2512 16.4231 42.5956 15.6387 41.9306 14.9257C41.2894 14.2365 39.8288 14.3791 36.3019 14.3791L34.0694 25.8586H29.735L33.6181 5.82294ZM59.9688 18.3957C59.0187 23.2799 55.6106 22.7094 51.6444 22.7094L53.2713 14.3197C57.8075 14.3197 60.8475 13.8324 59.9688 18.3957ZM45.6238 31.2062H49.9937L51.0269 25.8824C56.1569 25.8824 58.995 26.1794 61.7381 23.6126C64.8375 20.7605 65.645 15.6863 63.4362 13.1432C62.2844 11.8122 60.4319 11.1586 57.9144 11.1586H49.5187L45.6238 31.2062Z" fill="#AEAEAE"/>
</svg>
