<svg width="81" height="60" viewBox="0 0 81 60" fill="none" xmlns="http://www.w3.org/2000/svg">
<path d="M38.2016 45.3608C38.1636 45.4358 38.1257 45.4958 38.2016 45.3608V45.3608ZM69.7325 34.4867C67.187 34.4858 64.6753 35.0632 62.3918 36.174C61.6451 34.6866 60.873 33.3867 60.7465 32.4118C60.5946 31.2744 60.43 30.5995 60.6072 29.2496C60.7844 27.8997 61.5818 25.9874 61.5691 25.8499C61.5565 25.7124 61.3919 25.0249 59.7593 25.0124C58.1266 24.9999 56.7217 25.3249 56.5585 25.7499C56.2701 26.5265 56.0458 27.3249 55.8877 28.1372C55.5966 29.5996 52.6236 34.8241 50.9403 37.5489C50.3834 36.4865 49.9151 35.5491 49.8139 34.7991C49.662 33.6617 49.4974 32.9868 49.6746 31.6369C49.8518 30.287 50.6492 28.3747 50.6365 28.2372C50.6239 28.0997 50.4593 27.4122 48.8279 27.3997C47.1965 27.3872 45.7904 27.7122 45.6259 28.1372C45.4613 28.5621 45.2841 29.5621 44.9551 30.5245C44.626 31.4869 40.6658 40.1862 39.6293 42.4485C39.0977 43.5984 38.6421 44.5233 38.313 45.1483C38.2624 45.2483 38.2244 45.3108 38.1991 45.3608C38.2371 45.2983 38.2624 45.2358 38.2624 45.2608C37.9839 45.7982 37.8194 46.0982 37.8194 46.0982V46.1107C37.6042 46.5107 37.3638 46.8731 37.2499 46.8731C37.1739 46.8731 37.0094 45.8232 37.2878 44.3859C37.8827 41.3611 39.2875 36.6615 39.2749 36.499C39.2622 36.4115 39.5407 35.5991 38.351 35.1616C37.1992 34.7491 36.7816 35.4366 36.6803 35.4366C36.5791 35.4366 36.5031 35.6866 36.5031 35.6866C36.5031 35.6866 37.7814 30.387 34.0491 30.387C31.7203 30.387 28.4802 32.9118 26.8881 35.1991C25.8882 35.7366 23.724 36.899 21.4458 38.1364C20.5725 38.6113 19.6739 39.0988 18.8259 39.5612C18.7627 39.4987 18.712 39.4363 18.6487 39.3738C14.119 34.5991 5.75568 31.2244 6.11006 24.8124C6.23662 22.4751 7.05929 16.3381 22.1925 8.88875C34.5958 2.78924 44.5121 4.46411 46.2194 8.1888C48.6748 13.5009 40.9177 23.3876 28.0373 24.8124C23.1278 25.3499 20.5472 23.4751 19.9017 22.7751C19.2309 22.0377 19.1297 22.0002 18.8766 22.1377C18.4589 22.3626 18.7247 23.0126 18.8766 23.4001C19.2563 24.3875 20.8383 26.1373 23.5329 27.0123C25.8996 27.7747 31.6557 28.1997 38.6155 25.5374C46.4346 22.5626 52.5211 14.2758 50.7365 7.33887C48.9191 0.289446 37.0828 -2.02287 25.8907 1.90181C19.2221 4.23912 12.0105 7.91383 6.82261 12.7009C0.660213 18.4005 -0.32572 23.3626 0.0792843 25.4374C1.52085 32.7993 11.7953 37.5989 15.9074 41.1486C15.7049 41.2611 15.515 41.3611 15.3378 41.4611C13.2761 42.4735 5.44307 46.5232 3.48259 50.7978C1.26772 55.6474 3.84963 59.1222 5.54432 59.5971C10.8334 61.047 16.2491 58.4347 19.1588 54.1476C22.0685 49.8604 21.7154 44.2609 20.3738 41.7111C20.3612 41.6736 20.3358 41.6486 20.3232 41.6111C20.8548 41.2986 21.399 40.9861 21.9432 40.6737C22.9924 40.0612 24.0176 39.4987 24.9162 39.0113C24.4099 40.3612 24.0429 41.986 23.8531 44.3359C23.6252 47.0856 24.777 50.6478 26.2704 52.0477C26.9286 52.6602 27.7247 52.6727 28.2183 52.6727C29.9648 52.6727 30.7495 51.2478 31.6216 49.5479C32.6973 47.4731 33.6466 45.0608 33.6466 45.0608C33.6466 45.0608 32.4569 51.5853 35.7096 51.5853C36.898 51.5853 38.0877 50.0729 38.6205 49.298V49.3105C38.6205 49.3105 38.6459 49.2605 38.7091 49.1605C38.8357 48.973 38.899 48.8605 38.899 48.8605V48.823C39.3799 48.0106 40.4304 46.1482 42.0112 43.0735C44.0615 39.0988 46.022 34.1367 46.022 34.1367C46.2114 35.2275 46.4736 36.3047 46.8067 37.3614C47.1611 38.5488 47.9078 39.8487 48.5027 41.1111C48.0217 41.7611 47.7306 42.136 47.7306 42.136C47.7315 42.1456 47.7361 42.1545 47.7433 42.161C47.3636 42.661 46.9333 43.1985 46.4903 43.7234C44.8715 45.6233 42.9465 47.7981 42.6934 48.423C42.3896 49.1605 42.4656 49.7104 43.0478 50.1354C43.4781 50.4604 44.2375 50.5104 45.0335 50.4479C46.489 50.3479 47.5142 49.9979 48.0078 49.7729C48.9178 49.4507 49.7778 49.0048 50.5631 48.448C52.1452 47.2981 53.1071 45.6483 53.0185 43.4734C52.9678 42.2735 52.5755 41.0736 52.0945 39.9487C52.2338 39.7487 52.3856 39.5362 52.5249 39.3238C55.0296 35.7116 56.966 31.7469 56.966 31.7469C57.1554 32.8377 57.4176 33.9149 57.7507 34.9716C58.0544 35.984 58.648 37.0964 59.1922 38.1839C56.8394 40.0712 55.3839 42.2585 54.8777 43.6959C53.9411 46.3582 54.6752 47.5581 56.0547 47.8331C56.6749 47.9581 57.5608 47.6706 58.219 47.3956C59.1964 47.0741 60.118 46.6062 60.9515 46.0082C62.5335 44.8583 64.0637 43.2459 63.9624 41.0586C63.9245 40.0712 63.646 39.0838 63.279 38.1339C65.2661 37.3089 67.8467 36.859 71.1374 37.2339C78.1844 38.0464 79.564 42.396 79.2982 44.2084C79.0324 46.0207 77.5516 47.0331 77.058 47.3331C76.5644 47.6331 76.4125 47.7456 76.4505 47.9706C76.5138 48.2955 76.7416 48.283 77.1593 48.208C77.7415 48.1081 80.8537 46.7332 80.9929 43.3709C81.1954 39.1213 77.058 34.4467 69.7287 34.4842L69.7325 34.4867ZM15.4138 52.5727C13.0863 55.085 9.82091 56.0349 8.41732 55.235C6.91121 54.37 7.50606 50.6728 10.3778 47.9956C12.1244 46.3707 14.3759 44.8708 15.8694 43.9459C16.2111 43.7459 16.7047 43.4459 17.3122 43.0835C17.4135 43.021 17.4641 42.996 17.4641 42.996C17.578 42.921 17.7046 42.8585 17.8311 42.7835C18.8804 46.5832 17.8691 49.9329 15.4138 52.5702V52.5727ZM32.4189 41.1486C31.6089 43.111 29.9016 48.1105 28.8637 47.8481C27.9778 47.6231 27.4336 43.8109 28.6865 40.0612C29.3194 38.1739 30.6609 35.924 31.4583 35.0491C32.7353 33.6367 34.1402 33.1868 34.4692 33.7492C34.9122 34.4867 32.9252 39.9237 32.4189 41.1486ZM46.4675 47.7731C46.1258 47.9481 45.8094 48.0606 45.6575 47.9731C45.5436 47.9106 45.7967 47.6731 45.7967 47.6731C45.7967 47.6731 47.556 45.8107 48.2521 44.9608C48.6571 44.4608 49.1254 43.8734 49.6303 43.2234C49.6303 43.2859 49.643 43.3484 49.643 43.4234C49.6265 45.6608 47.4509 47.1731 46.4637 47.7731H46.4675ZM57.2989 45.3358C57.0457 45.1608 57.0837 44.5733 57.9317 42.7485C58.2607 42.036 59.0189 40.8361 60.3364 39.6862C60.4855 40.1215 60.5666 40.5767 60.5769 41.0361C60.5642 43.8484 58.5265 44.8983 57.3001 45.3358H57.2989Z" fill="#AEAEAE"/>
</svg>
